<svg xmlns="http://www.w3.org/2000/svg" width="70" height="27" viewBox="0 0 70 27" fill="none">
  <path d="M62.0115 15.1927C59.4132 15.2621 56.8149 15.2968 54.2756 15.4008C50.4962 15.5742 47.6026 16.1638 45.831 17.1696C44.6499 17.8459 43.587 18.5396 42.7012 19.2679C40.339 21.1582 38.9218 23.1351 37.1502 25.06C36.914 25.3201 36.8549 25.6149 36.6777 25.875C36.6187 25.9791 36.5596 26.1005 36.3825 26.1872C35.9691 26.4473 35.2014 26.586 34.3156 26.5513C33.4298 26.5166 32.7212 26.3085 32.6621 26.0137C32.6031 25.8577 32.6031 25.6843 32.7212 25.5108C33.0755 24.8519 32.9574 24.2102 32.7212 23.5686C32.2488 22.3027 31.5992 21.0368 30.2409 19.8229C28.5284 18.3835 25.9301 17.1176 21.8554 16.1291C19.7885 15.6262 17.6626 15.1407 15.5367 14.6378C12.2888 13.8748 8.56844 13.3719 4.72998 12.921C4.13945 12.8516 3.43081 12.8343 2.72217 12.7649C2.24975 12.7302 1.71827 12.6955 1.24584 12.6262C0.24194 12.4874 -0.171432 12.1926 0.064781 11.8978C0.300994 11.6204 1.18679 11.447 2.24975 11.4816C3.01744 11.499 3.84418 11.551 4.61187 11.6204C8.98181 12.0192 13.4698 11.9325 17.9579 11.8111C19.6114 11.7764 21.2649 11.7244 22.8593 11.6204C26.5796 11.3603 29.4733 10.7533 31.1858 9.73016C32.544 8.93246 33.4889 8.10007 34.1385 7.21566C35.2014 5.84569 36.6777 4.49306 37.2683 3.0884C37.5635 2.3774 37.9179 1.66641 38.2131 0.938066C38.3312 0.747311 38.3903 0.556555 38.5674 0.3658C38.9218 0.175044 39.4532 0.0189714 40.2209 0.00163002C40.9886 -0.0157114 41.6973 0.105679 41.9335 0.348458C42.2287 0.608579 42.4649 0.886042 42.524 1.1635C42.8193 2.44677 43.1145 3.73003 43.4098 5.03064C43.7051 6.20986 43.8822 7.38907 44.2956 8.55095C44.6499 9.50472 45.7719 10.4065 47.6026 11.2215C49.2561 11.9672 51.5591 12.4354 54.2756 12.7649C56.0472 12.973 57.7597 13.1984 59.5313 13.3719C60.4762 13.4759 61.5391 13.5106 62.543 13.58C64.4918 13.7187 66.4996 13.8401 68.4483 13.9961C69.3341 14.0655 69.9247 14.2563 69.9837 14.5337C70.1018 14.7939 69.5703 15.054 68.6255 15.158C67.9759 15.2274 67.2673 15.2794 66.5586 15.2794C65.0232 15.2968 63.4288 15.2794 61.8934 15.2794C62.0115 15.2447 62.0115 15.21 62.0115 15.1927Z" fill="#FC4C03"/>
</svg>