<svg width="110" height="65" viewBox="0 0 110 65" fill="none" xmlns="http://www.w3.org/2000/svg">
<g clip-path="url(#clip0_177_1847)">
<path d="M30.9977 23.5083C30.9628 24.5923 31.1039 25.6749 31.4157 26.715C31.7371 27.6059 32.1346 28.4685 32.6037 29.2933C32.7636 29.5402 32.8546 29.8242 32.8677 30.1167C32.8446 30.336 32.7686 30.5468 32.6462 30.7314C32.5237 30.916 32.3584 31.0693 32.1637 31.1783L29.9637 32.695C29.6791 32.8919 29.3433 33.0047 28.9957 33.02C28.7912 33.0128 28.5903 32.9649 28.4051 32.8793C28.2198 32.7937 28.054 32.672 27.9177 32.5217C27.4067 32.0238 26.9631 31.463 26.5977 30.8533C26.2311 30.2467 25.8571 29.5245 25.4757 28.6867C24.1873 30.2704 22.548 31.5429 20.6833 32.4066C18.8187 33.2703 16.7781 33.7025 14.7177 33.67C13.3872 33.7418 12.0555 33.5507 10.8011 33.1079C9.54675 32.6651 8.39501 31.9796 7.41374 31.0917C6.50472 30.181 5.79697 29.0949 5.33504 27.9016C4.87312 26.7084 4.66703 25.4339 4.72975 24.1583C4.67143 22.772 4.92974 21.3904 5.48564 20.1155C6.04154 18.8405 6.88086 17.7047 7.94174 16.7917C10.4891 14.816 13.6802 13.8224 16.9177 13.9967C18.2135 14.0004 19.5075 14.0945 20.7897 14.2783C22.1391 14.4661 23.5397 14.7261 24.9917 15.0583V12.415C25.2054 10.3435 24.5809 8.27254 23.2537 6.65168C21.5558 5.36579 19.4225 4.76882 17.2917 4.98334C15.9647 4.98996 14.643 5.14995 13.3537 5.46001C12.0121 5.77598 10.6959 6.18876 9.41575 6.69501C9.00192 6.8823 8.57559 7.04156 8.13975 7.17168H7.56775C7.05441 7.17168 6.79774 6.79612 6.79774 6.04501V4.33334C6.76628 3.89848 6.85766 3.46354 7.06175 3.07668C7.33748 2.74363 7.69274 2.48308 8.09575 2.31834C9.56813 1.62366 11.1088 1.07916 12.6937 0.693343C14.5551 0.222669 16.4701 -0.0103526 18.3917 9.32813e-06C21.8481 -0.301676 25.2861 0.74912 27.9617 2.92501C29.0495 4.12344 29.8794 5.52656 30.4012 7.04965C30.923 8.57274 31.1259 10.1842 30.9977 11.7867V23.5083ZM16.1477 28.99C17.4379 28.9715 18.7162 28.7446 19.9317 28.3183C21.2717 27.8613 22.4638 27.0611 23.3857 26C23.9537 25.3762 24.3745 24.6363 24.6177 23.8333C24.871 22.8126 24.9893 21.7639 24.9697 20.7133V19.1967C23.8597 18.9347 22.7361 18.7322 21.6037 18.59C20.4655 18.4466 19.3192 18.3742 18.1717 18.3733C16.2452 18.231 14.3272 18.7434 12.7377 19.825C12.1636 20.3238 11.7097 20.9425 11.4091 21.6359C11.1084 22.3293 10.9686 23.08 10.9997 23.8333C10.9477 24.5255 11.0399 25.2208 11.2707 25.8765C11.5015 26.5323 11.866 27.1347 12.3417 27.6467C12.8554 28.1059 13.456 28.4608 14.109 28.6913C14.7621 28.9218 15.4548 29.0233 16.1477 28.99ZM45.5177 32.89C45.0221 32.9346 44.5257 32.8124 44.1097 32.5433C43.7203 32.157 43.4528 31.6679 43.3397 31.135L34.7817 3.27168C34.6157 2.80182 34.505 2.31474 34.4517 1.82001C34.4331 1.69913 34.4436 1.57563 34.4823 1.45947C34.521 1.3433 34.5869 1.23773 34.6747 1.15128C34.7625 1.06482 34.8697 0.999904 34.9877 0.961758C35.1056 0.923611 35.231 0.913307 35.3537 0.931676H38.9397C39.4427 0.882011 39.9477 1.00443 40.3697 1.27834C40.7338 1.67641 40.9843 2.16233 41.0957 2.68668L47.2337 26.52L52.9317 2.68668C53.0197 2.16078 53.2737 1.67557 53.6577 1.30001C54.0987 1.03202 54.6154 0.910501 55.1317 0.953343H58.0797C58.5961 0.910501 59.1128 1.03202 59.5537 1.30001C59.9338 1.68427 60.1803 2.17736 60.2577 2.70834L65.9997 26.845L72.3357 2.70834C72.4525 2.1814 72.7109 1.69502 73.0837 1.30001C73.5058 1.0261 74.0108 0.903677 74.5137 0.953343H77.9017C78.0245 0.934973 78.1499 0.945278 78.2678 0.983424C78.3858 1.02157 78.493 1.08649 78.5808 1.17295C78.6685 1.2594 78.7345 1.36497 78.7732 1.48113C78.8119 1.59729 78.8224 1.7208 78.8037 1.84168C78.822 2.02902 78.822 2.21766 78.8037 2.40501C78.7335 2.70596 78.6453 3.00258 78.5397 3.29334L69.7397 31.1567C69.6267 31.6895 69.3592 32.1787 68.9697 32.565C68.5537 32.8341 68.0574 32.9563 67.5617 32.9117H64.3497C63.8296 32.9654 63.307 32.8348 62.8757 32.5433C62.4984 32.1401 62.253 31.6342 62.1717 31.0917L56.4737 7.88668L50.8417 31.07C50.7605 31.6126 50.5151 32.1184 50.1377 32.5217C49.7065 32.8131 49.1839 32.9437 48.6637 32.89H45.5177ZM92.5098 33.8433C90.6142 33.8464 88.7246 33.6356 86.8778 33.215C85.4089 32.9238 83.9876 32.4353 82.6537 31.7633C82.2526 31.5961 81.911 31.3153 81.6721 30.9565C81.4332 30.5978 81.3078 30.1773 81.3118 29.7483V27.9283C81.3118 27.1772 81.5904 26.8017 82.1478 26.8017C82.3811 26.8051 82.612 26.8491 82.8298 26.9317L83.7538 27.3C85.045 27.8627 86.3951 28.2841 87.7798 28.5567C89.2274 28.8496 90.7019 28.9948 92.1798 28.99C94.0403 29.0986 95.894 28.6854 97.5258 27.7983C98.1212 27.4499 98.6109 26.9504 98.9437 26.3521C99.2765 25.7538 99.4402 25.0785 99.4177 24.3967C99.4303 23.934 99.3492 23.4735 99.1792 23.042C99.0093 22.6105 98.7538 22.2166 98.4278 21.8833C97.3173 20.9668 96.0074 20.3144 94.5998 19.9767L89.2978 18.33C87.0652 17.7191 85.0764 16.4486 83.5998 14.69C82.4204 13.1968 81.7781 11.3601 81.7738 9.46834C81.7431 8.07006 82.0844 6.68819 82.7637 5.46001C83.4212 4.30468 84.3122 3.29443 85.3818 2.49168C86.5031 1.65195 87.7705 1.02053 89.1217 0.628343C90.6161 0.203668 92.1645 -0.00792651 93.7197 9.32813e-06C94.5435 -0.00070525 95.3665 0.0499517 96.1838 0.151676C97.0198 0.252787 97.8118 0.390009 98.5597 0.563343C99.3077 0.736676 100.004 0.924454 100.65 1.12668C101.181 1.29076 101.696 1.50104 102.19 1.75501C102.606 1.97624 102.973 2.27845 103.268 2.64334C103.5 2.99734 103.616 3.41372 103.598 3.83501V5.54668C103.598 6.29779 103.319 6.67334 102.762 6.67334C102.269 6.61909 101.791 6.47198 101.354 6.24001C99.1338 5.29029 96.7338 4.81756 94.3138 4.85334C92.6305 4.76716 90.9538 5.11835 89.4518 5.87168C88.8891 6.19536 88.4286 6.66652 88.1218 7.23268C87.8149 7.79884 87.6737 8.43779 87.7137 9.07834C87.7028 9.55493 87.793 10.0285 87.9786 10.4688C88.1643 10.909 88.4412 11.3063 88.7918 11.635C89.9776 12.5692 91.3491 13.2482 92.8177 13.6283L98.0098 15.1667C100.208 15.7295 102.181 16.9387 103.664 18.6333C104.827 20.1202 105.433 21.9571 105.38 23.8333C105.399 25.2832 105.067 26.7167 104.412 28.015C103.771 29.2553 102.862 30.3424 101.75 31.2C100.537 32.1226 99.1551 32.8067 97.6798 33.215C95.9961 33.6682 94.2548 33.8798 92.5098 33.8433Z" fill="#252F3E"/>
<path fill-rule="evenodd" clip-rule="evenodd" d="M99.4176 51.5876C87.3836 60.341 69.9156 64.9993 54.9996 64.9993C34.875 65.1298 15.4287 57.8417 0.483616 44.5676C-0.638384 43.571 0.351616 42.206 1.71562 42.9643C18.2947 52.3043 37.0657 57.2117 56.1656 57.1993C70.4292 57.1238 84.5373 54.2743 97.6796 48.8143C99.7036 47.9693 101.42 50.136 99.4176 51.5876Z" fill="#FF9900"/>
<path fill-rule="evenodd" clip-rule="evenodd" d="M104.434 45.9545C102.894 44.0045 94.2481 45.0445 90.3761 45.4995C89.2101 45.6295 89.012 44.6328 90.068 43.8962C96.954 39.1295 108.262 40.4945 109.56 42.0978C110.858 43.7012 109.208 54.8595 102.762 60.1895C101.772 61.0128 100.826 60.5795 101.266 59.4962C102.718 55.8995 105.974 47.9045 104.434 45.9545Z" fill="#FF9900"/>
<path d="M30.9977 23.5083C30.9628 24.5923 31.1039 25.6749 31.4157 26.715C31.7371 27.6059 32.1346 28.4685 32.6037 29.2933C32.7636 29.5402 32.8546 29.8242 32.8677 30.1167C32.8446 30.336 32.7686 30.5468 32.6462 30.7314C32.5237 30.916 32.3584 31.0693 32.1637 31.1783L29.9637 32.695C29.6791 32.8919 29.3433 33.0047 28.9957 33.02C28.7912 33.0128 28.5903 32.9649 28.4051 32.8793C28.2198 32.7937 28.054 32.672 27.9177 32.5217C27.4067 32.0238 26.9631 31.463 26.5977 30.8533C26.2311 30.2467 25.8571 29.5245 25.4757 28.6867C24.1873 30.2704 22.548 31.5429 20.6833 32.4066C18.8187 33.2703 16.7781 33.7025 14.7177 33.67C13.3872 33.7418 12.0555 33.5507 10.8011 33.1079C9.54675 32.6651 8.39501 31.9796 7.41374 31.0917C6.50472 30.181 5.79697 29.0949 5.33504 27.9016C4.87312 26.7084 4.66703 25.4339 4.72975 24.1583C4.67143 22.772 4.92974 21.3904 5.48564 20.1155C6.04154 18.8405 6.88086 17.7047 7.94174 16.7917C10.4891 14.816 13.6802 13.8224 16.9177 13.9967C18.2135 14.0004 19.5075 14.0945 20.7897 14.2783C22.1391 14.4661 23.5397 14.7261 24.9917 15.0583V12.415C25.2054 10.3435 24.5809 8.27254 23.2537 6.65168C21.5558 5.36579 19.4225 4.76882 17.2917 4.98334C15.9647 4.98996 14.643 5.14995 13.3537 5.46001C12.0121 5.77598 10.6959 6.18876 9.41575 6.69501C9.00192 6.8823 8.57559 7.04156 8.13975 7.17168H7.56775C7.05441 7.17168 6.79774 6.79612 6.79774 6.04501V4.33334C6.76628 3.89848 6.85766 3.46354 7.06175 3.07668C7.33748 2.74363 7.69274 2.48308 8.09575 2.31834C9.56813 1.62366 11.1088 1.07916 12.6937 0.693343C14.5551 0.222669 16.4701 -0.0103526 18.3917 9.32813e-06C21.8481 -0.301676 25.2861 0.74912 27.9617 2.92501C29.0495 4.12344 29.8794 5.52656 30.4012 7.04965C30.923 8.57274 31.1259 10.1842 30.9977 11.7867V23.5083ZM16.1477 28.99C17.4379 28.9715 18.7162 28.7446 19.9317 28.3183C21.2717 27.8613 22.4638 27.0611 23.3857 26C23.9537 25.3762 24.3745 24.6363 24.6177 23.8333C24.871 22.8126 24.9893 21.7639 24.9697 20.7133V19.1967C23.8597 18.9347 22.7361 18.7322 21.6037 18.59C20.4655 18.4466 19.3192 18.3742 18.1717 18.3733C16.2452 18.231 14.3272 18.7434 12.7377 19.825C12.1636 20.3238 11.7097 20.9425 11.4091 21.6359C11.1084 22.3293 10.9686 23.08 10.9997 23.8333C10.9477 24.5255 11.0399 25.2208 11.2707 25.8765C11.5015 26.5323 11.866 27.1347 12.3417 27.6467C12.8554 28.1059 13.456 28.4608 14.109 28.6913C14.7621 28.9218 15.4548 29.0233 16.1477 28.99ZM45.5177 32.89C45.0221 32.9346 44.5257 32.8124 44.1097 32.5433C43.7203 32.157 43.4528 31.6679 43.3397 31.135L34.7817 3.27168C34.6157 2.80182 34.505 2.31474 34.4517 1.82001C34.4331 1.69913 34.4436 1.57563 34.4823 1.45947C34.521 1.3433 34.5869 1.23773 34.6747 1.15128C34.7625 1.06482 34.8697 0.999904 34.9877 0.961758C35.1056 0.923611 35.231 0.913307 35.3537 0.931676H38.9397C39.4427 0.882011 39.9477 1.00443 40.3697 1.27834C40.7338 1.67641 40.9843 2.16233 41.0957 2.68668L47.2337 26.52L52.9317 2.68668C53.0197 2.16078 53.2737 1.67557 53.6577 1.30001C54.0987 1.03202 54.6154 0.910501 55.1317 0.953343H58.0797C58.5961 0.910501 59.1128 1.03202 59.5537 1.30001C59.9338 1.68427 60.1803 2.17736 60.2577 2.70834L65.9997 26.845L72.3357 2.70834C72.4525 2.1814 72.7109 1.69502 73.0837 1.30001C73.5058 1.0261 74.0108 0.903677 74.5137 0.953343H77.9017C78.0245 0.934973 78.1499 0.945278 78.2678 0.983424C78.3858 1.02157 78.493 1.08649 78.5808 1.17295C78.6685 1.2594 78.7345 1.36497 78.7732 1.48113C78.8119 1.59729 78.8224 1.7208 78.8037 1.84168C78.822 2.02902 78.822 2.21766 78.8037 2.40501C78.7335 2.70596 78.6453 3.00258 78.5397 3.29334L69.7397 31.1567C69.6267 31.6895 69.3592 32.1787 68.9697 32.565C68.5537 32.8341 68.0574 32.9563 67.5617 32.9117H64.3497C63.8296 32.9654 63.307 32.8348 62.8757 32.5433C62.4984 32.1401 62.253 31.6342 62.1717 31.0917L56.4737 7.88668L50.8417 31.07C50.7605 31.6126 50.5151 32.1184 50.1377 32.5217C49.7065 32.8131 49.1839 32.9437 48.6637 32.89H45.5177ZM92.5098 33.8433C90.6142 33.8464 88.7246 33.6356 86.8778 33.215C85.4089 32.9238 83.9876 32.4353 82.6537 31.7633C82.2526 31.5961 81.911 31.3153 81.6721 30.9565C81.4332 30.5978 81.3078 30.1773 81.3118 29.7483V27.9283C81.3118 27.1772 81.5904 26.8017 82.1478 26.8017C82.3811 26.8051 82.612 26.8491 82.8298 26.9317L83.7538 27.3C85.045 27.8627 86.3951 28.2841 87.7798 28.5567C89.2274 28.8496 90.7019 28.9948 92.1798 28.99C94.0403 29.0986 95.894 28.6854 97.5258 27.7983C98.1212 27.4499 98.6109 26.9504 98.9437 26.3521C99.2765 25.7538 99.4402 25.0785 99.4177 24.3967C99.4303 23.934 99.3492 23.4735 99.1792 23.042C99.0093 22.6105 98.7538 22.2166 98.4278 21.8833C97.3173 20.9668 96.0074 20.3144 94.5998 19.9767L89.2978 18.33C87.0652 17.7191 85.0764 16.4486 83.5998 14.69C82.4204 13.1968 81.7781 11.3601 81.7738 9.46834C81.7431 8.07006 82.0844 6.68819 82.7637 5.46001C83.4212 4.30468 84.3122 3.29443 85.3818 2.49168C86.5031 1.65195 87.7705 1.02053 89.1217 0.628343C90.6161 0.203668 92.1645 -0.00792651 93.7197 9.32813e-06C94.5435 -0.00070525 95.3665 0.0499517 96.1838 0.151676C97.0198 0.252787 97.8118 0.390009 98.5597 0.563343C99.3077 0.736676 100.004 0.924454 100.65 1.12668C101.181 1.29076 101.696 1.50104 102.19 1.75501C102.606 1.97624 102.973 2.27845 103.268 2.64334C103.5 2.99734 103.616 3.41372 103.598 3.83501V5.54668C103.598 6.29779 103.319 6.67334 102.762 6.67334C102.269 6.61909 101.791 6.47198 101.354 6.24001C99.1338 5.29029 96.7338 4.81756 94.3138 4.85334C92.6305 4.76716 90.9538 5.11835 89.4518 5.87168C88.8891 6.19536 88.4286 6.66652 88.1218 7.23268C87.8149 7.79884 87.6737 8.43779 87.7137 9.07834C87.7028 9.55493 87.793 10.0285 87.9786 10.4688C88.1643 10.909 88.4412 11.3063 88.7918 11.635C89.9776 12.5692 91.3491 13.2482 92.8177 13.6283L98.0098 15.1667C100.208 15.7295 102.181 16.9387 103.664 18.6333C104.827 20.1202 105.433 21.9571 105.38 23.8333C105.399 25.2832 105.067 26.7167 104.412 28.015C103.771 29.2553 102.862 30.3424 101.75 31.2C100.537 32.1226 99.1551 32.8067 97.6798 33.215C95.9961 33.6682 94.2548 33.8798 92.5098 33.8433Z" fill="#252F3E"/>
<path fill-rule="evenodd" clip-rule="evenodd" d="M99.4176 51.5876C87.3836 60.341 69.9156 64.9993 54.9996 64.9993C34.875 65.1298 15.4287 57.8417 0.483616 44.5676C-0.638384 43.571 0.351616 42.206 1.71562 42.9643C18.2947 52.3043 37.0657 57.2117 56.1656 57.1993C70.4292 57.1238 84.5373 54.2743 97.6796 48.8143C99.7036 47.9693 101.42 50.136 99.4176 51.5876Z" fill="#FF9900"/>
<path fill-rule="evenodd" clip-rule="evenodd" d="M104.434 45.9545C102.894 44.0045 94.2481 45.0445 90.3761 45.4995C89.2101 45.6295 89.012 44.6328 90.068 43.8962C96.954 39.1295 108.262 40.4945 109.56 42.0978C110.858 43.7012 109.208 54.8595 102.762 60.1895C101.772 61.0128 100.826 60.5795 101.266 59.4962C102.718 55.8995 105.974 47.9045 104.434 45.9545Z" fill="#FF9900"/>
</g>
<defs>
<clipPath id="clip0_177_1847">
<rect width="110" height="65" fill="white"/>
</clipPath>
</defs>
</svg>
