<svg width="26" height="20" viewBox="0 0 26 20" fill="none" xmlns="http://www.w3.org/2000/svg">
<g clip-path="url(#clip0_177_1833)">
<path d="M3 3.5C3 2.12109 4.12109 1 5.5 1H20.5C21.8789 1 23 2.12109 23 3.5V13.5H20.5V3.5H5.5V13.5H3V3.5ZM0.5 15.5C0.5 15.0859 0.835938 14.75 1.25 14.75H24.75C25.1641 14.75 25.5 15.0859 25.5 15.5C25.5 17.1562 24.1562 18.5 22.5 18.5H3.5C1.84375 18.5 0.5 17.1562 0.5 15.5ZM11.4766 7.91406L10.2656 9.125L11.4766 10.3359C11.8438 10.7031 11.8438 11.2969 11.4766 11.6602C11.1094 12.0234 10.5156 12.0273 10.1523 11.6602L8.27734 9.78516C7.91016 9.41797 7.91016 8.82422 8.27734 8.46094L10.1523 6.58594C10.5195 6.21875 11.1133 6.21875 11.4766 6.58594C11.8398 6.95312 11.8438 7.54687 11.4766 7.91016V7.91406ZM15.8516 6.58594L17.7266 8.46094C18.0938 8.82812 18.0938 9.42188 17.7266 9.78516L15.8516 11.6602C15.4844 12.0273 14.8906 12.0273 14.5273 11.6602C14.1641 11.293 14.1602 10.6992 14.5273 10.3359L15.7383 9.125L14.5273 7.91406C14.1602 7.54688 14.1602 6.95313 14.5273 6.58984C14.8945 6.22656 15.4883 6.22266 15.8516 6.58984V6.58594Z" fill="#284050"/>
</g>
<defs>
<clipPath id="clip0_177_1833">
<path d="M0.5 0H25.5V20H0.5V0Z" fill="white"/>
</clipPath>
</defs>
</svg>
