<svg width="45" height="45" viewBox="0 0 45 45" fill="none" xmlns="http://www.w3.org/2000/svg">
<g clip-path="url(#clip0_177_1707)">
<path d="M37.1201 18.8621C37.5635 18.8621 37.9915 19.0249 38.3229 19.3196C38.6542 19.6142 38.8659 20.0202 38.9178 20.4606L38.9305 20.6724V29.7241C38.9305 31.582 38.2164 33.3688 36.936 34.7149C35.6555 36.061 33.9067 36.8636 32.0512 36.9564L31.6891 36.9655H8.15463C7.81704 36.9656 7.48614 36.8713 7.19931 36.6932C6.91248 36.5152 6.68115 36.2605 6.53146 35.9579C6.38176 35.6553 6.31966 35.3169 6.35216 34.9808C6.38467 34.6448 6.51049 34.3246 6.71541 34.0563L6.87472 33.8752L12.3058 28.4442C12.6315 28.1195 13.0687 27.931 13.5284 27.917C13.9882 27.9029 14.436 28.0644 14.781 28.3686C15.126 28.6728 15.3423 29.0969 15.3859 29.5548C15.4295 30.0127 15.2972 30.47 15.0158 30.8339L14.8656 31.004L12.5248 33.3448H31.6891C32.6026 33.3451 33.4824 33.0001 34.1522 32.379C34.822 31.7579 35.2322 30.9066 35.3007 29.9957L35.3098 29.7241V20.6724C35.3098 20.1923 35.5005 19.7318 35.84 19.3923C36.1795 19.0528 36.64 18.8621 37.1201 18.8621ZM37.1201 8C37.4577 7.9999 37.7886 8.0942 38.0755 8.27225C38.3623 8.4503 38.5936 8.70501 38.7433 9.00761C38.893 9.3102 38.9551 9.64863 38.9226 9.98466C38.8901 10.3207 38.7643 10.6409 38.5594 10.9092L38.4 11.0903L32.969 16.5213C32.6432 16.846 32.2061 17.0345 31.7463 17.0485C31.2866 17.0625 30.8388 16.9011 30.4938 16.5969C30.1488 16.2927 29.9325 15.8686 29.8889 15.4107C29.8453 14.9528 29.9776 14.4955 30.2589 14.1316L30.4092 13.9615L32.75 11.6207H13.5857C12.6725 11.6209 11.7932 11.966 11.1238 12.5871C10.4543 13.2082 10.0443 14.0593 9.97584 14.9698L9.96498 15.2414V24.2931C9.96447 24.7545 9.78778 25.1983 9.47103 25.5338C9.15427 25.8694 8.72136 26.0713 8.26073 26.0983C7.8001 26.1254 7.34653 25.9755 6.9927 25.6793C6.63886 25.3832 6.41146 24.9631 6.35696 24.5049L6.34429 24.2931V15.2414C6.34429 13.3835 7.05835 11.5967 8.33879 10.2506C9.61922 8.90446 11.3681 8.10194 13.2236 8.00905L13.5857 8H37.1201Z" fill="#FEF7F1"/>
</g>
<defs>
<clipPath id="clip0_177_1707">
<rect width="43.4482" height="43.4482" fill="white" transform="translate(0.913086 0.757812)"/>
</clipPath>
</defs>
</svg>
