<?xml version="1.0" encoding="UTF-8"?> <svg xmlns="http://www.w3.org/2000/svg" id="Layer_1" data-name="Layer 1" version="1.1" viewBox="0 0 159 36"><defs><style> .cls-1 { fill: #fff; stroke-width: 0px; } </style></defs><path class="cls-1" d="M8,27H0v-1.1c.7,0,1.3-.1,1.7-.3.4-.2.9-.7,1.3-1.4.4-.7.9-1.8,1.5-3.2L12.6,1.7h1.6l9.1,20.8c.6,1.2,1.1,2.1,1.6,2.6.5.5,1.3.8,2.3.8v1.1h-10.3v-1.1c.4,0,.8,0,1.2,0,.4,0,.8-.2,1-.4.3-.2.4-.5.4-1s0-.6-.1-1c0-.4-.3-.8-.5-1.4l-1.6-3.8-.3-.8-4.4-11.1h-.1l-4.5,11.1-.3.8-1.9,4.4c-.1.3-.2.6-.3.9,0,.3-.1.6-.1,1,0,.5.2.9.6,1.1.4.2,1.1.2,2,.2v1.1ZM17.8,18.6H7.2l.6-1.5h9.5l.6,1.5Z"></path><path class="cls-1" d="M35,27.3c-1.4,0-2.6-.4-3.6-1.1-1-.8-1.7-1.8-2.2-3.1-.5-1.3-.7-2.8-.7-4.4s.4-3.9,1.2-5.5c.8-1.5,1.9-2.7,3.2-3.5,1.3-.8,2.8-1.2,4.4-1.2s1.2,0,1.8.2,1.2.4,1.7.7h.2v-5c0-.8,0-1.4-.3-1.6-.2-.3-.7-.4-1.4-.4s-.5,0-1,0v-1.1l4.8-1.3h1v22.9c0,1,.1,1.6.4,1.9s.8.4,1.5.4h.8v1l-4.9.9h-.9v-2.6h-.2c-.7.6-1.6,1.3-2.5,1.9-1,.6-2.1.9-3.4.9ZM36.8,24.6c.9,0,1.6-.1,2.3-.4s1.2-.6,1.9-1.1v-10.1c-.2-.8-.5-1.5-1.1-2.1-.6-.6-1.5-.9-2.7-.9s-2.9.6-3.9,1.8c-1,1.2-1.5,3-1.5,5.4s.4,4.5,1.3,5.7c.9,1.2,2.1,1.7,3.7,1.7Z"></path><path class="cls-1" d="M58.1,27.2h-1.8l-5.7-14.4c-.3-.8-.6-1.4-.9-1.8-.3-.4-.5-.7-.9-.8s-.8-.2-1.3-.2v-1.1h8.1v1.1c-.7,0-1.3,0-1.5.2s-.4.4-.4.7,0,.5.1.7c0,.2.2.5.3.8l3.3,8.5.7,2.3h.2l.8-2.3,3.3-8.6c0-.1,0-.3.2-.5,0-.2.1-.5.1-.8,0-.4-.2-.7-.6-.8s-.9-.2-1.6-.2v-1.1h6.7v1.1c-.7,0-1.3.2-1.7.5-.4.3-.8,1-1.2,2l-6,14.7Z"></path><path class="cls-1" d="M76.3,27.4c-2.7,0-4.8-.8-6.3-2.5-1.5-1.7-2.3-4-2.3-7.1s.4-3.5,1.1-4.9c.7-1.4,1.7-2.5,3-3.3,1.3-.8,2.8-1.2,4.5-1.2,2.6,0,4.7.8,6.2,2.4,1.5,1.6,2.3,3.9,2.3,6.7s-.4,3.9-1.1,5.4c-.7,1.5-1.7,2.6-3,3.3-1.3.7-2.7,1.1-4.4,1.1ZM76.4,25.9c1,0,1.9-.2,2.6-.7.7-.5,1.3-1.3,1.6-2.5.4-1.2.6-2.8.6-4.9s-.4-4.2-1.3-5.7c-.9-1.5-2.1-2.2-3.8-2.2s-2.6.6-3.5,1.8c-.9,1.2-1.3,3.1-1.3,5.5s.5,5.2,1.4,6.6c.9,1.4,2.2,2,3.8,2Z"></path><path class="cls-1" d="M101.9,21.3l.7.5c-.5,1-1,2-1.7,2.8-.6.8-1.4,1.5-2.3,2-.9.5-2.1.7-3.4.7s-2.9-.4-4.1-1.1c-1.1-.8-2-1.8-2.6-3.2s-.9-2.9-.9-4.7.3-3.8,1-5.2,1.7-2.6,2.9-3.4c1.3-.8,2.9-1.2,4.7-1.2s3.2.4,4.3,1.2c1,.8,1.5,1.7,1.5,2.9s-.1,1-.4,1.3c-.3.3-.7.4-1.2.4s-1-.1-1.3-.4c-.3-.3-.5-.7-.7-1.1-.2-.4-.4-.9-.6-1.3-.2-.4-.5-.8-.8-1.1-.3-.3-.8-.4-1.5-.4-1.6,0-2.8.6-3.7,1.7-.9,1.1-1.3,2.8-1.3,5s.5,4.2,1.4,5.7c1,1.5,2.4,2.2,4.4,2.2s2.3-.3,3-.8c.8-.5,1.6-1.3,2.5-2.4Z"></path><path class="cls-1" d="M109.5,27.3c-1.5,0-2.6-.4-3.4-1.2-.8-.8-1.2-1.8-1.2-3.1s.2-1.9.7-2.6c.5-.7,1.1-1.3,1.9-1.8.8-.5,1.6-.9,2.5-1.2.9-.3,1.8-.6,2.7-.8.9-.2,1.6-.4,2.3-.6v-1.7c0-1.7-.3-2.8-.9-3.5-.6-.7-1.4-1.1-2.6-1.1s-1.8.2-2.1.7c-.3.5-.5,1.3-.5,2.4s-.1,1-.4,1.3c-.3.3-.7.4-1.2.4s-.7-.1-1.1-.4c-.3-.3-.5-.8-.5-1.4s.3-1.4.8-2c.5-.6,1.3-1.2,2.3-1.6,1-.4,2.2-.6,3.6-.6,2.1,0,3.6.5,4.4,1.5.9,1,1.3,2.4,1.3,4.4v8.7c0,.8,0,1.3.3,1.5.2.2.5.3.9.3s.7,0,1-.3c.3-.2.6-.4.8-.7l.6.6c-.6.9-1.2,1.6-1.8,2-.6.4-1.3.6-2.3.6s-1.5-.3-1.7-.8c-.3-.5-.5-1.2-.6-2.2l-.2-.5v-6.6c-1.1.3-2.2.6-3.3,1-1,.4-1.8.9-2.5,1.5-.6.6-1,1.4-1,2.4s.3,1.7.8,2.3c.5.6,1.2.8,2,.8s1.4-.2,2.1-.5c.7-.3,1.4-.8,2.1-1.4l.3,1.4h-.5c-.6.5-1.2,1-1.7,1.4-.5.4-1.1.7-1.8.9-.6.2-1.3.3-2.2.3Z"></path><path class="cls-1" d="M137.6,21.3l.7.5c-.5,1-1,2-1.7,2.8-.6.8-1.4,1.5-2.3,2-.9.5-2.1.7-3.4.7s-2.9-.4-4.1-1.1c-1.1-.8-2-1.8-2.6-3.2s-.9-2.9-.9-4.7.3-3.8,1-5.2,1.7-2.6,2.9-3.4c1.3-.8,2.9-1.2,4.7-1.2s3.2.4,4.3,1.2c1,.8,1.5,1.7,1.5,2.9s-.1,1-.4,1.3c-.3.3-.7.4-1.2.4s-1-.1-1.3-.4c-.3-.3-.5-.7-.7-1.1-.2-.4-.4-.9-.6-1.3-.2-.4-.5-.8-.8-1.1-.3-.3-.8-.4-1.5-.4-1.6,0-2.8.6-3.7,1.7-.9,1.1-1.3,2.8-1.3,5s.5,4.2,1.4,5.7c1,1.5,2.4,2.2,4.4,2.2s2.3-.3,3-.8c.8-.5,1.6-1.3,2.5-2.4Z"></path><path class="cls-1" d="M142.2,36c-.8,0-1.4-.2-2-.5s-.8-.8-.8-1.5.2-1,.5-1.3.8-.4,1.2-.4,1.3.1,1.8.4.9.4,1.2.4.7-.3,1.1-.8c.4-.5.8-1.2,1.2-2,.4-.8.7-1.5,1-2.2.2-.7.4-1.2.4-1.4s-.1-.7-.4-1.4c-.3-.7-.5-1.2-.7-1.8l-5.6-12.3c-.2-.4-.4-.8-.8-1s-.8-.4-1.5-.4v-1.1h8.2v1.1c-.9,0-1.4,0-1.7.2-.3.2-.4.4-.4.7s0,.5.2.8.2.6.3.9l3.7,8.4.5,1.9h.3l3.7-11.1c0-.1,0-.3.1-.5,0-.2,0-.4,0-.5,0-.4-.2-.6-.6-.8-.4-.1-.9-.2-1.5-.2v-1.1h6.5v1.1c-.8,0-1.3.2-1.7.5-.4.3-.7.9-1,1.6l-6,15.7c-.7,1.9-1.5,3.5-2.2,4.7-.7,1.2-1.5,2.1-2.3,2.6-.8.5-1.8.8-2.9.8Z"></path></svg> 