<svg width="373" height="55" viewBox="0 0 373 55" fill="none" xmlns="http://www.w3.org/2000/svg">
<path d="M98.2546 53.3676H85.789L85.595 46.6802C84.134 49.2832 81.9499 51.3878 79.3175 52.7293C76.4207 54.2379 73.2044 54.9986 69.9515 54.9444C64.8638 54.9444 60.8242 53.517 57.8328 50.6623C54.8413 47.8075 53.3431 43.9838 53.3381 39.1912C53.3381 34.2111 55.141 30.1949 58.7466 27.1425C62.3523 24.0901 67.1154 22.5703 73.0362 22.583C77.542 22.583 81.599 23.3429 85.2071 24.8627C85.14 16.7949 81.0196 12.7622 72.8459 12.7647C67.4375 12.7647 62.2864 14.4036 57.3926 17.6814L56.3333 6.5675C58.9078 4.91769 61.7284 3.70501 64.6847 2.97684C67.9469 2.09797 71.3067 1.651 74.6811 1.64697C82.3425 1.64697 88.1861 3.59872 92.212 7.50221C96.2379 11.4057 98.2496 17.0621 98.2471 24.4714L98.2546 53.3676ZM82.0776 41.8509C83.975 39.7535 85.0218 36.8405 85.2183 33.1117C82.2398 31.7695 79.0119 31.0982 75.7553 31.1435C72.7266 31.1435 70.3916 31.7502 68.7504 32.9636C67.1092 34.1769 66.2886 35.9311 66.2886 38.226C66.2886 40.3918 66.9812 42.065 68.3662 43.2454C69.7513 44.4258 71.6337 45.016 74.0134 45.016C77.4898 45.0109 80.1778 43.9559 82.0776 41.8509Z" fill="white"/>
<path d="M106.364 39.4015C111.203 42.5913 116.826 44.3294 122.589 44.417C128.124 44.417 130.893 42.811 130.896 39.599C130.92 38.9077 130.774 38.2212 130.47 37.6024C130.167 36.9837 129.715 36.4525 129.158 36.0578C127.999 35.2067 125.584 34.2555 121.914 33.2042C115.991 31.5653 111.79 29.5325 109.31 27.1058C106.831 24.6791 105.588 21.3671 105.58 17.1698C105.58 12.3189 107.367 8.51929 110.94 5.77089C114.514 3.02248 119.433 1.64069 125.7 1.62549C128.814 1.63315 131.917 1.99896 134.95 2.71598C138.041 3.43791 140.584 4.38909 142.578 5.56951L140.937 15.9957C136.11 13.4373 131.25 12.1581 126.356 12.1581C121.527 12.1581 119.113 13.6665 119.113 16.6834C119.1 17.3699 119.263 18.0479 119.585 18.6513C119.906 19.2546 120.376 19.7627 120.948 20.1259C122.171 20.9821 124.457 21.8687 127.804 22.7857C133.985 24.6044 138.382 26.7651 140.993 29.2678C143.604 31.7705 144.908 35.1484 144.906 39.4015C144.906 44.189 142.99 47.976 139.158 50.7624C135.326 53.5488 130.063 54.942 123.369 54.942C119.832 54.9426 116.311 54.479 112.891 53.5627C109.45 52.6483 106.698 51.4678 104.637 50.0214L106.364 39.4015Z" fill="white"/>
<path d="M150.016 39.4015C154.853 42.592 160.475 44.3302 166.237 44.417C171.775 44.417 174.544 42.811 174.544 39.599C174.569 38.9076 174.423 38.2208 174.12 37.6019C173.816 36.9831 173.364 36.452 172.806 36.0578C171.645 35.2067 169.23 34.2555 165.562 33.2042C159.639 31.5653 155.439 29.5325 152.962 27.1058C150.486 24.6791 149.242 21.3671 149.232 17.1698C149.232 12.3189 151.019 8.51929 154.592 5.77089C158.166 3.02248 163.082 1.64069 169.341 1.62549C172.457 1.63216 175.563 1.99798 178.599 2.71598C181.692 3.43791 184.236 4.38909 186.23 5.56951L184.589 15.9957C179.76 13.4373 174.898 12.1581 170.005 12.1581C165.178 12.1581 162.764 13.6665 162.761 16.6834C162.749 17.3699 162.911 18.0479 163.233 18.6513C163.555 19.2546 164.024 19.7627 164.596 20.1259C165.82 20.9821 168.106 21.8687 171.456 22.7857C177.633 24.6044 182.025 26.7651 184.634 29.2678C187.242 31.7705 188.545 35.1484 188.543 39.4015C188.543 44.189 186.628 47.976 182.799 50.7624C178.969 53.5488 173.706 54.942 167.01 54.942C163.472 54.9426 159.949 54.479 156.528 53.5627C153.084 52.6483 150.333 51.4678 148.274 50.0214L150.016 39.4015Z" fill="white"/>
<path d="M196.126 14.6123C198.39 10.6333 201.701 7.37858 205.686 5.21583C209.774 2.95378 214.49 1.82275 219.833 1.82275C222.745 1.83245 225.645 2.17917 228.479 2.85625C231.064 3.41184 233.554 4.35694 235.865 5.66039L234.127 17.6596C230.094 15.6658 225.67 14.6266 221.187 14.6199C216.808 14.6199 213.327 15.8333 210.743 18.26C208.16 20.6867 206.877 23.9911 206.894 28.1732C206.894 32.4415 208.198 35.7864 210.807 38.2081C213.415 40.6297 217.036 41.8443 221.669 41.8519C223.827 41.8489 225.98 41.6184 228.092 41.1642C230.43 40.6404 232.711 39.8765 234.899 38.8844L236.443 50.6936C234.033 52.0356 231.448 53.0244 228.767 53.6308C225.869 54.3155 222.905 54.6622 219.93 54.6643C214.46 54.6643 209.68 53.5978 205.592 51.465C201.617 49.4443 198.309 46.2821 196.077 42.3686C193.824 38.4322 192.698 33.8081 192.698 28.4962C192.698 23.2426 193.84 18.6146 196.126 14.6123Z" fill="white"/>
<path d="M266.769 54.9461C261.681 54.9461 257.125 53.7808 253.102 51.4504C249.157 49.2038 245.874 45.9243 243.591 41.9513C241.275 37.9541 240.117 33.3945 240.114 28.2726C240.112 23.1507 241.287 18.5912 243.639 14.5939C245.952 10.6274 249.249 7.35121 253.199 5.09485C257.343 2.7372 262.023 1.53286 266.769 1.60299C271.916 1.60299 276.486 2.76694 280.48 5.09485C284.402 7.3548 287.667 10.6322 289.943 14.5939C292.263 18.5937 293.422 23.1533 293.419 28.2726C293.492 32.9729 292.32 37.6063 290.026 41.6852C287.732 45.764 284.401 49.1374 280.383 51.4504C276.392 53.7808 271.854 54.9461 266.769 54.9461ZM275.844 18.2948C273.529 15.706 270.504 14.4116 266.769 14.4116C263.098 14.4116 260.104 15.706 257.787 18.2948C255.469 20.8836 254.311 24.2146 254.311 28.2878C254.311 32.3534 255.469 35.6806 257.787 38.2695C260.104 40.8583 263.098 42.1539 266.769 42.1565C270.499 42.1565 273.524 40.8608 275.844 38.2695C278.164 35.6781 279.324 32.3509 279.324 28.2878C279.324 24.2222 278.164 20.8912 275.844 18.2948Z" fill="white"/>
<path d="M45.5244 53.3684H32.2979V24.02C32.323 22.7282 32.0949 21.4443 31.6269 20.2434C31.159 19.0425 30.4606 17.9488 29.5726 17.0262C28.6847 16.1036 27.625 15.3706 26.4556 14.8703C25.2862 14.37 24.0306 14.1122 22.7622 14.1122C21.4938 14.1122 20.2382 14.37 19.0688 14.8703C17.8994 15.3706 16.8397 16.1036 15.9518 17.0262C15.0638 17.9488 14.3654 19.0425 13.8975 20.2434C13.4295 21.4443 13.2014 22.7282 13.2265 24.02V53.3684H0V24.02C0 17.8704 2.39815 11.9726 6.6669 7.62416C10.9356 3.2757 16.7253 0.832764 22.7622 0.832764C28.7991 0.832764 34.5888 3.2757 38.8575 7.62416C43.1263 11.9726 45.5244 17.8704 45.5244 24.02V53.3684Z" fill="white"/>
<path d="M343.751 53.3687H330.524V22.4738C330.524 20.3103 329.681 18.2353 328.179 16.7054C326.677 15.1755 324.64 14.316 322.516 14.316C320.392 14.316 318.355 15.1755 316.853 16.7054C315.352 18.2353 314.508 20.3103 314.508 22.4738V53.3763H301.281V22.4738C301.281 16.7369 303.519 11.2349 307.501 7.17819C311.483 3.12154 316.884 0.842529 322.516 0.842529C328.148 0.842529 333.549 3.12154 337.531 7.17819C341.514 11.2349 343.751 16.7369 343.751 22.4738V53.3687Z" fill="white"/>
<path d="M372.998 53.3684H359.772V22.4736C359.795 21.3872 359.605 20.3071 359.212 19.2966C358.82 18.2861 358.234 17.3656 357.488 16.589C356.742 15.8124 355.851 15.1953 354.868 14.7741C353.884 14.3529 352.828 14.1359 351.762 14.1359C350.695 14.1359 349.639 14.3529 348.656 14.7741C347.672 15.1953 346.782 15.8124 346.035 16.589C345.289 17.3656 344.703 18.2861 344.311 19.2966C343.919 20.3071 343.728 21.3872 343.751 22.4736V53.376H330.525V22.4736C330.488 19.6085 331.009 16.7645 332.06 14.1065C333.11 11.4486 334.669 9.02969 336.645 6.99024C338.62 4.95079 340.974 3.33143 343.569 2.22617C346.164 1.1209 348.949 0.551758 351.762 0.551758C354.574 0.551758 357.359 1.1209 359.954 2.22617C362.549 3.33143 364.903 4.95079 366.879 6.99024C368.854 9.02969 370.413 11.4486 371.463 14.1065C372.514 16.7645 373.036 19.6085 372.998 22.4736V53.3684Z" fill="white"/>
</svg>
