<?xml version="1.0" encoding="utf-8"?>
<!-- Generator: Adobe Illustrator 25.0.0, SVG Export Plug-In . SVG Version: 6.00 Build 0)  -->
<svg version="1.1" id="Layer_1" xmlns="http://www.w3.org/2000/svg" xmlns:xlink="http://www.w3.org/1999/xlink" x="0px" y="0px"
	 viewBox="0 0 1920 350.8" style="enable-background:new 0 0 1920 350.8;" xml:space="preserve">
<style type="text/css">
	.st0{fill:#FF595A;}
</style>
<g>
	<path class="st0" d="M272.8,350.8c96.9,0,175.4-78.5,175.4-175.4S369.7,0,272.8,0H77.9v39h194.9c75.3,0,136.4,61.1,136.4,136.4
		s-61.1,136.4-136.4,136.4H116.9V155.9H0v39h77.9v155.9H272.8z M272.8,272.8c53.8,0,97.4-43.6,97.4-97.4s-43.6-97.4-97.4-97.4H0v39
		h272.8c32.3,0,58.5,26.2,58.5,58.5s-26.2,58.5-58.5,58.5h-77.9v-39h77.9v-39H155.9v116.9H272.8z"/>
	<g>
		<path class="st0" d="M589.5,277.1c-13.2,0-22.7-2.8-28.7-8.3c-5.9-5.5-8.9-14.1-8.9-25.8v-86.3h-25.8v-27.2h25.8V89.4h40.7v40.1
			h30.1v27.2h-30.1v73.7c0,6.9,1,11.6,2.9,14.2c1.9,2.6,5.3,3.9,10.3,3.9c6.5,0,12.1-1.6,16.9-4.9v27.5c-4.8,1.9-10.2,3.4-16.3,4.4
			C600.3,276.6,594.6,277.1,589.5,277.1z"/>
		<path class="st0" d="M682.3,278.5c-17.4-0.4-29.9-4.5-37.5-12.5c-7.6-7.9-11.5-17.7-11.5-29.4c0-10.3,2.5-18.4,7.6-24.4
			c5.1-5.9,11.4-10.3,18.9-13c7.5-2.8,17-5.1,28.2-7c13.2-2.3,22.7-4.2,28.7-5.9c5.9-1.6,10.3-3.8,13-6.4c2.8-2.7,4.2-6.3,4.2-10.9
			c0-5.7-2.1-10.1-6.2-13c-4.1-3-9.6-4.4-16.5-4.4c-8.8,0-15.8,2.4-21.1,7.3c-5.3,4.9-8,10.5-8.2,16.8h-41.6
			c1.1-10.9,4.6-20.2,10.3-27.9c5.7-7.7,13.7-13.6,23.8-17.6c10.1-4,22.4-6,36.7-6c20.8,0,36.5,4.3,47.1,12.9
			c10.6,8.6,15.8,21.4,15.6,38.4l0.3,97.4h-37.5l-2.9-15.5h-0.6c-6.7,7.3-14.1,12.7-22.2,16.2C703,277.1,693.4,278.7,682.3,278.5z
			 M698.1,250.7c8.4,0,15.2-1.7,20.5-5c5.3-3.3,9.1-7.8,11.6-13.5c2.5-5.6,3.7-12.3,3.7-19.9v-11.5c-5.2,2.7-12.8,5.4-22.9,8.3
			c-5.5,1.7-9.8,3.1-12.9,4.3c-8,2.7-13.9,5.8-17.8,9.5c-3.8,3.6-5.7,7.7-5.7,12.3c0,4.8,2,8.6,6,11.3
			C684.6,249.4,690.4,250.7,698.1,250.7z"/>
		<path class="st0" d="M797.5,272.8V77.9h40.4v194.9H797.5z"/>
		<path class="st0" d="M932.8,278.5c-16.8,0-30.9-3.3-42.4-10c-11.5-6.7-20.1-15.9-25.8-27.5c-5.7-11.7-8.6-24.9-8.6-39.8
			c0-16.8,3.5-31,10.6-42.6c7.1-11.6,16.4-20.2,28.1-25.9c11.7-5.7,24.4-8.6,38.1-8.6c24.8,0,43.9,7.5,57.3,22.6
			c13.4,15.1,20.1,36.7,20.1,64.8h-112c0,6.3,1.3,12.5,4,18.6c2.7,6.1,6.8,11.1,12.3,14.9c5.5,3.8,12.3,5.7,20.3,5.7
			c8.6,0,15.7-2.3,21.3-6.9c5.6-4.6,8.9-10.2,9.9-16.9h41.8c-1.9,9.7-6.4,18.6-13.6,26.5c-7.2,7.9-16.1,14.1-26.8,18.5
			C956.8,276.3,945.2,278.5,932.8,278.5z M966.6,185.4c-0.2-7.3-1.8-13.5-4.9-18.8c-3.1-5.3-7-9.1-11.8-11.6
			c-4.8-2.5-9.9-3.7-15.5-3.7c-5.5,0-10.8,1.4-15.8,4.2c-5,2.8-9.1,6.7-12.5,11.9c-3.3,5.2-5.4,11.2-6.2,18.1H966.6z"/>
		<path class="st0" d="M1028.2,272.8V129.5h37.5l2.9,15.2h0.6c7.5-7.5,15.2-12.8,23.4-15.9c8.1-3.1,17-4.7,26.5-4.7
			c14.1,0,25.3,4.3,33.4,12.8c8.1,8.5,12.2,21.1,12.2,37.7v98.3h-40.4v-85.1c0-12.2-1.7-21.4-5-27.4c-3.3-6-9.3-9-17.9-9
			c-6.9,0-12.8,1.9-17.6,5.7c-4.9,3.8-8.6,9.6-11.2,17.5c-2.6,7.8-3.9,17.8-3.9,29.8v68.5H1028.2z"/>
		<path class="st0" d="M1239.7,277.1c-13.2,0-22.7-2.8-28.7-8.3c-5.9-5.5-8.9-14.1-8.9-25.8v-86.3h-25.8v-27.2h25.8V89.4h40.7v40.1
			h30.1v27.2h-30.1v73.7c0,6.9,1,11.6,2.9,14.2c1.9,2.6,5.3,3.9,10.3,3.9c6.5,0,12.1-1.6,16.9-4.9v27.5c-4.8,1.9-10.2,3.4-16.3,4.4
			C1250.5,276.6,1244.8,277.1,1239.7,277.1z"/>
		<path class="st0" d="M1348.9,278.3c-22,0-38.3-7.2-49-21.6c-10.7-14.4-16-33.1-16-56c0-16.2,2.9-30.1,8.7-41.6
			c5.8-11.5,13.7-20.2,23.5-26.1c9.8-5.9,20.8-8.9,32.8-8.9c8,0,15.6,1.5,22.8,4.6c7.2,3.1,14.4,8.3,21.6,15.8V77.9h40.7v194.9
			h-37.8l-2.9-15.8h-0.6c-7.1,7.6-13.9,13-20.5,16C1365.6,276.2,1357.9,277.9,1348.9,278.3z M1360.6,250.7
			c10.9,0,19.5-4.1,25.9-12.2c6.4-8.1,9.6-20.6,9.6-37.4c0-17.2-3.3-29.8-9.9-37.8c-6.6-8-14.5-12-23.6-12
			c-9.9,0-18.6,3.8-25.9,11.5c-7.4,7.6-11,20.4-11,38.4c0,14.1,2.7,25.9,8.2,35.4C1339.3,246,1348.2,250.7,1360.6,250.7z"/>
		<path class="st0" d="M1527.7,278.5c-16.8,0-30.9-3.3-42.4-10c-11.5-6.7-20.1-15.9-25.8-27.5c-5.7-11.7-8.6-24.9-8.6-39.8
			c0-16.8,3.5-31,10.6-42.6c7.1-11.6,16.4-20.2,28.1-25.9c11.7-5.7,24.4-8.6,38.1-8.6c24.8,0,43.9,7.5,57.3,22.6
			c13.4,15.1,20.1,36.7,20.1,64.8h-112c0,6.3,1.3,12.5,4,18.6c2.7,6.1,6.8,11.1,12.3,14.9c5.5,3.8,12.3,5.7,20.3,5.7
			c8.6,0,15.7-2.3,21.3-6.9c5.6-4.6,8.9-10.2,9.9-16.9h41.8c-1.9,9.7-6.4,18.6-13.6,26.5c-7.2,7.9-16.1,14.1-26.8,18.5
			C1551.7,276.3,1540.1,278.5,1527.7,278.5z M1561.5,185.4c-0.2-7.3-1.8-13.5-4.9-18.8c-3.1-5.3-7-9.1-11.8-11.6
			c-4.8-2.5-9.9-3.7-15.5-3.7c-5.5,0-10.8,1.4-15.8,4.2c-5,2.8-9.1,6.7-12.5,11.9c-3.3,5.2-5.4,11.2-6.2,18.1H1561.5z"/>
		<path class="st0" d="M1691,278.5c-13.9,0-26.1-2.2-36.5-6.5c-10.4-4.3-18.7-10.4-24.8-18.2c-6.1-7.8-9.4-16.8-9.7-26.9h41.8
			c1,7.8,4.3,13.8,10,17.8s13,6,21.8,6c6.7,0,12.1-1.4,16.3-4.2c4.2-2.8,6.3-6.6,6.3-11.6c0-4.8-3-8.9-8.9-12.3
			c-5.9-3.4-16.2-6.9-30.9-10.3c-20.1-4.8-34.1-10.7-42.1-17.9c-8-7.2-12-15.8-12-25.9c0-7.8,2.5-15.1,7.5-21.9
			c5-6.8,12-12.2,21.1-16.3c9.1-4.1,19.5-6.2,31.4-6.2c23.1,0,40.3,4.8,51.6,14.5c11.3,9.7,17.3,21.9,18.1,36.8h-41.6
			c-0.2-4.8-1.3-9-3.4-12.6c-2.1-3.6-5-6.4-8.6-8.5c-3.6-2-7.7-3-12.3-3c-6.3,0-11.2,1.4-14.6,4.2c-3.4,2.8-5.2,6.2-5.2,10.2
			c0,5.7,2.7,10.3,8,13.8c5.3,3.4,14.9,6.7,28.7,9.7c18.9,4.4,32.9,9.9,41.8,16.6c9,6.7,13.5,15.7,13.5,26.9
			c0,9.4-2.6,17.5-7.9,24.4c-5.3,6.9-12.9,12.2-23.1,15.9C1717,276.7,1705,278.5,1691,278.5z"/>
		<path class="st0" d="M1776.4,272.8V77.9h40.4v106.6h0.6l47.3-55h49.6l-53.9,54.7l59.6,88.6h-49.3l-37.5-60.8l-16.3,16.3v44.4
			H1776.4z"/>
	</g>
</g>
</svg>
