<svg width="168" height="160" viewBox="0 0 168 160" fill="none" xmlns="http://www.w3.org/2000/svg">
<path d="M137.409 53.0198C140.634 41.0359 148.758 33.2938 158.377 26.8414C163.746 23.2174 169.467 20.259 175.816 18.6621C178.495 17.9687 181.158 17.4602 183.911 17.6312C185.581 17.7802 187.204 18.0369 188.794 18.6637C191.759 19.8235 193.248 22.4553 193.079 25.648C192.977 27.6531 192.211 29.5616 191.275 31.2685C189.591 34.2514 187.383 36.8146 184.898 39.1292C178.374 45.261 170.636 49.4569 162.208 52.584C156.568 54.6172 150.745 56.1864 144.862 57.1536C144.444 57.2282 144.134 57.3497 143.639 57.4547C143.411 60.0454 144.096 62.4564 144.967 64.8839C148.449 75.0416 153.776 84.2077 160.762 92.3655C163.071 95.0332 165.503 97.5628 168.138 99.924C173.114 104.583 178.993 107.905 185.481 109.826C186.609 110.188 187.736 110.55 188.894 110.989C189.002 111.036 189.064 111.19 189.217 111.577C188.613 111.635 188.195 111.71 187.747 111.707C180.123 111.213 173.188 108.841 166.834 104.545C158.969 99.1432 152.657 92.2392 147.557 84.3242C143.378 77.8343 139.974 71.0405 138.012 63.592C137.555 61.9847 137.3 60.2088 136.937 58.3861C136.488 58.3833 135.962 58.411 135.436 58.4387C127.559 59.116 119.762 59.3155 111.924 58.2805C105.601 57.4553 99.482 56.0141 93.6155 53.402C90.4508 51.9633 87.4268 50.2016 84.8227 47.9177C78.1974 42.0301 76.6979 34.8467 80.5385 26.9089C80.726 26.478 80.9136 26.0472 81.1949 25.4009C80.2202 25.4258 79.5086 25.4369 78.6889 25.4011C72.315 25.5784 65.9268 25.4934 59.5263 24.6985C54.0536 23.9864 48.6603 22.7966 43.5503 20.513C41.0646 19.4333 38.8277 18.0774 36.7783 16.2907C31.9249 11.9413 30.2626 6.60833 31.8686 0.261511C32.1213 -0.909521 32.5901 -1.98667 32.9672 -3.29581C31.9926 -3.27087 31.281 -3.25976 30.4919 -3.21827C23.4675 -2.87519 16.3371 -3.02647 9.34936 -3.94831C7.57132 -4.14425 5.80959 -4.52523 4.09474 -5.01393C3.21386 -5.20441 2.44306 -5.79538 1.62537 -6.27863C0.993223 -6.74532 0.71788 -7.44128 1.12355 -8.22567C1.52923 -9.01007 2.24083 -9.02117 3.04423 -8.8003C4.72849 -8.38893 6.45964 -8.08528 8.16019 -7.85896C16.7404 -6.75774 25.341 -6.73639 33.8823 -7.31711C34.6714 -7.35861 35.4299 -7.47743 35.913 -8.29221C41.0525 -16.1142 48.0701 -21.9035 55.9503 -26.87C66.8867 -33.839 78.7123 -39.013 91.2722 -42.331C95.5622 -43.4775 99.8195 -44.254 104.289 -44.0417C105.928 -43.97 107.629 -43.7437 109.158 -43.2716C112.943 -42.076 114.352 -38.9663 112.974 -35.2101C112.098 -32.9012 110.697 -31.012 108.972 -29.2636C105.708 -25.7503 101.798 -22.966 97.6568 -20.538C89.7623 -15.8339 81.3171 -12.5218 72.4579 -10.0298C61.678 -6.96325 50.6554 -4.96273 39.5593 -3.82666C38.2747 -3.68017 37.4224 -3.34591 37.0454 -2.03678C36.5276 -0.404488 35.8244 1.21123 35.4922 2.86007C34.7953 6.52784 35.8641 9.68175 38.513 12.3053C40.2994 14.1058 42.3976 15.3374 44.6672 16.3232C48.5109 18.1208 52.5747 19.1175 56.7323 19.8987C65.5736 21.4335 74.4984 21.5957 83.4414 21.1254C84.2305 21.0839 84.8034 20.9485 85.3478 20.2884C91.0216 14.0434 98.0027 9.51893 105.445 5.70697C113.476 1.57458 121.874 -1.62987 130.715 -3.48935C134.106 -4.19391 137.558 -4.74381 141.022 -4.58392C142.476 -4.52881 143.991 -4.31905 145.335 -3.86346C148.64 -2.74797 149.725 0.220899 147.933 3.15687C147.061 4.571 145.941 5.81393 144.683 6.93258C141.158 10.0123 137.003 12.178 132.787 14.1889C119.224 20.4015 104.747 23.3993 89.9687 24.729C89.4426 24.7567 88.9471 24.8617 88.3905 24.812C87.4933 24.8066 86.8572 25.2347 86.4209 25.9418C85.4546 27.5713 84.3028 29.1843 83.6607 30.9547C81.9871 35.0948 82.7277 39.0028 85.8069 42.2614C87.3772 43.9681 89.3817 45.4151 91.4025 46.6771C94.9506 48.8586 98.8738 50.1785 102.86 51.2055C111.235 53.3701 119.833 53.8388 128.466 53.4901C131.235 53.476 134.253 53.1858 137.409 53.0198ZM40.6762 -8.01644C41.2328 -7.96678 41.4184 -7.95023 41.6814 -7.96406C42.13 -7.96133 42.6254 -8.06632 43.074 -8.0636C54.3557 -9.18312 65.5027 -11.3217 76.2846 -14.8357C84.1385 -17.38 91.7477 -20.543 98.6676 -25.2221C101.771 -27.3324 104.766 -29.4897 107.192 -32.4064C108.203 -33.6962 109.076 -35.1104 109.732 -36.6184C110.341 -38.0187 109.805 -39.1482 108.229 -39.5127C106.838 -39.8605 105.323 -40.0703 103.9 -40.0481C98.9657 -40.078 94.2271 -38.9342 89.5029 -37.528C79.2022 -34.3814 69.4991 -29.9506 60.2549 -24.3599C53.6938 -20.3574 47.5019 -15.8744 42.3561 -10.1045C41.9667 -9.50518 41.3917 -8.92238 40.6762 -8.01644ZM144.546 51.8288C145.567 51.6962 146.248 51.6077 146.821 51.4724C149.113 50.9308 151.358 50.497 153.619 49.8782C161.781 47.6597 169.437 44.3891 176.342 39.4476C179.896 36.8926 183.064 34.0421 185.586 30.4625C186.489 29.1257 187.176 27.6951 187.755 26.2174C188.414 24.262 187.706 23.3783 185.681 23.0111C184.909 22.8676 184.089 22.8318 183.33 22.9506C181.395 23.2628 179.352 23.5281 177.432 24.1028C170.477 26.2051 164.258 29.7159 158.484 34.1243C153.548 37.9361 149.306 42.3692 146.311 47.9207C145.687 49.0586 145.202 50.3208 144.546 51.8288ZM144.277 0.928399C144.216 0.773742 144.124 0.54176 143.985 0.417491C143.135 0.304326 142.301 0.00611753 141.481 -0.0297136C139.795 0.00633554 138.001 -0.00455666 136.298 0.216538C128.126 1.27779 120.411 3.94639 112.893 7.34132C106.043 10.3855 99.4366 14.0482 93.4914 18.7024C93.0102 19.0698 92.5596 19.5145 92.1091 19.9591C92.9125 20.18 93.6547 20.2462 94.3051 20.0805C99.2435 19.2156 104.196 18.6131 109.043 17.5162C117.884 15.6567 126.435 12.8389 134.327 8.58228C136.994 7.17904 139.478 5.31184 141.883 3.47501C142.907 2.89494 143.561 1.83434 144.277 0.928399Z" fill="black"/>
</svg>
