<svg width="103" height="103" viewBox="0 0 103 103" fill="none" xmlns="http://www.w3.org/2000/svg">
<path d="M88.8068 53.9117C121.649 91.3213 91.3213 121.649 53.9117 88.8068C16.5021 121.649 -13.8258 91.3213 19.0166 53.9117C-13.8258 16.5021 16.5021 -13.8258 53.9117 19.0166C91.3213 -13.8258 121.649 16.5021 88.8068 53.9117Z" fill="#231F20"/>
<mask id="mask0_177_959" style="mask-type:alpha" maskUnits="userSpaceOnUse" x="0" y="0" width="98" height="98">
<path d="M83.8068 48.9117C116.649 86.3213 86.3213 116.649 48.9117 83.8068C11.5021 116.649 -18.8258 86.3213 14.0166 48.9117C-18.8258 11.5021 11.5021 -18.8258 48.9117 14.0166C86.3213 -18.8258 116.649 11.5021 83.8068 48.9117Z" fill="#231F20"/>
</mask>
<g mask="url(#mask0_177_959)">
<rect x="-51" y="-6" width="188" height="125" fill="#FE7743"/>
</g>
</svg>
