<svg width="126" height="49" viewBox="0 0 126 49" fill="none" xmlns="http://www.w3.org/2000/svg">
<g style="mix-blend-mode:luminosity" clip-path="url(#clip0_177_1156)">
<path d="M17.5022 38.7128C15.6181 39.006 13.7009 39.0939 11.7176 39.3281L5.66825 23.6251V40.002C3.78415 40.1777 2.0653 40.4121 0.280273 40.6465V10.6465H5.30486L12.1803 27.6682V10.6465H17.5022V38.7128ZM27.9148 21.6328C29.9644 21.6328 33.1046 21.5449 34.9887 21.5449V26.2323C32.6417 26.2323 29.8982 26.2323 27.9148 26.3202V33.293C31.0221 33.1173 34.1293 32.8827 37.2695 32.7948V37.3062L22.6258 38.3318V10.6465H37.2695V15.334H27.9148V21.6328ZM56.9375 15.3341H51.4504V36.8966C49.6653 36.8966 47.8803 36.8966 46.1617 36.955V15.3341H40.6745V10.6465H56.9378L56.9375 15.3341ZM65.5319 21.3106H72.7712V25.998H65.5319V36.6329H60.3419V10.6465H75.1182V15.334H65.5319V21.3106ZM83.7126 32.5312C86.7207 32.5897 89.7616 32.7951 92.7037 32.9413V37.5703C87.9769 37.3064 83.2499 37.0431 78.4238 36.955V10.6465H83.7126V32.5312ZM97.1662 37.8926C98.852 37.9806 100.637 38.0685 102.356 38.244V10.6465H97.1662V37.8926ZM125.528 10.6465L118.818 24.9141L125.528 40.6465C123.545 40.4121 121.561 40.0898 119.578 39.7968L115.777 31.1251L111.909 39.0939C109.992 38.8007 108.141 38.7128 106.224 38.4784L113.033 24.7382L106.885 10.6465H112.57L116.041 18.5274L119.743 10.6465H125.528V10.6465Z" fill="#D81F26"/>
</g>
<defs>
<clipPath id="clip0_177_1156">
<rect width="125.241" height="48" fill="white" transform="translate(0.280273 0.646484)"/>
</clipPath>
</defs>
</svg>
