<svg width="125" height="49" viewBox="0 0 125 49" fill="none" xmlns="http://www.w3.org/2000/svg">
<g style="mix-blend-mode:luminosity">
<path fill-rule="evenodd" clip-rule="evenodd" d="M76.6508 38.4533C69.4708 43.1438 59.0639 45.6463 50.1036 45.6463C37.54 45.6463 26.2295 41.5279 17.6726 34.6781C17.0003 34.1395 17.6027 33.4054 18.4094 33.8249C27.644 38.5868 39.062 41.4516 50.8566 41.4516C58.8111 41.4516 67.5615 39.993 75.6074 36.9661C76.8229 36.5085 77.8394 37.6716 76.6508 38.4533Z" fill="#FF9900"/>
<path fill-rule="evenodd" clip-rule="evenodd" d="M79.6359 35.4265C78.7215 34.3874 73.5692 34.9355 71.2565 35.1786C70.552 35.2549 70.4444 34.7115 71.079 34.3206C75.1827 31.7609 81.9162 32.4997 82.7015 33.3578C83.4867 34.2205 82.4971 40.2028 78.6409 43.058C78.0493 43.4966 77.4846 43.263 77.7481 42.6815C78.614 40.7652 80.5555 36.4704 79.6359 35.4265Z" fill="#FF9900"/>
<path fill-rule="evenodd" clip-rule="evenodd" d="M71.4182 16.2501V13.7619C71.4182 13.3853 71.7409 13.1327 72.1282 13.1327H84.6972C85.1006 13.1327 85.4233 13.3901 85.4233 13.7619V15.8926C85.4179 16.2501 85.0791 16.7173 84.4767 17.4561L77.9636 25.6978C80.3838 25.6453 82.9385 25.9647 85.1329 27.061C85.6276 27.3089 85.7621 27.6712 85.7998 28.0287V30.6837C85.7998 31.046 85.348 31.4702 84.8747 31.251C81.0077 29.4539 75.8715 29.2585 71.5957 31.27C71.1601 31.4798 70.7029 31.0603 70.7029 30.698V28.1764C70.7029 27.7713 70.7083 27.0801 71.1655 26.4652L78.7112 16.8746H72.1443C71.7409 16.8746 71.4182 16.6219 71.4182 16.2501Z" fill="black"/>
<path fill-rule="evenodd" clip-rule="evenodd" d="M25.5684 31.7753H21.7444C21.3787 31.7515 21.0883 31.5084 21.0614 31.1986V13.8048C21.0614 13.4569 21.3895 13.1804 21.7982 13.1804H25.364C25.7351 13.1947 26.0309 13.4473 26.0578 13.7619V16.0357H26.1277C27.0582 13.8382 28.8061 12.8134 31.1618 12.8134C33.5551 12.8134 35.0503 13.8382 36.1259 16.0357C37.051 13.8382 39.1539 12.8134 41.4074 12.8134C43.0101 12.8134 44.7635 13.3997 45.8337 14.7153C47.0438 16.1787 46.7965 18.3046 46.7965 20.1684L46.7911 31.1461C46.7911 31.4941 46.463 31.7753 46.0543 31.7753H42.2357C41.8538 31.7515 41.5473 31.4798 41.5473 31.1461V21.9273C41.5473 21.1932 41.6225 19.3628 41.4397 18.6669C41.1546 17.499 40.2995 17.1701 39.1916 17.1701C38.2665 17.1701 37.2984 17.7183 36.9058 18.5954C36.5132 19.4725 36.5508 20.9406 36.5508 21.9273V31.1461C36.5508 31.4941 36.2228 31.7753 35.814 31.7753H31.9954C31.6082 31.7515 31.307 31.4798 31.307 31.1461L31.3016 21.9273C31.3016 19.9873 31.662 17.132 28.9459 17.132C26.1976 17.132 26.3052 19.9158 26.3052 21.9273V31.1461C26.3052 31.4941 25.9771 31.7753 25.5684 31.7753Z" fill="black"/>
<path fill-rule="evenodd" clip-rule="evenodd" d="M96.2442 12.8134C101.918 12.8134 104.989 17.132 104.989 22.6233C104.989 27.9286 101.596 32.1376 96.2442 32.1376C90.6723 32.1376 87.639 27.819 87.639 22.4374C87.639 17.0224 90.71 12.8134 96.2442 12.8134ZM96.2765 16.3646C93.4583 16.3646 93.2808 19.768 93.2808 21.8892C93.2808 24.0151 93.2431 28.553 96.2442 28.553C99.2077 28.553 99.3475 24.8922 99.3475 22.6614C99.3475 21.1932 99.2776 19.4391 98.7774 18.0472C98.3471 16.8365 97.492 16.3646 96.2765 16.3646Z" fill="black"/>
<path fill-rule="evenodd" clip-rule="evenodd" d="M112.347 31.7753H108.539C108.157 31.7515 107.851 31.4798 107.851 31.1461L107.845 13.7476C107.878 13.4283 108.195 13.1804 108.582 13.1804H112.126C112.46 13.1947 112.734 13.3949 112.809 13.6666V16.3264H112.879C113.95 13.9478 115.45 12.8134 118.091 12.8134C119.807 12.8134 121.479 13.3615 122.555 14.863C123.555 16.2549 123.555 18.5954 123.555 20.278V31.2272C123.512 31.5322 123.195 31.7753 122.818 31.7753H118.984C118.634 31.7515 118.344 31.5227 118.306 31.2272V21.7795C118.306 19.8776 118.553 17.0939 115.913 17.0939C114.982 17.0939 114.127 17.6468 113.702 18.4857C113.164 19.5487 113.095 20.6069 113.095 21.7795V31.1461C113.089 31.4941 112.756 31.7753 112.347 31.7753Z" fill="black"/>
<path fill-rule="evenodd" clip-rule="evenodd" d="M61.3985 23.4669C61.3985 24.7873 61.4362 25.8884 60.6832 27.061C60.0755 28.0144 59.1074 28.6007 58.0371 28.6007C56.5688 28.6007 55.7083 27.6092 55.7083 26.1458C55.7083 23.2572 58.6287 22.7329 61.3985 22.7329V23.4669ZM65.2548 31.7277C65.002 31.9279 64.6363 31.9422 64.3512 31.8087C63.0819 30.8744 62.8507 30.4406 62.1569 29.5493C60.0593 31.4464 58.5696 32.0137 55.8535 32.0137C52.6319 32.0137 50.131 30.2547 50.131 26.7321C50.131 23.9817 51.8091 22.1084 54.2078 21.1932C56.2838 20.3829 59.1827 20.2399 61.3985 20.0158V19.5773C61.3985 18.7717 61.4685 17.8184 60.9306 17.1224C60.4681 16.498 59.5753 16.2406 58.7847 16.2406C57.3272 16.2406 56.031 16.9032 55.7137 18.276C55.6492 18.581 55.3964 18.8814 55.0468 18.8957L51.3412 18.5429C51.0292 18.4809 50.6796 18.2569 50.7711 17.8327C51.6208 13.8477 55.6868 12.6465 59.3225 12.6465C61.1834 12.6465 63.6144 13.085 65.0827 14.3339C66.9435 15.8736 66.7661 17.928 66.7661 20.1636V25.4451C66.7661 27.0324 67.5083 27.7284 68.2074 28.5864C68.4495 28.8915 68.5032 29.2585 68.1913 29.4873C67.4114 30.0641 66.0238 31.1366 65.2601 31.7372L65.2548 31.7277Z" fill="black"/>
<path fill-rule="evenodd" clip-rule="evenodd" d="M11.2675 23.4669C11.2675 24.7873 11.3051 25.8884 10.5522 27.061C9.94443 28.0144 8.98172 28.6007 7.90606 28.6007C6.43779 28.6007 5.58265 27.6092 5.58265 26.1458C5.58265 23.2572 8.50305 22.7329 11.2675 22.7329V23.4669ZM15.1237 31.7276C14.8709 31.9278 14.5052 31.9421 14.2202 31.8087C12.9509 30.8744 12.725 30.4406 12.0258 29.5493C9.92829 31.4464 8.44389 32.0136 5.72248 32.0136C2.50627 32.0136 0 30.2547 0 26.7321C0 23.9817 1.6834 22.1084 4.07673 21.1932C6.15275 20.3829 9.05164 20.2399 11.2675 20.0158V19.5773C11.2675 18.7717 11.3374 17.8184 10.805 17.1224C10.337 16.498 9.44425 16.2406 8.65902 16.2406C7.20151 16.2406 5.89997 16.9032 5.58265 18.276C5.51811 18.581 5.26533 18.8813 4.92112 18.8956L1.21011 18.5429C0.898171 18.4809 0.553961 18.2569 0.640014 17.8327C1.49516 13.8477 5.55576 12.6465 9.19147 12.6465C11.0524 12.6465 13.4833 13.085 14.9516 14.3339C16.8125 15.8735 16.635 17.928 16.635 20.1636V25.4451C16.635 27.0324 17.3772 27.7284 18.0764 28.5864C18.3238 28.8914 18.3776 29.2585 18.0656 29.4873C17.2858 30.0641 15.8982 31.1366 15.1345 31.7372L15.1237 31.7276Z" fill="black"/>
</g>
</svg>
