<svg width="127" height="49" viewBox="0 0 127 49" fill="none" xmlns="http://www.w3.org/2000/svg">
<g style="mix-blend-mode:luminosity" clip-path="url(#clip0_177_1153)">
<path fill-rule="evenodd" clip-rule="evenodd" d="M125.591 31.2098C120.335 39.1071 112.012 36.8156 109.512 35.0214C108.448 35.6612 106.583 37.0634 104.095 36.9015C98.7977 36.5569 96.9006 29.8471 96.9006 29.8471C96.9387 29.874 95.3226 30.3414 94.4492 30.3331C94.4379 32.3007 92.5188 37.0011 87.3395 36.941C81.5275 36.8738 80.346 29.1996 80.346 29.1996C80.346 29.1996 79.7676 29.9114 77.5685 30.6204C77.6792 29.1087 77.5983 36.7109 70.6324 36.8226C65.1254 36.9111 63.6389 29.0813 63.6389 29.0813C63.6389 29.0813 62.6835 29.9608 60.8321 30.2659C60.9498 28.7295 60.7585 36.8484 53.7918 36.8226C49.0838 36.8053 47.4749 31.9995 47.6 31.3324C47.7597 30.4824 46.0089 36.9421 41.4358 36.8415C39.5486 36.7924 38.1416 35.5814 37.2588 33.9669C36.0769 35.1654 34.361 36.8415 32.4361 36.8415C28.9808 36.8415 27.4575 34.2801 27.7155 26.9644C27.7375 26.0967 27.6668 25.7554 26.6936 25.6256C26.1095 25.5393 25.5113 25.3757 24.8783 25.2895C24.6754 25.8895 22.9547 36.6463 17.0378 36.8505C15.0528 36.919 13.9674 35.395 13.0761 34.2639C11.7097 35.8659 9.90598 36.9015 7.33645 36.9015C2.98386 36.9015 0.0183105 33.7829 0.0183105 29.936C0.0183105 26.089 2.98386 22.9707 7.33645 22.9707C8.10603 22.9707 8.32207 23.0685 9.02513 23.2503C7.57926 11.5829 10.9938 9.75951 13.9808 9.75951C16.8485 9.75951 21.7477 15.6585 14.8541 30.6215C16.3846 35.0846 19.6841 34.8322 21.2696 25.6447C21.5923 23.7772 20.7294 21.257 22.0715 20.9053C24.5248 20.2625 24.7851 22.1911 25.9354 22.5124C27.1517 22.8521 27.8616 22.8189 29.0293 23.035C31.0245 23.3804 31.8031 24.3303 31.56 26.4461C31.2681 29.1232 30.7574 33.0197 32.3145 33.4946C33.4373 33.8396 35.4873 31.7758 35.847 30.6466C36.2066 29.5174 36.2818 29.131 36.3137 28.3027C36.3624 26.5326 36.4234 25.2351 36.764 23.8964C36.9098 23.3784 37.0759 23.0353 37.7372 23.0119C38.2813 22.9996 39.2764 22.8544 39.7144 23.1565C40.2982 23.5453 40.2252 23.9398 40.1582 24.9781C39.4792 39.7818 44.7052 32.3917 46.2634 26.4744C45.7085 19.7834 46.0895 9.88204 50.8203 9.71597C53.2808 9.62961 54.3685 11.3765 54.4881 12.6805C54.8265 16.3632 52.9309 22.4637 50.4379 26.5662C49.0131 34.9372 56.6675 36.5923 57.8916 29.9107C55.8889 29.0667 53.7246 25.6509 55.4858 23.9862C56.4741 23.052 60.5879 24.3941 60.6552 27.3213C62.6731 26.843 62.9425 25.8332 62.9705 26.0005C62.4158 19.3095 62.9303 9.88212 67.6615 9.71606C70.1215 9.6297 71.2091 11.3766 71.3287 12.6806C71.6672 16.3633 69.7715 22.4638 67.2789 26.5664C65.8539 34.9372 73.5085 36.5925 74.7323 29.9108C73.2495 29.6572 70.1196 26.024 71.9255 23.9863C72.8906 22.8974 76.9893 25.1619 77.4482 27.4182C79.3867 26.932 79.6499 25.9543 79.6777 26.1189C79.1229 19.428 79.6374 10.0007 84.3685 9.83464C86.8286 9.74828 87.9162 11.4952 88.0358 12.7991C88.3742 16.4819 86.4786 22.5825 83.9856 26.685C82.561 35.056 90.2154 36.7109 91.4395 30.0292C89.4019 29.7285 86.5061 25.8923 88.8368 23.9298C89.7679 23.1456 93.326 25.1811 94.1589 27.5033C95.3161 27.4638 96.0365 27.1101 96.1909 27.0744C94.3434 19.2195 95.7187 9.79485 100.808 9.71617C103.559 9.67369 106.248 11.0342 105.068 18.5071C103.941 25.6371 99.8909 28.6292 99.9004 28.675C100.136 29.5292 102.214 36.6777 107.448 32.9059C107.177 32.3622 106.906 31.8068 106.754 31.1339C105.887 27.2142 107.591 22.7869 112.222 22.0713C114.875 21.6614 117.374 22.8063 117.77 25.3875C118.42 29.611 114.117 32.6697 112.48 33.3333C111.748 32.9643 119.124 37.1572 123.502 28.7545C123.756 28.2747 124.061 28.3154 124.458 28.5626C124.738 28.7373 126.333 30.0764 125.591 31.2098ZM10.5026 28.8982C10.2798 28.308 9.82271 27.0075 9.66107 26.444C8.77083 25.7579 8.13541 25.6465 6.99271 25.6465C4.45328 25.6465 2.95861 27.7274 2.95861 29.9712C2.95861 32.2149 4.58694 34.2961 7.12639 34.2961C9.3271 34.2961 11.002 32.97 11.5131 31.0926C11.1554 30.3608 10.8006 29.6882 10.5026 28.8982ZM13.9186 12.8479C12.1343 12.8479 11.529 16.6205 11.6464 19.8388C11.7503 22.6843 12.6474 25.1893 13.1128 26.3117C13.231 26.4524 13.209 26.3609 13.3145 26.51C16.4127 20.4937 15.1277 12.8479 13.9186 12.8479ZM51.0752 12.9664C48.769 12.732 48.7839 21.2466 49.0702 23.1565C50.268 21.4583 52.3486 13.4237 51.0752 12.9664ZM67.9158 12.9664C65.6096 12.732 65.6245 21.2466 65.911 23.1565C67.1086 21.4583 69.1894 13.4237 67.9158 12.9664ZM84.6231 13.0849C82.3167 12.8505 82.3316 21.3651 82.618 23.2752C83.8157 21.5768 85.8965 13.5421 84.6231 13.0849ZM101.063 12.468C97.4696 13.1075 98.3062 23.7254 98.852 25.5877C103.084 20.4355 103.172 12.2745 101.063 12.468ZM114.529 25.7368C114.346 25.0598 113.433 24.698 112.802 24.7871C110.998 25.0055 109.248 26.997 109.926 30.0289C110.076 30.7041 110.454 31.3257 110.448 31.305C114.485 28.9042 114.828 27.0124 114.529 25.7368ZM38.4445 20.6683C37.9288 20.6684 37.4248 20.5329 36.996 20.2791C36.5672 20.0252 36.2329 19.6644 36.0355 19.2422C35.8381 18.82 35.7865 18.3554 35.8871 17.9072C35.9875 17.4589 36.2359 17.0472 36.6005 16.724C36.965 16.4008 37.4296 16.1807 37.9353 16.0916C38.441 16.0024 38.9652 16.0481 39.4417 16.223C39.9181 16.3979 40.3252 16.6941 40.6116 17.0741C40.8981 17.4541 41.051 17.9009 41.051 18.3579C41.051 18.6612 40.9837 18.9617 40.8526 19.242C40.7217 19.5223 40.5297 19.777 40.2876 19.9915C40.0455 20.2061 39.7582 20.3762 39.442 20.4924C39.1258 20.6085 38.7869 20.6683 38.4445 20.6683Z" fill="#0D0C22"/>
</g>
<defs>
<clipPath id="clip0_177_1153">
<rect width="126.369" height="48" fill="white" transform="translate(0.0183105 0.646484)"/>
</clipPath>
</defs>
</svg>
