<svg width="147" height="49" viewBox="0 0 147 49" fill="none" xmlns="http://www.w3.org/2000/svg">
<g style="mix-blend-mode:luminosity" clip-path="url(#clip0_177_1155)">
<path d="M51.525 35.4214V20.8664H51.8176L63.7715 35.4214H67.5333V14.0471H63.3536V28.5655H63.061L51.1071 14.0471H47.3453V35.4214H51.525ZM79.3618 35.7514C84.879 35.7514 88.2646 32.5984 88.2646 27.319C88.2646 22.0762 84.879 18.8866 79.3618 18.8866C73.8864 18.8866 70.4591 22.0762 70.4591 27.319C70.5009 32.5984 73.8446 35.7514 79.3618 35.7514ZM79.3618 32.6717C76.436 32.6717 74.7642 30.7286 74.7642 27.319C74.7642 23.946 76.436 21.9662 79.3618 21.9662C82.2876 21.9662 83.9595 23.946 83.9595 27.319C83.9595 30.7286 82.2876 32.6717 79.3618 32.6717ZM92.0681 15.257V19.3265H89.1423V22.2595H92.0681V31.0952C92.0681 34.2482 93.74 35.4947 98.0033 35.4947C98.7974 35.4947 99.5916 35.4214 100.219 35.3114V32.4517C99.717 32.4884 99.3826 32.5251 98.7974 32.5251C97.042 32.5251 96.2478 31.8285 96.2478 30.2153V22.2595H100.219V19.3265H96.2478V15.257H92.0681ZM102.726 35.4214H106.906V19.2165H102.726V35.4214ZM104.816 16.5402C106.196 16.5402 107.324 15.5503 107.324 14.3404C107.324 13.0939 106.196 12.104 104.816 12.104C103.437 12.104 102.308 13.0939 102.308 14.3404C102.308 15.5503 103.437 16.5402 104.816 16.5402ZM118.358 35.7514C123.876 35.7514 127.261 32.5984 127.261 27.319C127.261 22.0762 123.876 18.8866 118.358 18.8866C112.883 18.8866 109.456 22.0762 109.456 27.319C109.456 32.5984 112.799 35.7514 118.358 35.7514ZM118.358 32.6717C115.433 32.6717 113.761 30.7286 113.761 27.319C113.761 23.946 115.433 21.9662 118.358 21.9662C121.242 21.9662 122.956 23.946 122.956 27.319C122.914 30.7286 121.242 32.6717 118.358 32.6717ZM129.727 35.4214H133.907V25.9991C133.907 23.6161 135.495 22.1129 137.961 22.1129C140.511 22.1129 141.681 23.3594 141.681 25.8158V35.4214H145.861V24.9359C145.861 21.0497 143.604 18.8866 139.508 18.8866C136.749 18.8866 134.91 19.9865 134.032 21.8196H133.74V19.2165H129.685C129.727 19.2165 129.727 35.4214 129.727 35.4214Z" fill="black"/>
<path fill-rule="evenodd" clip-rule="evenodd" d="M7.26912 12.6791C8.48563 13.5489 8.92564 13.4802 11.2034 13.3429L32.6605 12.1984C33.1264 12.1984 32.7381 11.7864 32.5828 11.7406L29.011 9.47455C28.338 9.01676 27.4062 8.46741 25.672 8.60475L4.91376 9.95522C4.16315 10.0239 4.00785 10.3672 4.31844 10.619L7.26912 12.6791ZM8.56328 17.0967V37.0563C8.56328 38.1321 9.15859 38.5213 10.5304 38.4526L34.1099 37.2394C35.4818 37.1708 35.637 36.4383 35.637 35.5685V15.7463C35.637 14.8765 35.2488 14.3958 34.4205 14.4644L9.77979 15.7463C8.87388 15.8149 8.56328 16.2269 8.56328 17.0967ZM31.8322 18.1725C31.9875 18.7677 31.8322 19.3857 31.1593 19.4543L30.0204 19.6604V34.4012C29.0368 34.8589 28.1309 35.1336 27.3544 35.1336C26.1379 35.1336 25.8273 34.7903 24.9214 33.7831L17.493 23.46V33.4398L19.8483 33.8976C19.8483 33.8976 19.8483 35.1107 17.9589 35.1107L12.7305 35.3854C12.5752 35.1107 12.7305 34.4469 13.2481 34.3096L14.6199 33.9663V20.7819L12.7305 20.6446C12.5752 20.0495 12.9634 19.1797 14.0246 19.111L19.6413 18.7677L27.3803 29.2053V19.9808L25.4132 19.7748C25.2579 19.0423 25.8791 18.493 26.6297 18.4243L31.8322 18.1725ZM3.17958 8.12407L24.792 6.72781C27.4321 6.52181 28.1309 6.65915 29.7875 7.73495L36.6724 12.0153C37.8112 12.7477 38.1995 12.9537 38.1995 13.7549V37.2623C38.1995 38.7273 37.6042 39.5971 35.4817 39.7344L10.401 41.0849C8.79623 41.1535 8.04562 40.9475 7.21736 40.0091L2.11838 34.1723C1.21247 33.0965 0.824219 32.2953 0.824219 31.3569V10.4588C0.824219 9.24565 1.44541 8.26141 3.17958 8.12407Z" fill="black"/>
</g>
<defs>
<clipPath id="clip0_177_1155">
<rect width="145.551" height="48" fill="white" transform="translate(0.824219 0.646484)"/>
</clipPath>
</defs>
</svg>
