<svg width="129" height="49" viewBox="0 0 129 49" fill="none" xmlns="http://www.w3.org/2000/svg">
<g style="mix-blend-mode:luminosity" clip-path="url(#clip0_177_1154)">
<path d="M14.1807 13.7529V22.8407H4.76376V13.7529H0.292969V35.4462H4.76376V26.6536H14.1807V35.4462H18.6515V13.7529H14.1807Z" fill="#33475B"/>
<path d="M32.9597 28.4334C32.9597 29.3028 32.57 30.1366 31.8764 30.7513C31.1828 31.3661 30.242 31.7115 29.2611 31.7115C28.2801 31.7115 27.3394 31.3661 26.6457 30.7513C25.9521 30.1366 25.5624 29.3028 25.5624 28.4334V19.1418H21.3216V28.4334C21.3216 30.2978 22.1573 32.0859 23.6448 33.4042C25.1323 34.7226 27.1498 35.4632 29.2534 35.4632C31.357 35.4632 33.3745 34.7226 34.862 33.4042C36.3495 32.0859 37.1852 30.2978 37.1852 28.4334V19.1418H32.9597V28.4334Z" fill="#33475B"/>
<path d="M64.3811 20.0994C64.3811 18.1949 65.8027 17.5911 67.3601 17.5911C68.6153 17.5911 70.2735 18.4376 71.3578 19.4646L74.1353 16.5641C72.7487 14.9023 69.9362 13.7529 67.634 13.7529C63.0339 13.7529 59.7066 16.1409 59.7066 20.0994C59.7066 27.4438 69.8354 25.1141 69.8354 29.224C69.8354 30.4918 68.4466 31.612 66.8563 31.612C64.3482 31.612 63.5356 30.5248 62.3834 29.3755L59.3013 32.2157C61.2728 34.361 63.7042 35.4501 66.6176 35.4501C70.9876 35.4501 74.5033 33.0331 74.5033 29.2551C74.5033 21.1012 64.3745 23.6347 64.3745 20.0994" fill="#33475B"/>
<path d="M127.042 31.9806C124.536 31.9806 123.824 31.0196 123.824 29.548V23.0346H127.719V19.7342H123.824V15.3796L119.525 17.09V30.3576C119.525 33.7511 122.166 35.4615 125.789 35.4615C126.358 35.4707 126.925 35.4304 127.485 35.3412L128.534 31.9185C128.061 31.9476 127.518 31.9767 127.042 31.9767" fill="#33475B"/>
<path d="M49.1025 19.2514C47.0018 19.2514 45.5363 19.7911 44.1191 21.0239V13.8834H39.8717V27.118C39.8717 32.0724 43.9132 35.466 48.4541 35.466C53.4922 35.466 57.9236 32.0122 57.9236 27.3606C57.9236 22.7673 53.8449 19.2533 49.1025 19.2533V19.2514ZM49.0762 31.6783C48.1231 31.6783 47.1913 31.4278 46.3988 30.9585C45.6063 30.4892 44.9887 29.8221 44.6239 29.0417C44.2592 28.2613 44.1638 27.4025 44.3497 26.574C44.5356 25.7455 44.9946 24.9844 45.6686 24.3871C46.3425 23.7898 47.2012 23.383 48.136 23.2182C49.0708 23.0534 50.0398 23.138 50.9204 23.4612C51.8009 23.7845 52.5536 24.3319 53.0831 25.0343C53.6126 25.7367 53.8952 26.5625 53.8952 27.4072C53.8952 28.54 53.3875 29.6264 52.4838 30.4273C51.58 31.2283 50.3543 31.6783 49.0762 31.6783Z" fill="#33475B"/>
<path d="M95.2208 27.1618C95.2208 22.5024 90.7982 19.0564 85.7513 19.0564C81.2104 19.0564 77.169 22.45 77.169 27.4044V40.6468H81.4163V33.4966C82.8314 34.7274 84.299 35.2691 86.3975 35.2691C91.1399 35.2691 95.2186 31.7571 95.2186 27.1618H95.2208ZM91.1991 27.1152C91.1991 27.9599 90.9164 28.7857 90.3869 29.4881C89.8574 30.1904 89.1047 30.7379 88.2242 31.0611C87.3436 31.3844 86.3746 31.469 85.4398 31.3042C84.505 31.1394 83.6464 30.7326 82.9724 30.1353C82.2984 29.538 81.8395 28.7769 81.6535 27.9484C81.4676 27.1199 81.563 26.2611 81.9277 25.4807C82.2925 24.7002 82.9102 24.0332 83.7027 23.5639C84.4952 23.0946 85.4269 22.8441 86.38 22.8441C87.6581 22.8441 88.8838 23.2941 89.7876 24.095C90.6913 24.896 91.1991 25.9824 91.1991 27.1152Z" fill="#33475B"/>
<path d="M108.899 18.9961V15.2531C109.458 15.0221 109.93 14.6552 110.262 14.1953C110.594 13.7355 110.772 13.2014 110.775 12.6555V12.5681C110.772 11.8052 110.429 11.074 109.821 10.5346C109.212 9.99506 108.387 9.69107 107.526 9.68902H107.427C106.567 9.69107 105.742 9.99506 105.133 10.5346C104.524 11.074 104.181 11.8052 104.179 12.5681V12.6555C104.182 13.2014 104.359 13.7355 104.691 14.1953C105.023 14.6552 105.496 15.0221 106.054 15.2531V18.9961C104.449 19.2136 102.938 19.803 101.673 20.7046L90.0766 12.7079C90.1591 12.4441 90.2033 12.1721 90.208 11.8983C90.2089 11.256 89.9948 10.6278 89.5929 10.0932C89.1909 9.55866 88.6191 9.14175 87.9498 8.89521C87.2805 8.64867 86.5437 8.58357 85.8327 8.70814C85.1217 8.83271 84.4683 9.14136 83.9551 9.59505C83.442 10.0487 83.0922 10.6271 82.9499 11.257C82.8077 11.8869 82.8794 12.54 83.1559 13.1338C83.4325 13.7276 83.9015 14.2354 84.5037 14.5929C85.1059 14.9504 85.8142 15.1417 86.539 15.1424C87.1756 15.1403 87.8004 14.9897 88.3505 14.7056L99.752 22.5722C98.725 23.9454 98.1893 25.5611 98.2147 27.2084C98.2401 28.8556 98.8255 30.4578 99.8944 31.8055L96.4246 34.8807C96.1461 34.8021 95.856 34.7603 95.5638 34.7565C94.9681 34.7565 94.3858 34.913 93.8904 35.2064C93.3951 35.4997 93.0091 35.9166 92.7811 36.4044C92.5532 36.8921 92.4935 37.4289 92.6097 37.9467C92.7259 38.4645 93.0128 38.9402 93.434 39.3135C93.8552 39.6868 94.3919 39.9411 94.9762 40.0441C95.5604 40.1471 96.166 40.0942 96.7164 39.8922C97.2667 39.6901 97.7371 39.348 98.0681 38.909C98.399 38.47 98.5757 37.9539 98.5757 37.4259C98.5717 37.1669 98.5244 36.9098 98.4355 36.6629L101.868 33.6208C102.988 34.3793 104.29 34.9009 105.672 35.1458C107.055 35.3906 108.482 35.3523 109.846 35.0336C111.209 34.715 112.472 34.1245 113.539 33.3072C114.605 32.4899 115.447 31.4674 116 30.3178C116.553 29.1682 116.802 27.9219 116.728 26.674C116.654 25.4261 116.26 24.2096 115.575 23.1173C114.89 22.0251 113.932 21.086 112.776 20.3718C111.619 19.6575 110.293 19.187 108.899 18.9961ZM107.478 31.3085C106.539 31.3085 105.62 31.0617 104.839 30.5992C104.058 30.1367 103.45 29.4794 103.09 28.7103C102.731 27.9412 102.637 27.0949 102.82 26.2784C103.003 25.462 103.456 24.712 104.12 24.1234C104.784 23.5347 105.63 23.1339 106.551 22.9715C107.473 22.8091 108.427 22.8924 109.295 23.211C110.163 23.5296 110.905 24.069 111.426 24.7612C111.948 25.4534 112.227 26.2671 112.227 27.0996C112.227 28.2159 111.726 29.2864 110.836 30.0758C109.945 30.8651 108.737 31.3085 107.478 31.3085Z" fill="#FF7A59"/>
</g>
<defs>
<clipPath id="clip0_177_1154">
<rect width="128.626" height="48" fill="white" transform="translate(0.292969 0.646484)"/>
</clipPath>
</defs>
</svg>
