<svg width="111" height="49" viewBox="0 0 111 49" fill="none" xmlns="http://www.w3.org/2000/svg">
<g style="mix-blend-mode:luminosity" clip-path="url(#clip0_177_1157)">
<path fill-rule="evenodd" clip-rule="evenodd" d="M90.3603 21.2437C90.7826 21.8893 90.9207 22.6239 90.9663 23.4497L91.0263 24.5504V32.2472L91.0875 33.349C91.21 35.1485 92.7073 36.479 94.7533 36.5922L95.99 36.6465V24.5504L96.0512 23.4497C96.1021 22.6332 96.2389 21.8847 96.6676 21.2345C97.1045 20.5675 97.7317 20.0142 98.4862 19.63C99.2406 19.2458 100.096 19.0443 100.966 19.0457C101.836 19.0471 102.691 19.2513 103.444 19.638C104.196 20.0246 104.821 20.58 105.255 21.2483C105.678 21.894 105.809 22.6424 105.86 23.4497L105.921 24.5469V32.2472L105.983 33.349C106.11 35.1577 107.596 36.4883 109.648 36.5922L110.885 36.6465V23.4497C110.885 21.1162 109.839 18.8781 107.978 17.2278C106.117 15.5774 103.592 14.6497 100.959 14.6488C99.5497 14.6475 98.1564 14.9127 96.8721 15.4268C95.5878 15.9408 94.442 16.6919 93.5114 17.6298C92.5803 16.6923 91.4345 15.9414 90.1503 15.4272C88.8661 14.913 87.473 14.6472 86.0638 14.6476C84.0022 14.6476 82.0892 15.202 80.5045 16.1595C79.5376 15.2032 77.3744 14.6476 76.1325 14.6476V36.6465L77.3744 36.5922C79.4516 36.4709 80.9528 35.1762 81.0336 33.349L81.1001 32.2472V24.5504L81.1613 23.4497C81.2135 22.6193 81.3438 21.8893 81.7673 21.2391C82.2046 20.5725 82.8314 20.0193 83.5854 19.6347C84.3393 19.25 85.1939 19.0473 86.0638 19.0469C86.9344 19.0471 87.7897 19.2502 88.5438 19.6357C89.2979 20.0213 89.9244 20.5758 90.3603 21.2437ZM5.39049 36.5934L6.6324 36.6465H25.248L25.1868 35.5493C25.0187 33.7406 23.5735 32.4193 21.5262 32.3015L20.2843 32.2472H9.11622L24.0061 19.0458L23.9449 17.9497C23.8484 16.1225 22.342 14.8024 20.2843 14.7019L19.0424 14.6523L0.426758 14.6476L0.488006 15.7483C0.650901 17.5397 2.11695 18.8887 4.14728 18.9927L5.39049 19.0469H16.5586L1.66867 32.2483L1.72992 33.349C1.85241 35.1623 3.32889 36.4755 5.39049 36.5922V36.5934ZM71.2599 17.8677C72.4126 18.8891 73.3269 20.1017 73.9508 21.4363C74.5746 22.7709 74.8957 24.2013 74.8957 25.6459C74.8957 27.0905 74.5746 28.5209 73.9508 29.8555C73.3269 31.1901 72.4126 32.4027 71.2599 33.4241C68.9312 35.4864 65.7739 36.6448 62.4819 36.6448C59.1899 36.6448 56.0325 35.4864 53.7038 33.4241C48.8573 29.1287 48.8573 22.1631 53.7038 17.8677C54.8554 16.8467 56.2226 16.0367 57.7274 15.484C59.2322 14.9313 60.8451 14.6467 62.474 14.6465C64.1056 14.6455 65.7214 14.9296 67.2289 15.4825C68.7365 16.0354 70.1063 16.8463 71.2599 17.8689V17.8677ZM67.7479 20.9827C69.1439 22.2208 69.928 23.8996 69.928 25.65C69.928 27.4003 69.1439 29.0791 67.7479 30.3172C66.3509 31.5544 64.4568 32.2494 62.4819 32.2494C60.5069 32.2494 58.6128 31.5544 57.2158 30.3172C55.8198 29.0791 55.0357 27.4003 55.0357 25.65C55.0357 23.8996 55.8198 22.2208 57.2158 20.9827C58.6128 19.7455 60.5069 19.0505 62.4819 19.0505C64.4568 19.0505 66.3509 19.7455 67.7479 20.9827ZM36.4265 14.6465C38.0555 14.6469 39.6685 14.9316 41.1733 15.4845C42.6781 16.0374 44.0453 16.8476 45.1968 17.8689C50.0445 22.1631 50.0445 29.1299 45.1968 33.4241C42.868 35.4864 39.7107 36.6448 36.4187 36.6448C33.1267 36.6448 29.9694 35.4864 27.6406 33.4241C22.7942 29.1287 22.7942 22.1631 27.6406 17.8677C28.7922 16.8467 30.1595 16.0367 31.6643 15.484C33.1691 14.9313 34.782 14.6467 36.4109 14.6465H36.4265ZM41.6848 20.9804C43.0811 22.2186 43.8655 23.8976 43.8655 25.6482C43.8655 27.3989 43.0811 29.0779 41.6848 30.3161C40.2877 31.5533 38.3936 32.2483 36.4187 32.2483C34.4438 32.2483 32.5496 31.5533 31.1526 30.3161C29.7567 29.0779 28.9725 27.3992 28.9725 25.6488C28.9725 23.8984 29.7567 22.2197 31.1526 20.9815C32.5496 19.7443 34.4438 19.0493 36.4187 19.0493C38.3936 19.0493 40.2877 19.7443 41.6848 20.9815V20.9804Z" fill="#2D8CFF"/>
</g>
<defs>
<clipPath id="clip0_177_1157">
<rect width="110.573" height="48" fill="white" transform="translate(0.426758 0.646484)"/>
</clipPath>
</defs>
</svg>
