<svg width="58" height="74" viewBox="0 0 58 74" fill="none" xmlns="http://www.w3.org/2000/svg">
<path d="M28.8784 1.47858C22.731 4.61226 23.6316 19.1447 31.4626 33.638C44.5797 57.8848 55.0341 55.0253 56.2479 54.5944C56.2871 54.5944 56.2871 54.6336 56.2479 54.6336L33.7336 72.7698C27.1164 63.4862 20.8124 53.1451 15.0174 41.9814C9.49656 31.2877 4.83709 20.6332 1.15649 10.292L28.8784 1.47858Z" fill="black"/>
<path d="M33.7334 73.6315C33.6943 73.6315 33.6551 73.6315 33.616 73.6315C33.381 73.5924 33.1853 73.4749 33.0286 73.279C26.2548 63.7604 19.9508 53.341 14.2733 42.4123C8.83071 31.9144 4.13208 21.2208 0.37318 10.6446C0.29487 10.4096 0.294872 10.1745 0.412338 9.97868C0.529803 9.78283 0.68642 9.62614 0.921351 9.5478L28.6433 0.73433C29.074 0.616817 29.5438 0.812679 29.7004 1.24356C29.8571 1.67444 29.7004 2.14449 29.3089 2.34034C27.9776 3.00625 26.9987 4.33807 26.4114 6.29661C24.4928 12.4465 26.8421 23.336 32.2847 33.3246C45.0884 56.9839 54.9556 54.2811 56.0128 53.8894C56.4043 53.7327 56.8742 53.9285 57.07 54.2811C57.2657 54.6336 57.1874 55.1428 56.8742 55.417L34.2816 73.4357C34.125 73.5532 33.9292 73.6315 33.7334 73.6315ZM2.29178 10.8405C6.01153 21.0641 10.5535 31.4052 15.8003 41.5897C21.2821 52.1658 27.3903 62.2328 33.9292 71.5163L53.4677 55.7696C49.004 55.5737 40.5856 52.2442 30.7185 34.0297C25.0018 23.4927 22.6525 12.3681 24.7277 5.66988C25.0018 4.80811 25.3151 4.06387 25.7066 3.35879L2.29178 10.8405Z" fill="black"/>
</svg>
