<svg width="165" height="220" viewBox="0 0 165 220" fill="none" xmlns="http://www.w3.org/2000/svg">
<path d="M4.36762 99.0686L50.8449 1.33698H50.884C39.3333 26.093 47.7516 76.2711 74.0248 127.037C100.376 177.881 136.634 213.8 163.573 218.736L162.829 218.697L56.0525 200.404L53.5858 199.973C41.1735 197.779 24.6109 181.641 12.7469 158.608C0.569575 134.988 -1.58397 111.447 3.81945 100.244L4.36762 99.0686Z" fill="white"/>
<path d="M163.573 219.598C163.534 219.598 163.573 219.598 163.573 219.598L162.79 219.559C162.751 219.559 162.712 219.559 162.673 219.559L55.8962 201.266L53.4295 200.835C40.3124 198.524 23.6715 181.719 11.9641 159.039C-1.30957 133.265 -1.97521 110.311 3.03666 99.8912L3.62399 98.7161L50.1013 1.02363C50.2187 0.827774 50.3753 0.671087 50.6103 0.592745C50.8452 0.514404 51.0801 0.514406 51.2759 0.631919C51.7066 0.827774 51.9024 1.33699 51.7066 1.76787C39.9209 27.0332 49.2398 77.2504 74.8474 126.684C100.494 176.196 136.243 212.86 163.769 217.913C164.2 217.992 164.513 218.383 164.474 218.853C164.356 219.245 164.004 219.598 163.573 219.598ZM46.3815 12.7749L5.15104 99.4603L4.56371 100.635C-0.409007 110.977 1.03974 134.087 13.4911 158.217C24.9636 180.466 41.1347 196.918 53.7427 199.111L56.2095 199.542L152.101 215.994C126.141 204.595 95.7954 170.947 73.2812 127.468C50.9235 84.3011 40.9389 40.4688 46.3815 12.7749Z" fill="black"/>
</svg>
