<svg width="43" height="59" viewBox="0 0 43 59" fill="none" xmlns="http://www.w3.org/2000/svg">
<path d="M41.5036 57.5381C34.8472 57.0681 25.5283 47.6279 18.7544 34.5839C11.589 20.7566 9.90532 6.45917 14.2907 1.36694L2.58329 21.7359L2.50498 21.8925C0.273136 25.3396 1.56526 33.2913 5.75487 41.3997C9.86617 49.3906 15.6611 54.9528 19.7333 55.2662L19.6158 55.3446L41.5036 57.5381Z" fill="white"/>
<path d="M41.5039 58.3998C41.4647 58.3998 41.4647 58.3998 41.4256 58.3998C41.269 58.3998 41.0732 58.3606 40.9166 58.3606L19.5378 56.2062C19.4203 56.2062 19.3029 56.1671 19.1854 56.0887C14.7217 55.3837 9.08335 49.743 4.97205 41.8305C0.625819 33.4479 -0.666303 25.3003 1.72217 21.4616L1.76132 21.3441L12.0591 3.40376C12.4507 2.38532 12.9597 1.48436 13.5862 0.740116C13.8603 0.387577 14.3693 0.34842 14.7217 0.583446C15.0741 0.857643 15.1916 1.32768 14.9566 1.71939L13.5079 4.18718C11.1977 10.4154 13.4687 22.6367 19.4203 34.0746C25.8809 46.5702 34.6909 55.697 40.9949 56.5196L41.4647 56.5588C41.9346 56.5979 42.287 57.0288 42.2478 57.4989C42.287 58.0473 41.9346 58.3998 41.5039 58.3998ZM20.1643 54.5219L35.1216 56.0495C29.3658 52.3675 23.0226 44.7683 17.9716 34.9756C13.0772 25.5354 10.6496 15.7426 11.0411 8.69184L3.24922 22.2842C3.24922 22.3233 3.21006 22.3625 3.21006 22.3625C1.17399 25.5354 2.54443 33.3696 6.4991 41.0079C10.3755 48.4896 15.9747 54.1302 19.8119 54.4044C19.9294 54.4044 20.086 54.4436 20.1643 54.5219Z" fill="black"/>
</svg>
