<svg width="51" height="66" viewBox="0 0 51 66" fill="none" xmlns="http://www.w3.org/2000/svg">
<path d="M39.3039 59.3387C45.4261 56.158 44.2486 41.7505 36.6737 27.1587C29.0989 12.5669 17.9952 3.31637 11.8729 6.49709C5.75068 9.6778 6.92822 24.0853 14.5031 38.6771C22.0779 53.2689 33.1816 62.5195 39.3039 59.3387Z" fill="#FE7743"/>
<path d="M36.6245 60.848C29.8898 60.848 20.4925 52.1521 13.7187 39.0298C8.08033 28.1403 5.77017 16.9374 7.8454 10.4742C8.58935 8.20224 9.80318 6.59623 11.4869 5.73447C18.1432 2.32659 29.5374 11.6101 37.4468 26.8476C43.0851 37.7372 45.3953 48.9401 43.3201 55.4033C42.5761 57.6752 41.3623 59.2812 39.6786 60.143C38.7389 60.613 37.7208 60.848 36.6245 60.848ZM14.541 6.71374C13.7187 6.71374 12.9356 6.87043 12.27 7.22297C10.9778 7.88888 10.0381 9.14234 9.45078 10.9834C7.53217 17.0157 9.76402 27.7486 15.2066 38.2464C22.4112 52.1521 33.2571 61.5139 38.8563 58.6153C40.1485 57.9494 41.0882 56.6959 41.6755 54.8549C43.5941 48.7834 41.3231 38.0897 35.9197 27.5919C29.5766 15.4097 20.4926 6.71374 14.541 6.71374Z" fill="#FE7743"/>
</svg>
