<svg width="100" height="99" viewBox="0 0 100 99" fill="none" xmlns="http://www.w3.org/2000/svg">
<path d="M66.7237 81.5974C84.6237 72.1937 91.5471 50.1159 82.1874 32.2852C72.8277 14.4546 50.7293 7.62316 32.8292 17.0269C14.9291 26.4306 8.00575 48.5084 17.3655 66.339C26.7252 84.1697 48.8236 91.0011 66.7237 81.5974Z" fill="black"/>
<path d="M33.1046 41.2352C34.8274 38.8849 37.3725 37.4356 40.27 37.1223C42.4627 36.8872 44.4987 37.3573 46.4173 38.5324C47.3962 39.12 48.2576 39.8642 49.0799 40.7652C49.6672 39.7075 50.372 38.7674 51.1943 37.984C52.7996 36.4172 54.7182 35.5162 56.8718 35.2812C59.7693 34.9678 62.5884 35.8296 64.7811 37.749C66.9347 39.6292 68.3051 42.3712 68.6575 45.4657C69.0099 48.6385 68.1485 51.6939 65.9558 55.0626C63.998 58.0787 61.0222 61.2124 57.5766 64.8945C56.4019 66.1479 55.0706 67.5581 53.7002 69.0466C53.3478 69.4383 52.8388 69.7125 52.2906 69.7517C51.7424 69.83 51.2334 69.6733 50.7636 69.36C49.0799 68.1848 47.4745 67.0881 46.0649 66.1479C41.9145 63.3276 38.3122 60.899 35.7279 58.3921C32.8304 55.611 31.3426 52.7906 30.9902 49.6178C30.6769 46.5233 31.4209 43.5463 33.1046 41.2352Z" fill="white"/>
</svg>
