<svg width="72" height="88" viewBox="0 0 72 88" fill="none" xmlns="http://www.w3.org/2000/svg">
<path d="M69.3452 80.388L71.0681 80.0355C61.7491 81.994 47.0267 67.8925 36.6506 47.8761C26.0395 27.4289 24.0426 7.02076 31.5604 0.988434L30.5815 1.96771L3.36865 30.2492C-1.09505 35.263 0.549469 49.6388 7.75403 63.5445C14.6845 76.941 24.5125 86.4987 31.208 86.4595L69.3452 80.388Z" fill="black"/>
<path d="M31.1697 87.3606C24.0434 87.3606 14.1371 77.7637 6.97172 63.9755C-0.311151 49.874 -2.15145 35.1457 2.7038 29.7009L29.4077 1.96786C29.8775 1.34113 30.4257 0.792727 31.013 0.322675C31.3654 0.0484781 31.8745 0.0876539 32.1877 0.401022C32.5009 0.753561 32.5009 1.26278 32.1877 1.57615L30.6606 3.18215C25.2181 10.468 27.9198 29.1134 37.4345 47.4846C47.6932 67.3051 62.024 80.8974 70.7948 79.2522L70.9122 79.213C71.3821 79.1347 71.8128 79.4089 71.9303 79.8789C72.0086 80.349 71.7345 80.7799 71.2646 80.8974C71.2255 80.8974 71.1863 80.8974 71.1472 80.9366L69.5418 81.2499H69.5026L31.3654 87.3214C31.2871 87.3214 31.2088 87.3606 31.1697 87.3606ZM27.1367 6.82506L3.99593 30.876C-0.31115 35.7332 1.64661 49.9131 8.53793 63.1921C15.2726 76.1969 24.7874 85.5979 31.1697 85.6371L64.8432 80.2706C55.7591 77.0586 44.5607 64.9548 35.9074 48.3071C27.6848 32.4429 24.5133 16.3044 27.1367 6.82506Z" fill="black"/>
</svg>
