<svg width="103" height="103" viewBox="0 0 103 103" fill="none" xmlns="http://www.w3.org/2000/svg">
<path d="M68.5357 85.5815C87.512 76.3397 95.4524 53.5529 86.2712 34.6857C77.09 15.8185 54.2638 8.01558 35.2875 17.2573C16.3113 26.4991 8.37084 49.2858 17.5521 68.153C26.7333 87.0202 49.5595 94.8232 68.5357 85.5815Z" fill="#FE7743"/>
<path d="M51.718 90.3468C47.6458 90.3468 43.4954 89.7201 39.4624 88.3491C29.5953 85.0587 21.6076 78.1646 16.9873 68.8419C12.367 59.5584 11.6622 49.0214 14.9904 39.1503C21.8817 18.8206 44.0436 7.73519 64.4434 14.5118C74.3106 17.8021 82.2982 24.6962 86.9186 34.0189C91.5389 43.3024 92.2437 53.8394 88.9155 63.7105C83.3554 80.0056 68.0457 90.3468 51.718 90.3468ZM52.1095 14.2767C36.4866 14.2767 21.8425 24.1478 16.5566 39.7379C13.385 49.1781 14.0506 59.245 18.4752 68.0977C22.8997 76.9895 30.535 83.6094 39.9714 86.743C59.4707 93.2063 80.6537 82.6301 87.2318 63.2013C90.4033 53.7611 89.7377 43.6941 85.3132 34.8415C80.8887 25.9497 73.2534 19.3298 63.817 16.1961C59.9406 14.8643 55.9859 14.2767 52.1095 14.2767Z" fill="black"/>
<path d="M71.3753 45.2611C70.9837 54.7797 54.8909 77.0288 51.0537 82.2385C50.6622 82.7869 49.8399 82.7477 49.4875 82.1602C47.0599 78.2431 39.0331 65.0816 34.8435 54.4271C33.1598 50.1966 32.1026 46.3579 32.2201 43.6551C32.6508 32.8439 41.7739 24.4221 52.5808 24.853C63.3876 25.3622 71.806 34.4499 71.3753 45.2611Z" fill="black"/>
<path d="M58.1304 50.8265C61.632 47.3234 61.632 41.6439 58.1304 38.1409C54.6287 34.6379 48.9515 34.6378 45.4499 38.1409C41.9483 41.6439 41.9483 47.3234 45.4499 50.8265C48.9515 54.3295 54.6287 54.3295 58.1304 50.8265Z" fill="#FE7743"/>
</svg>
