<svg width="37" height="38" viewBox="0 0 37 38" fill="none" xmlns="http://www.w3.org/2000/svg">
<path d="M15.2784 23.5834L23.2075 19.0001L15.2784 14.4168V23.5834ZM32.9395 11.6209C33.1381 12.339 33.2756 13.3015 33.3673 14.5237C33.4742 15.7459 33.52 16.8001 33.52 17.7168L33.6117 19.0001C33.6117 22.3459 33.3673 24.8057 32.9395 26.3793C32.5575 27.7543 31.6714 28.6404 30.2964 29.0223C29.5784 29.2209 28.2645 29.3584 26.2478 29.4501C24.2617 29.5571 22.4437 29.6029 20.7631 29.6029L18.3339 29.6946C11.9325 29.6946 7.94504 29.4501 6.37143 29.0223C4.99643 28.6404 4.11032 27.7543 3.72837 26.3793C3.52976 25.6612 3.39226 24.6987 3.3006 23.4765C3.19365 22.2543 3.14782 21.2001 3.14782 20.2834L3.05615 19.0001C3.05615 15.6543 3.3006 13.1946 3.72837 11.6209C4.11032 10.2459 4.99643 9.35983 6.37143 8.97789C7.08949 8.77928 8.40338 8.64177 10.42 8.55011C12.4062 8.44316 14.2242 8.39733 15.9048 8.39733L18.3339 8.30566C24.7353 8.30566 28.7228 8.55011 30.2964 8.97789C31.6714 9.35983 32.5575 10.2459 32.9395 11.6209Z" fill="#191619"/>
</svg>
