<svg width="38" height="38" viewBox="0 0 38 38" fill="none" xmlns="http://www.w3.org/2000/svg">
<path d="M34.9809 9.8329C33.8045 10.3676 32.5364 10.719 31.2225 10.8871C32.567 10.0773 33.6059 8.79401 34.0948 7.25095C32.8267 8.01484 31.4212 8.54957 29.9392 8.85512C28.7323 7.54123 27.0364 6.77734 25.1114 6.77734C21.5212 6.77734 18.5878 9.71068 18.5878 13.3315C18.5878 13.851 18.6489 14.3551 18.7559 14.8287C13.317 14.5537 8.47394 11.9412 5.25033 7.98429C4.68505 8.94679 4.36422 10.0773 4.36422 11.269C4.36422 13.5454 5.51005 15.5621 7.28228 16.7079C6.19755 16.7079 5.18922 16.4023 4.30311 15.944V15.9898C4.30311 19.1676 6.56422 21.826 9.55866 22.4218C8.59727 22.6849 7.58798 22.7215 6.61005 22.5287C7.02501 23.8311 7.83768 24.9707 8.93383 25.7874C10.03 26.604 11.3545 27.0566 12.7212 27.0815C10.4045 28.9155 7.53282 29.9069 4.57811 29.8926C4.05866 29.8926 3.53922 29.8621 3.01978 29.801C5.92255 31.6648 9.37533 32.7496 13.0726 32.7496C25.1114 32.7496 31.7267 22.7579 31.7267 14.0954C31.7267 13.8051 31.7267 13.5301 31.7114 13.2398C32.9948 12.3232 34.0948 11.1621 34.9809 9.8329Z" fill="#191619"/>
</svg>
