<svg width="45" height="44" viewBox="0 0 45 44" fill="none" xmlns="http://www.w3.org/2000/svg">
<g clip-path="url(#clip0_177_1088)">
<path d="M37.1199 18.5083C37.5633 18.5084 37.9913 18.6712 38.3226 18.9658C38.654 19.2605 38.8657 19.6665 38.9176 20.1068L38.9302 20.3186V29.3704C38.9302 31.2282 38.2162 33.015 36.9357 34.3611C35.6553 35.7073 33.9065 36.5098 32.0509 36.6027L31.6889 36.6117H8.15439C7.81679 36.6118 7.48589 36.5175 7.19906 36.3395C6.91223 36.1614 6.68091 35.9067 6.53121 35.6041C6.38151 35.3015 6.31941 34.9631 6.35192 34.6271C6.38442 34.291 6.51024 33.9708 6.71517 33.7025L6.87448 33.5215L12.3055 28.0905C12.6313 27.7658 13.0684 27.5773 13.5282 27.5632C13.9879 27.5492 14.4358 27.7107 14.7808 28.0149C15.1257 28.3191 15.342 28.7432 15.3856 29.201C15.4292 29.6589 15.2969 30.1162 15.0156 30.4801L14.8653 30.6503L12.5246 32.991H31.6889C32.6023 32.9913 33.4821 32.6463 34.1519 32.0252C34.8217 31.4041 35.232 30.5528 35.3005 29.6419L35.3095 29.3704V20.3186C35.3095 19.8385 35.5003 19.378 35.8398 19.0385C36.1793 18.699 36.6398 18.5083 37.1199 18.5083ZM37.1199 7.64624C37.4575 7.64614 37.7884 7.74044 38.0752 7.91849C38.362 8.09654 38.5934 8.35125 38.7431 8.65385C38.8928 8.95644 38.9549 9.29487 38.9224 9.6309C38.8899 9.96693 38.764 10.2872 38.5591 10.5555L38.3998 10.7365L32.9688 16.1675C32.643 16.4922 32.2058 16.6807 31.7461 16.6947C31.2864 16.7088 30.8385 16.5473 30.4935 16.2431C30.1485 15.9389 29.9323 15.5148 29.8887 15.0569C29.845 14.5991 29.9773 14.1417 30.2587 13.7779L30.4089 13.6077L32.7497 11.2669H13.5854C12.6723 11.2671 11.7929 11.6123 11.1235 12.2334C10.4541 12.8544 10.0441 13.7055 9.9756 14.6161L9.96473 14.8876V23.9393C9.96422 24.4008 9.78754 24.8446 9.47078 25.1801C9.15403 25.5156 8.72111 25.7175 8.26049 25.7446C7.79986 25.7716 7.34629 25.6217 6.99245 25.3256C6.63862 25.0294 6.41122 24.6093 6.35672 24.1511L6.34405 23.9393V14.8876C6.34405 13.0298 7.05811 11.243 8.33854 9.89684C9.61898 8.5507 11.3678 7.74818 13.2234 7.65529L13.5854 7.64624H37.1199Z" fill="#FEF7F1"/>
</g>
<defs>
<clipPath id="clip0_177_1088">
<rect width="43.4482" height="43.4482" fill="white" transform="translate(0.913086 0.404785)"/>
</clipPath>
</defs>
</svg>
