<svg width="68" height="69" viewBox="0 0 68 69" fill="none" xmlns="http://www.w3.org/2000/svg">
<g filter="url(#filter0_d_177_1070)">
<rect x="4" y="2.64624" width="60" height="60" rx="30" fill="white"/>
<path fill-rule="evenodd" clip-rule="evenodd" d="M48.6855 52.457H42.6425C42.4621 52.457 42.2926 52.3652 42.1962 52.2128C42.0982 52.0604 42.0858 51.8692 42.162 51.7043C42.7218 50.4992 43.0064 49.2101 43.0064 47.8712C43.0064 42.85 38.9212 38.7648 33.9001 38.7648C28.879 38.7648 24.7937 42.85 24.7937 47.8712C24.7937 49.2101 25.0783 50.5008 25.6381 51.7043C25.7143 51.8692 25.7019 52.0604 25.6039 52.2128C25.506 52.3652 25.338 52.457 25.1576 52.457H19.1146C18.8751 52.457 18.6668 52.2968 18.603 52.0666C18.2298 50.7044 18.04 49.2909 18.04 47.8696C18.04 39.1255 25.1543 32.0112 33.8984 32.0112C42.6424 32.0112 49.7567 39.1255 49.7567 47.8696C49.7567 49.2909 49.567 50.7029 49.1938 52.0666C49.13 52.2968 48.9217 52.457 48.6822 52.457H48.6855ZM43.4371 51.398H48.2747C48.5562 50.2472 48.6992 49.0623 48.6992 47.8696C48.6992 39.7103 42.0607 33.0701 33.8998 33.0701C25.7405 33.0701 19.1004 39.7087 19.1004 47.8696C19.1004 49.0623 19.2434 50.2472 19.5249 51.398H24.3625C23.9442 50.2721 23.7327 49.0903 23.7327 47.8696C23.7327 42.2636 28.2937 37.7043 33.898 37.7043C39.5039 37.7043 44.0632 42.2652 44.0632 47.8696C44.0632 49.0903 43.8517 50.2721 43.4334 51.398H43.4371Z" fill="black"/>
<path fill-rule="evenodd" clip-rule="evenodd" d="M33.8999 38.7618C33.6075 38.7618 33.3696 38.5239 33.3696 38.2315V32.54C33.3696 32.2477 33.6076 32.0098 33.8999 32.0098C34.1922 32.0098 34.4301 32.2477 34.4301 32.54V38.2315C34.4301 38.5239 34.1922 38.7618 33.8999 38.7618Z" fill="black"/>
<path fill-rule="evenodd" clip-rule="evenodd" d="M40.1805 41.0911C40.0903 41.0911 40.0001 41.0678 39.9162 41.0196C39.6627 40.8734 39.5756 40.55 39.7218 40.2965L42.6002 35.3124C42.7464 35.0589 43.0698 34.9719 43.3233 35.118C43.5768 35.2642 43.6638 35.5877 43.5177 35.8411L40.6393 40.8252C40.5413 40.9947 40.3625 41.0911 40.179 41.0911H40.1805Z" fill="black"/>
<path fill-rule="evenodd" clip-rule="evenodd" d="M43.353 46.5135C43.1695 46.5135 42.9922 46.4186 42.8927 46.2475C42.7465 45.9941 42.8336 45.6706 43.0871 45.5244L48.1874 42.5792C48.4424 42.433 48.7643 42.5201 48.9105 42.7736C49.0567 43.0271 48.9696 43.3505 48.7161 43.4967L43.6158 46.4419C43.5318 46.4901 43.4416 46.5135 43.3514 46.5135H43.353Z" fill="black"/>
<path fill-rule="evenodd" clip-rule="evenodd" d="M24.4469 46.5135C24.3567 46.5135 24.2665 46.4901 24.1825 46.4419L19.0822 43.4967C18.8287 43.3505 18.7416 43.0271 18.8878 42.7736C19.034 42.5201 19.359 42.433 19.6109 42.5792L24.7112 45.5244C24.9647 45.6706 25.0518 45.9941 24.9056 46.2475C24.8077 46.417 24.6288 46.5135 24.4453 46.5135H24.4469Z" fill="black"/>
<path fill-rule="evenodd" clip-rule="evenodd" d="M27.6193 41.0911C27.4358 41.0911 27.2585 40.9962 27.159 40.8252L24.2806 35.8399C24.1345 35.5864 24.2215 35.263 24.475 35.1168C24.7285 34.9706 25.0519 35.0577 25.1981 35.3112L28.0765 40.2965C28.2227 40.55 28.1356 40.8734 27.8821 41.0196C27.7997 41.0678 27.708 41.0911 27.6178 41.0911H27.6193Z" fill="black"/>
<path fill-rule="evenodd" clip-rule="evenodd" d="M33.8998 52.4567C32.3293 52.4567 31.051 51.1784 31.051 49.6079C31.051 48.0373 32.3293 46.759 33.8998 46.759C35.4704 46.759 36.7487 48.0373 36.7487 49.6079C36.7487 51.1784 35.4704 52.4567 33.8998 52.4567ZM33.8998 47.8181C32.9124 47.8181 32.11 48.6205 32.11 49.608C32.11 50.5954 32.9124 51.3978 33.8998 51.3978C34.8873 51.3978 35.6897 50.5954 35.6897 49.608C35.6897 48.6205 34.8873 47.8181 33.8998 47.8181Z" fill="black"/>
<path fill-rule="evenodd" clip-rule="evenodd" d="M32.267 48.4882C32.2484 48.4882 32.2297 48.4867 32.2111 48.4851C32.0524 48.468 31.9109 48.3809 31.8239 48.2472C31.7694 48.1632 31.7228 48.0746 31.687 47.9828L29.7914 43.1715C29.496 42.4204 29.8661 41.5698 30.6171 41.2728C30.7882 41.2044 30.9686 41.1702 31.1521 41.1702C31.7586 41.1702 32.2935 41.534 32.5143 42.097L34.4099 46.9083C34.4457 47 34.4737 47.098 34.4908 47.196C34.5172 47.353 34.4721 47.5132 34.3695 47.633C34.2653 47.7527 34.1238 47.8165 33.9543 47.8149L33.8998 47.8133C33.4256 47.8133 32.9777 47.9968 32.6402 48.3312C32.5407 48.4307 32.407 48.4851 32.267 48.4851L32.267 48.4882ZM31.1505 42.2322C31.1008 42.2322 31.051 42.2415 31.0043 42.2602C30.7975 42.3426 30.6949 42.5774 30.7773 42.7842L32.4894 47.129C32.7242 46.9953 32.9777 46.8958 33.2405 46.8336L31.5284 42.4888C31.4677 42.3364 31.3169 42.2322 31.1505 42.2322Z" fill="black"/>
<path fill-rule="evenodd" clip-rule="evenodd" d="M52.2699 29.7763H31.2659C30.9735 29.7763 30.7356 29.5384 30.7356 29.2461C30.7356 28.9537 30.9735 28.7158 31.2659 28.7158H52.2699C52.5623 28.7158 52.8002 28.9537 52.8002 29.2461C52.8002 29.5384 52.5638 29.7763 52.2699 29.7763Z" fill="black"/>
<path fill-rule="evenodd" clip-rule="evenodd" d="M50.0225 29.7765H46.7212C46.4288 29.7765 46.1909 29.5386 46.1909 29.2462V13.1765C46.1909 12.8841 46.4288 12.6462 46.7212 12.6462H50.0225C50.3149 12.6462 50.5528 12.8842 50.5528 13.1765V29.2462C50.5528 29.5386 50.3149 29.7765 50.0225 29.7765ZM47.2515 28.7159H49.4938V13.7067H47.2515V28.7159Z" fill="black"/>
<path fill-rule="evenodd" clip-rule="evenodd" d="M43.42 29.7765H40.1186C39.8263 29.7765 39.5884 29.5386 39.5884 29.2463V18.0842C39.5884 17.7919 39.8263 17.554 40.1186 17.554H43.42C43.7124 17.554 43.9503 17.7919 43.9503 18.0842V29.2463C43.9503 29.5386 43.7123 29.7765 43.42 29.7765ZM40.6489 28.716H42.8913V18.6144H40.6489V28.716Z" fill="black"/>
<path fill-rule="evenodd" clip-rule="evenodd" d="M36.8155 29.7763H33.5141C33.2218 29.7763 32.9839 29.5384 32.9839 29.2461V22.9917C32.9839 22.6993 33.2218 22.4614 33.5141 22.4614H36.8155C37.1079 22.4614 37.3458 22.6993 37.3458 22.9917V29.2461C37.3458 29.5384 37.1078 29.7763 36.8155 29.7763ZM34.0444 28.7158H36.2853V23.5203H34.0444V28.7158Z" fill="black"/>
<path fill-rule="evenodd" clip-rule="evenodd" d="M19.1395 33.0933C18.2625 33.0933 17.5503 32.381 17.5503 31.504V23.1194C17.275 23.3293 16.9407 23.4429 16.5893 23.4429C16.1647 23.4429 15.7651 23.278 15.465 22.9779C15.1648 22.6778 15 22.2797 15 21.8536C15 21.4291 15.1648 21.0294 15.465 20.7293L18.0152 18.1791C18.1645 18.0298 18.3387 17.9132 18.5331 17.8339C18.914 17.6752 19.3541 17.6737 19.7397 17.8323C19.9357 17.9116 20.1114 18.0282 20.2607 18.1791L22.8109 20.7293C23.1111 21.0294 23.2759 21.4275 23.2759 21.8536C23.2759 22.2781 23.1111 22.6778 22.8109 22.9779C22.5108 23.278 22.1127 23.4429 21.6867 23.4429C21.3337 23.4429 20.9993 23.3293 20.7256 23.1194V31.504C20.7256 32.381 20.0134 33.0933 19.1364 33.0933L19.1395 33.0933ZM18.0805 21.3293C18.149 21.3293 18.2174 21.3433 18.2827 21.3697C18.4802 21.4521 18.6093 21.645 18.6093 21.8596V31.5041C18.6093 31.7965 18.8472 32.0328 19.1395 32.0328C19.4318 32.0328 19.6698 31.7949 19.6698 31.5041V21.8596C19.6698 21.645 19.7988 21.4522 19.9963 21.3697C20.1938 21.2873 20.4224 21.3324 20.5732 21.4848L21.3166 22.2281C21.5156 22.4271 21.867 22.4271 22.0661 22.2281C22.1656 22.1286 22.22 21.9964 22.22 21.8533C22.22 21.7118 22.1656 21.5781 22.0661 21.4786L19.5158 18.9283C19.4661 18.8786 19.407 18.8397 19.3432 18.8132C19.2126 18.7588 19.068 18.7604 18.9405 18.8132C18.8736 18.8412 18.8161 18.8786 18.7663 18.9283L16.2161 21.4786C16.1165 21.5781 16.0621 21.7103 16.0621 21.8533C16.0621 21.9948 16.1165 22.1286 16.2161 22.2281C16.4151 22.4271 16.7665 22.4271 16.9656 22.2281L17.7074 21.4848C17.8084 21.3837 17.9437 21.3293 18.0821 21.3293H18.0805Z" fill="black"/>
<path fill-rule="evenodd" clip-rule="evenodd" d="M27.2709 28.0286C26.3954 28.0286 25.6816 27.3164 25.6816 26.4393V18.0548C25.4064 18.2647 25.0721 18.3782 24.7206 18.3782C24.2961 18.3782 23.8964 18.2134 23.5963 17.9132C23.2962 17.6131 23.1313 17.215 23.1313 16.7889C23.1313 16.3644 23.2962 15.9648 23.5963 15.6647L26.1482 13.1128C26.2974 12.9635 26.4716 12.8469 26.666 12.7676C27.0454 12.6105 27.4886 12.6074 27.8743 12.766C28.0687 12.8454 28.2444 12.962 28.3952 13.1128L30.9471 15.6647C31.2472 15.9648 31.412 16.3629 31.412 16.7889C31.412 17.2135 31.2472 17.6131 30.9471 17.9132C30.6469 18.2134 30.2489 18.3782 29.8228 18.3782C29.4698 18.3782 29.1354 18.2647 28.8617 18.0548V26.4409C28.8602 27.3164 28.148 28.0302 27.2709 28.0302L27.2709 28.0286ZM26.2119 16.2646C26.2803 16.2646 26.3487 16.2786 26.414 16.3051C26.6115 16.3875 26.7406 16.5803 26.7406 16.7949V26.4394C26.7406 26.7318 26.9785 26.9697 27.2709 26.9697C27.5632 26.9697 27.8011 26.7318 27.8011 26.4394V16.7949C27.8011 16.5803 27.9302 16.3875 28.1277 16.3051C28.3252 16.2226 28.5538 16.2677 28.7046 16.4201L29.4479 17.1634C29.647 17.3625 29.9984 17.3625 30.1974 17.1634C30.297 17.0639 30.3514 16.9317 30.3514 16.7887C30.3514 16.6472 30.297 16.5134 30.1974 16.4139L27.6456 13.8621C27.5958 13.8123 27.5367 13.7734 27.473 13.747C27.3424 13.6926 27.1977 13.6941 27.0718 13.747C27.0049 13.775 26.9474 13.8123 26.8976 13.8621L24.3458 16.4139C24.2463 16.5134 24.1918 16.6456 24.1918 16.7887C24.1918 16.9302 24.2463 17.0639 24.3458 17.1634C24.5448 17.3625 24.8963 17.3625 25.0953 17.1634L25.8386 16.4217C25.9397 16.3206 26.075 16.2662 26.2134 16.2662L26.2119 16.2646Z" fill="black"/>
</g>
<defs>
<filter id="filter0_d_177_1070" x="0" y="0.64624" width="68" height="68" filterUnits="userSpaceOnUse" color-interpolation-filters="sRGB">
<feFlood flood-opacity="0" result="BackgroundImageFix"/>
<feColorMatrix in="SourceAlpha" type="matrix" values="0 0 0 0 0 0 0 0 0 0 0 0 0 0 0 0 0 0 127 0" result="hardAlpha"/>
<feOffset dy="2"/>
<feGaussianBlur stdDeviation="2"/>
<feComposite in2="hardAlpha" operator="out"/>
<feColorMatrix type="matrix" values="0 0 0 0 0 0 0 0 0 0 0 0 0 0 0 0 0 0 0.12 0"/>
<feBlend mode="normal" in2="BackgroundImageFix" result="effect1_dropShadow_177_1070"/>
<feBlend mode="normal" in="SourceGraphic" in2="effect1_dropShadow_177_1070" result="shape"/>
</filter>
</defs>
</svg>
