<svg width="68" height="69" viewBox="0 0 68 69" fill="none" xmlns="http://www.w3.org/2000/svg">
<g filter="url(#filter0_d_177_1066)">
<rect x="4" y="2.64624" width="60" height="60" rx="30" fill="white"/>
<path fill-rule="evenodd" clip-rule="evenodd" d="M20.9498 24.8761C20.7782 25.1769 20.3947 25.2818 20.0939 25.1082C19.785 24.9306 19.6861 24.5551 19.8779 24.222L18.1822 22.0014C17.2253 20.7498 17.3424 19.0036 18.4547 17.8914L19.9465 16.3995C21.0588 15.2872 22.8071 15.1701 24.0566 16.127L26.2772 17.8248C27.5632 17.0839 28.9298 16.5167 30.3712 16.1291L30.7406 13.3634C30.9485 11.801 32.2688 10.6462 33.8393 10.6462H35.9489C37.5195 10.6462 38.8397 11.7989 39.0476 13.3634L39.417 16.1291C40.8584 16.5187 42.2231 17.086 43.511 17.8248L45.7316 16.127C46.9832 15.1701 48.7294 15.2872 49.8417 16.3995L51.3335 17.8914C52.4458 19.0036 52.5629 20.7519 51.606 22.0014L49.9103 24.222C50.6512 25.508 51.2184 26.8746 51.6081 28.316L54.3738 28.6854C55.9362 28.8954 57.0909 30.2136 57.0909 31.7842V33.8937C57.0909 35.4643 55.9382 36.7845 54.3738 36.9924L51.6061 37.3619C51.2165 38.8032 50.6492 40.1679 49.9104 41.4558L51.6082 43.6764C52.565 44.928 52.4479 46.6742 51.3356 47.7865L49.8438 49.2783C48.7315 50.3906 46.9833 50.5077 45.7337 49.5508L43.5131 47.8552C42.2272 48.596 40.8605 49.1633 39.4192 49.5508L39.0497 52.3165C38.8418 53.879 37.5216 55.0337 35.951 55.0337H33.8415C32.2709 55.0337 30.9506 53.881 30.7427 52.3165L30.3733 49.5488C29.5759 49.3328 28.7866 49.0583 28.0417 48.7373C27.7228 48.6 27.5754 48.2306 27.7127 47.9116C27.8499 47.5927 28.2194 47.4453 28.5383 47.5826C29.3256 47.9217 30.2482 48.2427 31.0759 48.4345C31.3262 48.491 31.5261 48.6969 31.5604 48.9654L31.9863 52.1529C32.1115 53.0896 32.8947 53.7739 33.8436 53.7739H35.9531C36.9019 53.7739 37.6852 53.0896 37.8103 52.1529L38.2343 48.9795C38.2625 48.7252 38.4462 48.5031 38.7107 48.4385C40.2207 48.0711 41.9124 47.3908 43.2225 46.5712C43.4385 46.4319 43.7272 46.4339 43.9432 46.5994L46.4989 48.5515C47.2498 49.1269 48.2895 49.0562 48.9597 48.386L50.4515 46.8942C51.1217 46.2239 51.1904 45.1843 50.617 44.4334L48.667 41.8817C48.5115 41.6819 48.4873 41.3992 48.6266 41.1711C49.4422 39.8307 50.1407 38.1935 50.5 36.6593C50.5565 36.409 50.7624 36.2091 51.0309 36.1748L54.2184 35.7488C55.1551 35.6237 55.8395 34.8404 55.8395 33.8916V31.7821C55.8395 30.8333 55.1551 30.05 54.2184 29.9248L51.045 29.5009C50.7907 29.4726 50.5686 29.2889 50.504 29.0245C50.1366 27.5145 49.4563 25.8228 48.6367 24.5126C48.4974 24.2966 48.4994 24.0079 48.6649 23.792L50.617 21.2363C51.1903 20.4853 51.1217 19.4457 50.4515 18.7755L48.9597 17.2836C48.2894 16.6134 47.2498 16.5448 46.4989 17.1181L43.9472 19.0682C43.7474 19.2236 43.4647 19.2478 43.2366 19.1085C41.8962 18.291 40.259 17.5945 38.7248 17.2352C38.4745 17.1787 38.2746 16.9727 38.2403 16.7043L37.8063 13.5248C37.6811 12.5881 36.8979 11.9038 35.949 11.9038H33.8395C32.8907 11.9038 32.1074 12.5881 31.9822 13.5248L31.5583 16.7002C31.5301 16.9546 31.3463 17.1767 31.0819 17.2413C29.5719 17.6087 27.8822 18.289 26.5721 19.1086C26.3561 19.2479 26.0674 19.2459 25.8514 19.0803L23.2957 17.1262C22.5448 16.5529 21.5051 16.6216 20.8349 17.2918L19.3431 18.7836C18.6729 19.4538 18.6042 20.4935 19.1776 21.2444L21.1276 23.7961C21.2831 23.9959 21.3073 24.2785 21.168 24.5066L20.9498 24.8761ZM37.9615 34.1318C38.9568 33.5565 38.9507 32.1272 37.9615 31.5539L33.3144 28.871C32.3192 28.2977 31.0797 29.0164 31.0797 30.159V35.5248C31.0797 36.6513 32.3031 37.3962 33.3144 36.8128L37.9615 34.1318ZM32.6866 35.7286L37.3337 33.0457C37.5275 32.9307 37.5174 32.7207 37.3337 32.6379L32.6866 29.9551C32.5292 29.8642 32.3374 29.9692 32.3374 30.159V35.5248C32.3374 35.7327 32.5514 35.8093 32.6866 35.7286ZM27.7692 27.3029C31.1021 23.0232 37.4326 22.6215 41.2745 26.4631C44.7971 29.9857 44.7971 35.7007 41.2745 39.2232C38.8015 41.6961 35.0952 42.5298 31.7903 41.3186C31.4653 41.1995 31.104 41.367 30.9848 41.6921C30.8657 42.0171 31.0333 42.3784 31.3583 42.4975C35.1293 43.8783 39.3443 42.9295 42.1623 40.1114C46.1775 36.0962 46.1775 29.588 42.1623 25.5725C37.7797 21.1899 30.579 21.6623 26.7816 26.5294C26.5696 26.8019 26.6181 27.1956 26.8906 27.4076C27.1631 27.6236 27.5552 27.5754 27.7692 27.3029Z" fill="black"/>
<path fill-rule="evenodd" clip-rule="evenodd" d="M25.6685 28.7964H12.0382C10.9134 28.7964 10 29.7088 10 30.8346C10 31.9603 10.9134 32.8737 12.0382 32.8737H16.234C17.1709 32.8737 18.068 33.2565 18.7304 33.9331C18.9019 34.1087 19.055 34.3005 19.1866 34.5047H12.0384C10.9137 34.5047 10.0002 35.4171 10.0002 36.5428C10.0002 37.6686 10.9137 38.582 12.0384 38.582H19.1866C19.055 38.7851 18.9019 38.977 18.7304 39.1526C18.068 39.8292 17.1709 40.213 16.234 40.213H12.0382C10.9134 40.213 10 41.1254 10 42.2511C10 43.3769 10.9134 44.2903 12.0382 44.2903H14.0324L23.32 51.9766C24.1865 52.6941 25.4725 52.5726 26.191 51.7061C26.9074 50.8386 26.787 49.5526 25.9195 48.8352L19.5171 43.5362C20.2989 43.1576 21.0195 42.6432 21.6431 42.0063C22.581 41.048 23.2485 39.8651 23.5934 38.5823H25.6683C26.7931 38.5823 27.7065 37.6688 27.7065 36.5431C27.7065 35.4174 26.7931 34.5049 25.6683 34.5049H23.5934C23.4414 33.9375 23.226 33.3904 22.9525 32.874H25.6685C26.7932 32.874 27.7066 31.9606 27.7066 30.8348C27.7066 29.7091 26.7932 28.7966 25.6685 28.7966L25.6685 28.7964ZM25.6685 29.6119C26.3431 29.6119 26.8911 30.1589 26.8911 30.8346C26.8911 31.5102 26.3431 32.0583 25.6685 32.0583H22.2381C22.0881 32.0583 21.9503 32.1399 21.8789 32.2716C21.8075 32.4043 21.8156 32.5645 21.8973 32.689C22.3596 33.3922 22.6913 34.1771 22.876 35.0017C22.9179 35.1875 23.0832 35.3202 23.2741 35.3202H25.6684C26.343 35.3202 26.8911 35.8672 26.8911 36.5429C26.8911 37.2185 26.343 37.7666 25.6684 37.7666H23.2741C23.0832 37.7666 22.9189 37.8983 22.876 38.085C22.5944 39.3435 21.9697 40.5069 21.0604 41.4356C20.3562 42.1542 19.5152 42.6981 18.5986 43.0431C18.4629 43.0952 18.3649 43.2146 18.3404 43.3574C18.317 43.5014 18.3711 43.6463 18.4823 43.7391L25.4001 49.4637C25.9196 49.8934 25.9931 50.666 25.5624 51.1855C25.1317 51.706 24.3601 51.7784 23.8396 51.3478L14.4389 43.5677C14.3664 43.5075 14.2735 43.4748 14.1796 43.4748H12.0384C11.3638 43.4748 10.8157 42.9268 10.8157 42.2511C10.8157 41.5755 11.3638 41.0284 12.0384 41.0284H16.2342C17.3896 41.0284 18.4959 40.5579 19.3134 39.7241C19.7083 39.3199 20.0206 38.8474 20.2381 38.333C20.2921 38.2064 20.2779 38.0625 20.2023 37.9492C20.1278 37.8349 20.0002 37.7665 19.8625 37.7665H12.0385C11.3639 37.7665 10.8158 37.2185 10.8158 36.5428C10.8158 35.8672 11.3639 35.3201 12.0385 35.3201H19.8625C20.0002 35.3201 20.1278 35.2507 20.2023 35.1374C20.2779 35.0231 20.2921 34.8792 20.2381 34.7527C20.0207 34.2383 19.7084 33.7657 19.3134 33.3626C18.4959 32.5287 17.3895 32.0582 16.2342 32.0582H12.0384C11.3638 32.0582 10.8157 31.5102 10.8157 30.8345C10.8157 30.1589 11.3638 29.6118 12.0384 29.6118L25.6685 29.6119Z" fill="black" stroke="black" stroke-width="0.5"/>
</g>
<defs>
<filter id="filter0_d_177_1066" x="0" y="0.64624" width="68" height="68" filterUnits="userSpaceOnUse" color-interpolation-filters="sRGB">
<feFlood flood-opacity="0" result="BackgroundImageFix"/>
<feColorMatrix in="SourceAlpha" type="matrix" values="0 0 0 0 0 0 0 0 0 0 0 0 0 0 0 0 0 0 127 0" result="hardAlpha"/>
<feOffset dy="2"/>
<feGaussianBlur stdDeviation="2"/>
<feComposite in2="hardAlpha" operator="out"/>
<feColorMatrix type="matrix" values="0 0 0 0 0 0 0 0 0 0 0 0 0 0 0 0 0 0 0.12 0"/>
<feBlend mode="normal" in2="BackgroundImageFix" result="effect1_dropShadow_177_1066"/>
<feBlend mode="normal" in="SourceGraphic" in2="effect1_dropShadow_177_1066" result="shape"/>
</filter>
</defs>
</svg>
