<svg width="68" height="69" viewBox="0 0 68 69" fill="none" xmlns="http://www.w3.org/2000/svg">
<g filter="url(#filter0_d_177_1064)">
<rect x="4" y="3.64624" width="60" height="60" rx="30" fill="white"/>
<path fill-rule="evenodd" clip-rule="evenodd" d="M13.0846 40.6946L21.2575 28.723C21.4243 28.4783 21.7524 28.4157 21.9942 28.5845C22.0186 28.6054 22.0448 28.6262 22.0692 28.6452L24.8229 31.4319C25.0197 31.6311 25.0291 31.9422 24.8585 32.1527L24.5455 32.608C25.2822 33.0215 26.0507 33.3535 26.8586 33.6096C27.8034 33.9112 28.7988 34.1047 29.8391 34.192C30.9957 33.5944 32.4054 33.0462 34.0662 32.5606C35.0016 32.1717 35.9651 32.0294 36.9605 32.1262C37.9259 32.2191 38.91 32.5397 39.9147 33.0879C40.7676 33.2416 41.5662 33.308 42.3085 33.2928C42.7884 33.2833 43.2476 33.2359 43.6826 33.1505L42.8446 31.8625C42.6928 31.6368 42.734 31.3257 42.9459 31.1473L46.3463 28.2791C46.3463 28.2791 46.3762 28.2545 46.3912 28.2431C46.6331 28.08 46.9667 28.1501 47.1242 28.3968L54.8829 40.3286C55.0497 40.5372 55.0403 40.8502 54.8417 41.0437L51.6643 44.2591C51.6643 44.2591 51.6137 44.3046 51.5781 44.3255C51.3363 44.4886 51.0026 44.4185 50.8452 44.1718L50.3859 43.4662C50.1028 43.8437 49.7598 44.187 49.3512 44.4887C48.8469 44.8662 48.2452 45.1886 47.5479 45.4542C47.6491 45.7464 47.6941 46.0518 47.6941 46.3591C47.6885 46.8903 47.5216 47.4176 47.1992 47.8672C46.8768 48.3168 46.4363 48.6393 45.9414 48.8138C45.6996 48.9011 45.4409 48.9466 45.1841 48.9561C45.1991 49.2273 45.1747 49.5024 45.1129 49.7642C44.991 50.2915 44.7249 50.781 44.3293 51.1698C43.9357 51.5587 43.4408 51.8148 42.9197 51.9267C42.6423 51.9836 42.3592 51.9988 42.0705 51.9723C42.0462 52.253 41.9787 52.5243 41.8793 52.7842C41.6881 53.2793 41.3751 53.7194 40.9439 54.0627C40.5203 54.4061 40.0198 54.6147 39.4987 54.6868C39.1763 54.7324 38.8463 54.7229 38.5239 54.6622C38.4283 54.9183 38.3009 55.1573 38.1453 55.3774C37.8716 55.7549 37.508 56.0717 37.0787 56.2917C36.6494 56.5118 36.1845 56.6142 35.714 56.6085C35.2435 56.6028 34.7786 56.4852 34.3606 56.2557C34.3456 56.2462 34.3306 56.2348 34.31 56.2253L31.9405 54.5844L30.4203 56.3638C30.349 56.4454 30.2628 56.4966 30.1728 56.5269C29.9498 56.599 29.7229 56.6351 29.5018 56.6446C28.9469 56.6654 28.4164 56.4909 27.9815 56.1798C27.5822 55.8934 27.2636 55.495 27.0873 55.0189C26.7293 55.1611 26.3544 55.2124 25.9907 55.182C25.6571 55.1573 25.3234 55.0587 25.0253 54.9013C24.7217 54.7419 24.4536 54.5333 24.238 54.2733C23.9906 53.9774 23.8032 53.6132 23.7132 53.2091C23.3945 53.2661 23.0871 53.2547 22.789 53.194C22.3147 53.0915 21.8799 52.8468 21.5368 52.5035C21.1975 52.1658 20.9463 51.7314 20.8395 51.2458C20.7795 50.9802 20.7645 50.7033 20.7945 50.4225C20.637 50.413 20.4814 50.3865 20.3352 50.3466C19.906 50.2347 19.5011 50.009 19.1786 49.6827C18.8506 49.3564 18.6238 48.9524 18.5113 48.518C18.3951 48.0836 18.3895 47.6188 18.5113 47.1692C18.5357 47.0668 18.5919 46.9852 18.6631 46.9188L19.5985 45.866C19.2199 45.5796 18.845 45.2267 18.4776 44.8075C18.0783 44.3522 17.6847 43.8154 17.3004 43.197L16.8111 43.9121C16.6443 44.1569 16.3163 44.2195 16.0744 44.0506C16.05 44.0298 16.0238 44.0089 15.9994 43.9899L13.1764 41.4025C12.9739 41.2185 12.944 40.9168 13.0958 40.6968L13.0846 40.6946ZM48.4495 14.3951V27.0724C48.4495 27.3683 48.2114 27.6092 47.919 27.6092H35.3917C35.0993 27.6092 34.8612 27.3683 34.8612 27.0724V24.5171C34.0326 24.3995 33.2903 24.0068 32.7242 23.434C32.0419 22.7434 31.6182 21.7874 31.6182 20.7289C31.6182 19.6704 32.0419 18.72 32.7242 18.0238C33.2903 17.4509 34.0327 17.062 34.8612 16.9406V14.3854C34.8612 14.0895 35.0992 13.8485 35.3917 13.8485H38.4116C38.704 13.8485 38.9421 14.0895 38.9421 14.3854C38.9421 15.1423 39.2458 15.8271 39.735 16.3279C40.2242 16.823 40.901 17.1303 41.6545 17.1303C42.4081 17.1303 43.0848 16.823 43.574 16.3279C44.0633 15.8328 44.367 15.148 44.367 14.3854C44.367 14.0895 44.605 13.8485 44.8975 13.8485H47.9174C48.2098 13.8485 48.4479 14.0895 48.4479 14.3854L48.4495 14.3951ZM47.3829 26.5299V14.9317H45.3921C45.2759 15.7702 44.8879 16.5214 44.3217 17.0943C43.6394 17.7848 42.6947 18.2135 41.6487 18.2135C40.6027 18.2135 39.6635 17.7848 38.9756 17.0943C38.4095 16.5214 38.0252 15.7702 37.9052 14.9317H35.9145V17.4471C35.9145 17.7431 35.6764 17.984 35.384 17.984C34.636 17.984 33.9593 18.2913 33.4644 18.7864C32.9752 19.2815 32.6715 19.9663 32.6715 20.7289C32.6715 21.4915 32.9752 22.1706 33.4644 22.6714C33.9537 23.1665 34.6304 23.4738 35.384 23.4738C35.6764 23.4738 35.9145 23.7147 35.9145 24.0106V26.526H47.3755L47.3829 26.5299ZM30.8908 14.465V17.5211C30.8908 17.817 30.6527 18.0579 30.3603 18.0579C29.6123 18.0579 28.9356 18.3653 28.4407 18.8603C27.9515 19.3554 27.6478 20.0403 27.6478 20.8028C27.6478 21.5654 27.9515 22.2502 28.4407 22.7453C28.93 23.2404 29.6067 23.5477 30.3603 23.5477C30.6527 23.5477 30.8908 23.7887 30.8908 24.0846V27.1406C30.8908 27.4366 30.6527 27.6775 30.3603 27.6775H27.3404C27.0479 27.6775 26.8099 27.4366 26.8099 27.1406C26.8099 26.3837 26.5062 25.6989 26.017 25.1981C25.5277 24.6974 24.851 24.3957 24.0974 24.3957C23.3439 24.3957 22.6728 24.703 22.1779 25.1981C21.6831 25.6932 21.385 26.3781 21.385 27.1406C21.385 27.4366 21.1469 27.6775 20.8545 27.6775H17.8346C17.5422 27.6775 17.3041 27.4366 17.3041 27.1406L17.3022 14.4649C17.3022 14.1689 17.5403 13.928 17.8327 13.928H20.1403C20.2565 13.0895 20.6445 12.3384 21.2107 11.7655C21.893 11.0749 22.8377 10.6462 23.8837 10.6462C24.9297 10.6462 25.8689 11.075 26.5568 11.7655C27.1229 12.3384 27.5072 13.0896 27.6272 13.928H30.3659C30.6583 13.928 30.8964 14.1689 30.8964 14.4649L30.8908 14.465ZM26.5868 14.465C26.5868 13.7082 26.2831 13.0233 25.7939 12.5225C25.3047 12.0275 24.6279 11.7202 23.8744 11.7202C23.1208 11.7202 22.4497 12.0275 21.9549 12.5225C21.4656 13.0176 21.162 13.7025 21.162 14.465C21.162 14.761 20.9239 15.0019 20.6314 15.0019H18.3576V26.6001H20.3484C20.4646 25.7616 20.8526 25.0104 21.4187 24.4375C22.1011 23.747 23.0458 23.3183 24.0918 23.3183C25.1378 23.3183 26.0769 23.747 26.7649 24.4375C27.331 25.0104 27.7153 25.7617 27.8353 26.6001H29.826V24.5855C28.9975 24.4679 28.2552 24.0752 27.6891 23.5023C27.0067 22.8118 26.5831 21.8558 26.5831 20.7973C26.5831 19.7387 27.0067 18.7884 27.6891 18.0922C28.2552 17.5193 28.9975 17.1304 29.826 17.009V14.9944H27.1229C26.8305 14.9944 26.5924 14.7535 26.5924 14.4576L26.5868 14.465ZM28.2195 35.0604C27.6478 34.9523 27.0929 34.8157 26.553 34.6412C25.6439 34.349 24.7741 33.9715 23.9474 33.4954L17.9619 42.2308C18.3968 42.9668 18.8354 43.5909 19.2703 44.0917C19.6133 44.4844 19.962 44.8069 20.305 45.0573L21.5872 43.6099C21.6435 43.5492 21.7128 43.498 21.7841 43.4714C22.6782 43.1091 23.4618 43.1034 24.1272 43.4467C24.6165 43.7028 25.027 44.1373 25.3494 44.7613C25.6325 44.6077 25.9399 44.5166 26.2529 44.4901C26.8078 44.4388 27.3852 44.5925 27.8651 44.9548C28.3449 45.3171 28.6524 45.8331 28.7592 46.3908C28.8005 46.6109 28.8155 46.8347 28.7948 47.0548C29.0067 47.0548 29.2147 47.0756 29.4153 47.1268C29.9458 47.2596 30.4351 47.5821 30.7743 48.0564C31.1174 48.5363 31.2636 49.1035 31.2242 49.6555C31.2149 49.8035 31.1886 49.9515 31.153 50.0956C31.1774 50.0956 31.2036 50.0956 31.228 50.1051C31.6573 50.162 32.0771 50.3347 32.4258 50.6268C32.7745 50.9189 33.0275 51.3021 33.1625 51.7156C33.2994 52.1349 33.32 52.5902 33.2075 53.034C33.1832 53.1308 33.1363 53.2123 33.0707 53.2787L32.647 53.7738L34.889 55.3274C35.1514 55.4659 35.4438 55.5361 35.7325 55.5418C36.0306 55.5418 36.3342 55.4811 36.6061 55.3369C36.8797 55.1984 37.1103 54.9936 37.2884 54.7489C37.4046 54.5895 37.4908 54.4112 37.5565 54.2215L33.4849 51.3685C33.2431 51.1997 33.1813 50.8677 33.3481 50.623C33.5149 50.3783 33.843 50.3157 34.0848 50.4845L38.4038 53.5102C38.7112 53.6335 39.0411 53.6695 39.3579 53.6221C39.6916 53.5766 40.014 53.4381 40.2877 53.2237C40.5614 53.0037 40.7676 52.7172 40.8894 52.4004C40.985 52.1501 41.03 51.8731 41.015 51.5981L35.397 47.7434C35.1552 47.5746 35.0896 47.2426 35.2564 46.9979C35.4233 46.7532 35.7513 46.6868 35.9931 46.8556L41.7575 50.8127C42.0649 50.9208 42.3892 50.9398 42.7023 50.8791C43.0247 50.8127 43.334 50.6495 43.5814 50.4086C43.8288 50.1639 43.9957 49.8566 44.0706 49.5303C44.1363 49.2534 44.1306 48.9631 44.0613 48.6824L37.1462 44.0405C36.9044 43.8773 36.8331 43.5454 36.9943 43.2949C37.1556 43.0502 37.4836 42.9781 37.7311 43.1413L44.7325 47.8382C45.0212 47.9046 45.3193 47.8894 45.5911 47.7927C45.8835 47.6902 46.1459 47.5005 46.3334 47.235C46.5246 46.9694 46.6221 46.6564 46.6258 46.3453C46.6258 46.0589 46.5546 45.7781 46.4028 45.522L36.2183 38.1352C35.3334 38.1504 34.5724 38.1504 33.9351 38.1352C33.3802 38.1257 32.9153 38.1048 32.5517 38.0783C31.187 39.3815 29.9292 40.1991 28.7726 40.5159C27.4792 40.8744 26.3282 40.6335 25.3178 39.795C25.1304 39.6357 25.076 39.3758 25.1716 39.1614C25.7377 37.8885 26.3039 36.9021 26.8643 36.2021C27.303 35.6501 27.7491 35.2669 28.2028 35.0525L28.2195 35.0604ZM46.9085 44.5548C47.6302 44.3101 48.2413 44.0028 48.7324 43.6348C49.1711 43.3086 49.516 42.9292 49.7672 42.5005L44.3215 34.1176C43.7047 34.2713 43.0487 34.3528 42.3419 34.368C41.519 34.3889 40.6286 34.3111 39.6857 34.1385C39.6201 34.1328 39.5489 34.1081 39.4889 34.0778C38.5854 33.577 37.71 33.281 36.872 33.1995C36.0435 33.1179 35.2412 33.2412 34.4633 33.5675C34.4633 33.5675 34.4277 33.5826 34.407 33.5883C32.1595 34.2428 30.4105 34.9997 29.1528 35.8571C29.0928 35.8989 29.0272 35.9235 28.956 35.9387C28.5717 36.0108 28.1574 36.3276 27.7075 36.8891C27.2633 37.4468 26.8078 38.2226 26.3391 39.2205C26.9858 39.6245 27.7075 39.7156 28.5117 39.4974C29.537 39.211 30.7049 38.4294 32.002 37.1566C32.1126 37.0484 32.2645 36.9877 32.4313 37.0029C32.8043 37.0446 33.3199 37.0693 33.9722 37.0788C34.6282 37.0883 35.4212 37.0883 36.3566 37.0731C36.4822 37.0636 36.6096 37.094 36.7202 37.1698L46.9081 44.5625L46.9085 44.5548ZM29.7398 55.5402L32.2104 52.6568C32.2404 52.4519 32.2254 52.2432 32.1598 52.0478C32.0848 51.8183 31.948 51.6134 31.7605 51.4541C31.5693 51.2947 31.3406 51.198 31.1082 51.1733C30.9057 51.1487 30.6995 51.1733 30.5064 51.2454L28.0152 54.3526C28.0246 54.4247 28.0452 54.4949 28.0658 54.5613C28.1614 54.8686 28.3582 55.1285 28.6113 55.3068C28.8643 55.4851 29.1661 55.5876 29.4848 55.5781C29.571 55.5781 29.6573 55.5629 29.7416 55.5477L29.7398 55.5402ZM29.7492 50.4678C29.7492 50.4678 29.7735 50.4375 29.7904 50.4223C30.0172 50.1871 30.1447 49.8854 30.1634 49.5781C30.184 49.2708 30.1034 48.954 29.916 48.6885C29.7248 48.4229 29.4567 48.2446 29.1587 48.1668C28.8963 48.1004 28.6076 48.1156 28.3451 48.2237L24.7291 52.6873C24.7348 53.0401 24.8604 53.3474 25.0572 53.5827C25.1884 53.7363 25.3459 53.8634 25.5164 53.9507C25.6889 54.0436 25.8857 54.0987 26.0826 54.1138C26.4219 54.1385 26.7743 54.0474 27.0835 53.797L29.751 50.4697L29.7492 50.4678ZM27.5728 47.4782C27.7246 47.2013 27.7696 46.8844 27.7096 46.5886C27.6497 46.2869 27.4828 46.0005 27.2241 45.807C26.9617 45.6078 26.6487 45.5262 26.3393 45.5566C26.0413 45.5812 25.7526 45.7159 25.5314 45.9493C25.5258 45.9587 25.5164 45.9644 25.5108 45.9701L21.9698 50.1112C21.833 50.4185 21.8123 50.7296 21.8742 51.0066C21.9398 51.2835 22.0804 51.5378 22.2828 51.7369C22.4797 51.9361 22.7327 52.0803 23.0101 52.141C23.2782 52.1979 23.5707 52.177 23.8593 52.048L27.5672 47.4725L27.5728 47.4782ZM24.521 45.494C24.283 44.9477 23.9905 44.5835 23.6475 44.4051C23.2895 44.2211 22.8396 44.2268 22.2941 44.426L19.516 47.5655C19.471 47.7912 19.4804 48.0264 19.5404 48.2408C19.606 48.4969 19.7428 48.7321 19.9284 48.9199C20.1196 49.1096 20.3521 49.2424 20.6051 49.3088C20.8076 49.36 21.025 49.3695 21.2369 49.3334L24.5211 45.4901L24.521 45.494ZM53.7996 40.5921L46.5769 29.4893L44.0012 31.6613L51.3871 43.0298L53.8015 40.5865L53.7996 40.5921ZM21.7732 29.8627L14.2261 40.9204L16.2769 42.7965L23.764 31.8777L21.7732 29.8627Z" fill="#393939"/>
</g>
<defs>
<filter id="filter0_d_177_1064" x="0" y="0.64624" width="68" height="68" filterUnits="userSpaceOnUse" color-interpolation-filters="sRGB">
<feFlood flood-opacity="0" result="BackgroundImageFix"/>
<feColorMatrix in="SourceAlpha" type="matrix" values="0 0 0 0 0 0 0 0 0 0 0 0 0 0 0 0 0 0 127 0" result="hardAlpha"/>
<feOffset dy="1"/>
<feGaussianBlur stdDeviation="2"/>
<feComposite in2="hardAlpha" operator="out"/>
<feColorMatrix type="matrix" values="0 0 0 0 0 0 0 0 0 0 0 0 0 0 0 0 0 0 0.12 0"/>
<feBlend mode="normal" in2="BackgroundImageFix" result="effect1_dropShadow_177_1064"/>
<feBlend mode="normal" in="SourceGraphic" in2="effect1_dropShadow_177_1064" result="shape"/>
</filter>
</defs>
</svg>
