<?xml version="1.0" encoding="UTF-8"?>
<svg id="Layer_1" data-name="Layer 1" xmlns="http://www.w3.org/2000/svg" xmlns:xlink="http://www.w3.org/1999/xlink" version="1.1" viewBox="0 0 545.48 172.99">
  <defs>
    <linearGradient id="ATD_2024_Gradient" data-name="ATD 2024 Gradient" x1="95.28" y1="147.23" x2="141.51" y2="20.23" gradientUnits="userSpaceOnUse">
      <stop offset="0" stop-color="#005b8e"/>
      <stop offset=".4" stop-color="#0b81bc"/>
      <stop offset=".89" stop-color="#85bf42"/>
    </linearGradient>
  </defs>
  <g>
    <path d="M222.68,73.44l-3.31,9.36h6.62l-3.31-9.36ZM229.61,93l-2.33-6.4h-9.18l-2.22,6.16h-4.61l9.11-24.38h4.96l8.9,23.78-4.64.84Z" fill="#4a545f" stroke-width="0"/>
    <path d="M242.87,93.08c-2.47,0-5-.78-6.61-1.65l.56-3.52c1.83,1.19,4.08,2,6.19,2,1.83,0,2.81-.67,2.81-1.76,0-1.2-.74-1.69-3.45-2.36-4.11-1.05-5.84-2.25-5.84-5.34,0-2.92,2.32-5,6.26-5,2.21,0,4.25.43,5.94,1.2l-.56,3.52c-1.69-.95-3.7-1.55-5.38-1.55-1.58,0-2.36.6-2.36,1.55s.64,1.41,3.17,2.07c4.4,1.13,6.12,2.32,6.12,5.52s-2.39,5.32-6.86,5.32" fill="#4a545f" stroke-width="0"/>
    <path d="M258.66,93.08c-2.46,0-4.99-.78-6.61-1.65l.57-3.52c1.83,1.19,4.08,2,6.19,2,1.83,0,2.82-.67,2.82-1.76,0-1.2-.74-1.69-3.45-2.36-4.12-1.05-5.84-2.25-5.84-5.34,0-2.92,2.32-5,6.26-5,2.22,0,4.25.43,5.94,1.2l-.56,3.52c-1.69-.95-3.69-1.55-5.38-1.55-1.58,0-2.36.6-2.36,1.55s.64,1.41,3.17,2.07c4.39,1.13,6.12,2.32,6.12,5.52s-2.39,5.32-6.87,5.32" fill="#4a545f" stroke-width="0"/>
    <path d="M275.93,78.9c-2.5,0-3.84,2.22-3.84,5.38s1.38,5.38,3.84,5.38c2.61,0,3.94-2.21,3.94-5.38s-1.41-5.38-3.94-5.38M275.93,93.11c-4.6,0-7.95-3.31-7.95-8.83s3.38-8.87,7.99-8.87,8.02,3.35,8.02,8.87-3.41,8.83-8.06,8.83" fill="#4a545f" stroke-width="0"/>
    <path d="M294.57,93.08c-4.71,0-8.05-3.17-8.05-8.73,0-5.91,3.69-8.94,8.2-8.94,2.28,0,3.97.6,5.3,1.44l-.6,3.8c-1.44-1.08-2.82-1.58-4.47-1.58-2.42,0-4.18,1.8-4.18,5.18s1.9,5.2,4.47,5.2c1.48,0,2.82-.39,4.4-1.61l.56,3.59c-1.72,1.19-3.48,1.65-5.63,1.65" fill="#4a545f" stroke-width="0"/>
    <path d="M303.75,92.76v-16.99h4.22v16.99h-4.22ZM305.9,72.91c-1.41,0-2.54-.99-2.54-2.39s1.12-2.46,2.54-2.46,2.5,1.01,2.5,2.46-1.13,2.39-2.5,2.39" fill="#4a545f" stroke-width="0"/>
    <path d="M321.73,84.28c-4.89.6-6.05,2.04-6.05,3.66,0,1.24.77,1.97,2.08,1.97,1.44,0,2.82-.67,3.98-1.83v-3.8ZM322.32,92.76l-.35-2.22c-1.37,1.44-3.13,2.57-5.66,2.57-2.89,0-4.82-1.76-4.82-4.72,0-4.11,3.37-5.91,10.23-6.58v-.49c0-1.83-1.06-2.53-2.92-2.53-1.97,0-3.84.56-5.67,1.37l-.53-3.37c1.98-.78,4.05-1.38,6.76-1.38,4.4,0,6.59,1.62,6.59,5.7v11.64h-3.63Z" fill="#4a545f" stroke-width="0"/>
    <path d="M336.6,93.04c-3.34,0-5.59-1.23-5.59-5.1v-8.72h-2.39v-3.45h2.39v-5.38l4.15-.63v6.02h3.48l.53,3.45h-4.01v8.03c0,1.37.64,2.11,2.26,2.11.48,0,.94-.03,1.33-.14l.53,3.55c-.67.14-1.44.28-2.68.28" fill="#4a545f" stroke-width="0"/>
    <path d="M342.62,92.76v-16.99h4.23v16.99h-4.23ZM344.76,72.91c-1.41,0-2.53-.99-2.53-2.39s1.12-2.46,2.53-2.46,2.5,1.01,2.5,2.46-1.12,2.39-2.5,2.39" fill="#4a545f" stroke-width="0"/>
    <path d="M358.37,78.9c-2.5,0-3.83,2.22-3.83,5.38s1.37,5.38,3.83,5.38c2.61,0,3.94-2.21,3.94-5.38s-1.41-5.38-3.94-5.38M358.37,93.11c-4.61,0-7.95-3.31-7.95-8.83s3.38-8.87,7.98-8.87,8.02,3.35,8.02,8.87-3.41,8.83-8.06,8.83" fill="#4a545f" stroke-width="0"/>
    <path d="M380.11,92.76v-11.12c0-1.48-.63-2.5-2.18-2.5-1.34,0-2.64.84-3.86,2.15v11.47h-4.23v-16.99h3.59l.39,2.39c1.58-1.52,3.38-2.75,5.66-2.75,3.17,0,4.86,1.94,4.86,5.1v12.25h-4.23Z" fill="#4a545f" stroke-width="0"/>
    <path d="M403.47,71.12c-1.45,0-2.22.63-2.22,2.15v2.5h3.24l.53,3.45h-3.77v13.54h-4.18v-13.54h-2.47v-3.45h2.47v-2.93c0-3.76,2.39-5.17,5.88-5.17.74,0,1.3.07,1.72.14l.57,3.44c-.42-.07-1.05-.14-1.76-.14" fill="#4a545f" stroke-width="0"/>
    <path d="M414.36,78.9c-2.49,0-3.83,2.22-3.83,5.38s1.37,5.38,3.83,5.38c2.6,0,3.94-2.21,3.94-5.38s-1.41-5.38-3.94-5.38M414.36,93.11c-4.6,0-7.95-3.31-7.95-8.83s3.38-8.87,7.98-8.87,8.02,3.35,8.02,8.87-3.41,8.83-8.06,8.83" fill="#4a545f" stroke-width="0"/>
    <path d="M430.05,83.01v9.74h-4.22v-16.99h3.59l.52,3.41c1.13-1.97,2.83-3.63,5.46-3.77l.66,4.18c-2.64.18-4.82,1.59-6.02,3.42" fill="#4a545f" stroke-width="0"/>
    <polygon points="223.45 110.22 223.45 130.45 218.77 130.45 218.77 110.22 211.56 110.22 211.56 106.17 230.41 106.17 231.08 110.22 223.45 110.22" fill="#4a545f" stroke-width="0"/>
    <path d="M239.17,121.97c-4.89.59-6.05,2.04-6.05,3.65,0,1.23.77,1.97,2.08,1.97,1.44,0,2.81-.67,3.97-1.83v-3.8ZM239.77,130.45l-.36-2.22c-1.37,1.44-3.13,2.57-5.66,2.57-2.88,0-4.82-1.76-4.82-4.71,0-4.11,3.38-5.91,10.24-6.58v-.49c0-1.83-1.05-2.53-2.92-2.53-1.97,0-3.84.55-5.66,1.37l-.53-3.38c1.97-.77,4.05-1.37,6.76-1.37,4.4,0,6.58,1.61,6.58,5.7v11.64h-3.62Z" fill="#4a545f" stroke-width="0"/>
    <polygon points="247.75 130.45 247.75 110.47 247.75 105.71 251.97 105.04 251.97 130.45 247.75 130.45" fill="#4a545f" stroke-width="0"/>
    <path d="M263.19,116.02c-1.68,0-3.06,1.33-3.37,4.11h6.75c-.28-2.63-1.34-4.11-3.38-4.11M270.65,122.78h-10.91c.21,3.31,1.97,4.75,4.57,4.75,2.18,0,3.98-.81,5.84-2.11l.49,3.31c-1.83,1.27-4.05,2.07-6.79,2.07-4.75,0-8.31-2.71-8.31-8.83,0-5.53,3.31-8.87,7.74-8.87,5.1,0,7.39,3.83,7.39,8.65,0,.36-.03.77-.03,1.02" fill="#4a545f" stroke-width="0"/>
    <path d="M284.37,130.45v-11.12c0-1.48-.64-2.49-2.19-2.49-1.33,0-2.64.84-3.87,2.14v11.47h-4.22v-17h3.59l.39,2.4c1.58-1.52,3.38-2.74,5.67-2.74,3.17,0,4.86,1.93,4.86,5.1v12.24h-4.22Z" fill="#4a545f" stroke-width="0"/>
    <path d="M299.29,130.72c-3.35,0-5.6-1.23-5.6-5.1v-8.72h-2.39v-3.45h2.39v-5.38l4.15-.63v6.01h3.48l.52,3.45h-4.01v8.02c0,1.37.64,2.11,2.25,2.11.49,0,.95-.04,1.34-.14l.53,3.56c-.67.14-1.45.28-2.68.28" fill="#4a545f" stroke-width="0"/>
    <path d="M321.03,110h-3.02v16.61h2.96c5.11,0,8.16-2.6,8.16-8.3s-3.23-8.31-8.09-8.31M321.07,130.45h-7.7v-24.28h7.7c8.45,0,12.8,4.96,12.8,12.1s-4.53,12.17-12.8,12.17" fill="#4a545f" stroke-width="0"/>
    <path d="M344.17,116.02c-1.7,0-3.06,1.33-3.38,4.11h6.76c-.29-2.63-1.34-4.11-3.38-4.11M351.62,122.78h-10.91c.21,3.31,1.97,4.75,4.57,4.75,2.18,0,3.98-.81,5.84-2.11l.49,3.31c-1.83,1.27-4.05,2.07-6.79,2.07-4.75,0-8.31-2.71-8.31-8.83,0-5.53,3.31-8.87,7.75-8.87,5.1,0,7.39,3.83,7.39,8.65,0,.36-.04.77-.04,1.02" fill="#4a545f" stroke-width="0"/>
    <polygon points="363.13 130.52 359.01 130.52 353.07 113.77 357.5 113.2 361.29 125.27 364.95 113.45 369.14 113.45 363.13 130.52" fill="#4a545f" stroke-width="0"/>
    <path d="M378.03,116.02c-1.68,0-3.05,1.33-3.37,4.11h6.75c-.28-2.63-1.34-4.11-3.38-4.11M385.49,122.78h-10.91c.22,3.31,1.97,4.75,4.58,4.75,2.18,0,3.97-.81,5.83-2.11l.49,3.31c-1.82,1.27-4.04,2.07-6.79,2.07-4.75,0-8.3-2.71-8.3-8.83,0-5.53,3.32-8.87,7.74-8.87,5.1,0,7.39,3.83,7.39,8.65,0,.36-.04.77-.04,1.02" fill="#4a545f" stroke-width="0"/>
    <polygon points="389.11 130.45 389.11 111.62 389.11 105.71 393.33 105.04 393.33 130.45 389.11 130.45" fill="#4a545f" stroke-width="0"/>
    <path d="M404.87,116.59c-2.5,0-3.83,2.21-3.83,5.38s1.38,5.37,3.83,5.37c2.6,0,3.94-2.22,3.94-5.37s-1.41-5.38-3.94-5.38M404.87,130.8c-4.61,0-7.95-3.31-7.95-8.83s3.38-8.87,7.99-8.87,8.02,3.34,8.02,8.87-3.41,8.83-8.06,8.83" fill="#4a545f" stroke-width="0"/>
    <path d="M424.39,116.83c-1.51,0-2.7.95-3.83,2.39v7.28c1.02.49,1.83.74,3.27.74,2.18,0,3.83-1.8,3.83-5.52,0-3.27-1.37-4.89-3.27-4.89M424.5,130.62c-1.62,0-2.92-.28-3.94-.67v6.4l-4.22.64v-23.54h3.59l.39,2.33c1.2-1.38,2.85-2.68,5.2-2.68,3.56,0,6.4,2.68,6.4,8.37,0,6.33-3.52,9.15-7.42,9.15" fill="#4a545f" stroke-width="0"/>
    <path d="M455.53,130.45v-11.12c0-1.48-.53-2.49-2.08-2.49-1.3,0-2.54.84-3.77,2.11v11.5h-4.22v-11.12c0-1.48-.55-2.49-2.11-2.49-1.3,0-2.53.84-3.76,2.11v11.5h-4.22v-17h3.59l.39,2.4c1.58-1.52,3.31-2.74,5.59-2.74,2.43,0,3.73,1.09,4.36,2.74,1.52-1.52,3.38-2.74,5.67-2.74,3.2,0,4.79,1.93,4.79,5.1v12.24h-4.22Z" fill="#4a545f" stroke-width="0"/>
    <path d="M470.72,116.02c-1.69,0-3.06,1.33-3.38,4.11h6.76c-.29-2.63-1.34-4.11-3.38-4.11M478.17,122.78h-10.9c.21,3.31,1.96,4.75,4.57,4.75,2.18,0,3.97-.81,5.83-2.11l.49,3.31c-1.83,1.27-4.04,2.07-6.78,2.07-4.75,0-8.3-2.71-8.3-8.83,0-5.53,3.31-8.87,7.74-8.87,5.1,0,7.39,3.83,7.39,8.65,0,.36-.04.77-.04,1.02" fill="#4a545f" stroke-width="0"/>
    <path d="M491.9,130.45v-11.12c0-1.48-.64-2.49-2.18-2.49-1.34,0-2.64.84-3.87,2.14v11.47h-4.23v-17h3.59l.39,2.4c1.58-1.52,3.37-2.74,5.66-2.74,3.16,0,4.85,1.93,4.85,5.1v12.24h-4.21Z" fill="#4a545f" stroke-width="0"/>
    <path d="M506.81,130.72c-3.34,0-5.59-1.23-5.59-5.1v-8.72h-2.4v-3.45h2.4v-5.38l4.15-.63v6.01h3.48l.52,3.45h-4.01v8.02c0,1.37.63,2.11,2.25,2.11.49,0,.95-.04,1.34-.14l.53,3.56c-.67.14-1.45.28-2.67.28" fill="#4a545f" stroke-width="0"/>
  </g>
  <path d="M52.45,114.35c0-4.44,5.05-7.92,17.43-11.5v18.36c-1.6.78-3.87,1.23-6.44,1.23-6.95,0-10.99-2.33-10.99-8.09M149.18,100.29c0-10.27,7.49-18.47,18.2-21.48v41.29c-1.43.53-3.04.89-5.39.89-8.88,0-12.81-7.54-12.81-20.69M184.83,36s-8.88,1.68-17.44,4.36v26.3c-25.05,5.74-48.87,11.92-48.87,11.92l-.04-27.23s-8.6,1.69-17.55,4.39v27.28l-15.75,3.88c-3.35-10.72-12.07-17.69-22.74-17.69s-18.58,2.83-22.86,4.63c0,0,.67,2.4,1.72,5.09,1.05,2.68,2.14,4.9,2.14,4.9,3.92-1.79,9.85-3.72,15.75-3.72s10.8,4.39,10.8,10.5c-20.78,4.7-33.99,11.32-33.99,22.37,0,12.61,8.99,19.13,26.55,19.13,10.45,0,18.7-1.81,23.75-4.5l-.02-30.36,14.62-4.95.02,22.03c0,9.32,5.51,17.54,18.24,17.54,4.04,0,7.18-1.01,8.67-1.69,0,0,.2-2.17.2-5.45s-.2-5.34-.2-5.34c-1.5.45-2.27.68-3.71.68-3.95,0-5.64-2.49-5.64-7.09v-26.65s12.38-4.35,24.36-8.3c-8.27,4.53-11.01,17.26-11.01,24.67,0,20.26,11.46,29.42,29.81,29.42,10.45,0,17.53-2.18,23.18-4.5V36Z" fill="url(#ATD_2024_Gradient)" stroke-width="0"/>
</svg>