<?xml version="1.0" encoding="utf-8"?>
<!-- Generator: Adobe Illustrator 23.0.1, SVG Export Plug-In . SVG Version: 6.00 Build 0)  -->
<svg version="1.1" id="Layer_1" xmlns="http://www.w3.org/2000/svg" xmlns:xlink="http://www.w3.org/1999/xlink" x="0px" y="0px"
	 width="249.2px" height="130.7px" viewBox="0 0 249.2 130.7" style="enable-background:new 0 0 249.2 130.7;" xml:space="preserve"
	>
<style type="text/css">
	.st0{fill:#FFFFFF;}
	.st1{fill:#FAA41A;}
</style>
<g>
	<g>
		<g>
			<path class="st0" d="M8,124.7L7.8,127c-0.6,0.4-1.9,0.6-2.9,0.6c-3.2,0-4.9-1.5-4.9-4.7c0-1.5,0.4-2.7,1.2-3.5
				c0.8-0.9,2.1-1.4,3.7-1.4c1.2,0,2.2,0.2,2.8,0.5v2.1H7.3c-0.3-1.5-1.1-2.2-2.5-2.2c-2.5,0-3.2,2.2-3.2,4.3c0,1.6,0.5,4.3,3.2,4.3
				c1.7,0,2.3-1,2.7-2.4H8z"/>
			<path class="st0" d="M15.5,124.2c0,2.1-1,3.4-3.2,3.4c-2.1,0-3.2-1.3-3.2-3.4c0-2.1,1.1-3.4,3.2-3.4
				C14.5,120.7,15.5,122,15.5,124.2 M12.3,127.1c1.2,0,1.8-1.1,1.8-2.9c0-1.8-0.6-2.9-1.8-2.9c-1.2,0-1.8,1.1-1.8,2.9
				C10.6,126,11.1,127.1,12.3,127.1"/>
			<path class="st0" d="M22.8,126.2c0,0.7,0.1,0.7,1,0.8v0.4h-3.2V127c0.9-0.1,1-0.1,1-0.8v-3.1c0-1.1-0.5-1.6-1.4-1.6
				c-0.7,0-1.3,0.4-1.5,0.9c-0.1,0.2-0.1,0.4-0.1,0.7v3c0,0.7,0.1,0.7,1,0.8v0.4h-3.2V127c0.9-0.1,1-0.1,1-0.8v-4
				c0-0.5-0.1-0.6-0.4-0.6l-0.5-0.1v-0.4l2-0.3l0.2,1c0.8-0.5,1.4-1,2.4-1c1.2,0,2,0.8,2,2.1V126.2z"/>
			<path class="st0" d="M31.3,126.2c0,0.7,0.1,0.7,1,0.8v0.4H29V127c0.9-0.1,1-0.1,1-0.8v-3.1c0-1.1-0.5-1.6-1.4-1.6
				c-0.7,0-1.3,0.4-1.5,0.9c-0.1,0.2-0.1,0.4-0.1,0.7v3c0,0.7,0.1,0.7,1,0.8v0.4h-3.2V127c0.9-0.1,1-0.1,1-0.8v-4
				c0-0.5-0.1-0.6-0.4-0.6l-0.5-0.1v-0.4l2-0.3l0.2,1c0.8-0.5,1.4-1,2.4-1c1.2,0,2,0.8,2,2.1V126.2z"/>
			<path class="st0" d="M34.4,123.9c0,1.4,0.3,2.9,1.9,2.9c1,0,1.5-0.6,1.9-1.4l0.4,0.2c-0.4,1.1-1.1,1.9-2.6,1.9
				c-2.2,0-3.1-1.3-3.1-3.4c0-2,1-3.5,3-3.5c2.4,0,2.7,1.9,2.7,2.7c0,0.4-0.3,0.5-0.5,0.5H34.4z M36.8,123.4c0.4,0,0.4-0.2,0.4-0.4
				c0-0.5-0.1-1.8-1.3-1.8c-1.3,0-1.5,1.6-1.5,2.2H36.8z"/>
			<path class="st0" d="M45.5,125.6c-0.4,1.4-1.6,1.9-2.6,1.9c-2,0-3.1-1.1-3.1-3.3c0-1.8,0.8-3.5,3.2-3.5c1.4,0,2.3,0.7,2.3,1.3
				c0,0.5-0.5,0.7-0.8,0.7c-0.3,0-0.3-0.1-0.4-0.3c-0.3-0.7-0.6-1.1-1.2-1.1c-0.9,0-1.7,0.8-1.7,2.7c0,1.3,0.4,2.9,1.9,2.9
				c1,0,1.5-0.5,1.9-1.4L45.5,125.6z"/>
			<path class="st0" d="M48.5,121.5v4c0,1,0.4,1.3,0.9,1.3c0.3,0,0.5,0,0.8-0.2l0.1,0.4c-0.4,0.3-1,0.6-1.6,0.6
				c-0.5,0-1.5-0.2-1.5-1.5v-4.5h-0.9v-0.6h1l0.8-1.7h0.4v1.7h1.7v0.6H48.5z"/>
			<path class="st0" d="M52,122.2c0-0.5-0.1-0.6-0.4-0.6l-0.5-0.1v-0.4l2.1-0.3l0.1,0.1v5.4c0,0.7,0,0.7,1,0.8v0.4H51V127
				c0.9-0.1,1-0.1,1-0.8V122.2z M53.5,118.9c0,0.5-0.3,0.8-0.8,0.8c-0.5,0-0.8-0.3-0.8-0.8c0-0.5,0.3-0.9,0.8-0.9
				C53.1,118,53.5,118.4,53.5,118.9"/>
			<path class="st0" d="M61.8,126.2c0,0.7,0.1,0.7,1,0.8v0.4h-3.2V127c0.9-0.1,1-0.1,1-0.8v-3.1c0-1.1-0.5-1.6-1.4-1.6
				c-0.7,0-1.3,0.4-1.5,0.9c-0.1,0.2-0.1,0.4-0.1,0.7v3c0,0.7,0.1,0.7,1,0.8v0.4h-3.2V127c0.9-0.1,1-0.1,1-0.8v-4
				c0-0.5-0.1-0.6-0.4-0.6l-0.5-0.1v-0.4l2-0.3l0.2,1c0.8-0.5,1.4-1,2.4-1c1.2,0,2,0.8,2,2.1V126.2z"/>
			<path class="st0" d="M69.7,120.7l0.1,0.1l-0.3,0.8h-1.1c0.2,0.2,0.4,0.7,0.4,1.3c0,1.6-1.4,2.1-2.7,2.1c-0.2,0-0.5,0-0.7-0.1
				c-0.2,0.1-0.6,0.2-0.6,0.6c0,0.2,0.1,0.6,1.1,0.6h1.2c1.4,0,2.4,0.5,2.4,1.9c0,0.9-0.5,1.6-1.1,2c-0.6,0.4-1.3,0.5-2.2,0.5
				c-1.6,0-2.9-0.6-2.9-2c0-0.9,1-1.3,1.5-1.5v0c-0.6-0.1-1.2-0.6-1.2-1.1c0-0.5,0.4-0.9,1.2-1.2v0c-0.6-0.2-1.4-0.7-1.4-2
				c0-1,0.7-2.2,2.8-2.2c0.6,0,1.3,0.2,1.7,0.4L69.7,120.7z M68.4,128.6c0-1-0.7-1.3-2-1.3c-0.8,0-1.2,0.1-1.4,0.3
				c-0.3,0.2-0.4,0.5-0.4,0.9c0,1,0.9,1.6,2.1,1.6C67.5,130.2,68.4,129.7,68.4,128.6 M64.9,123c0,1.1,0.6,1.6,1.3,1.6
				c0.8,0,1.3-0.6,1.3-1.6c0-1.3-0.6-1.7-1.3-1.7C65.6,121.2,64.9,121.7,64.9,123"/>
			<path class="st0" d="M73.1,127.4V127c1.2-0.1,1.2-0.1,1.2-0.8v-6.6c0-0.7,0-0.8-1.2-0.8v-0.4h3.7c0.9,0,1.8,0.1,2.4,0.5
				c0.6,0.4,1,1.1,1,2.1c0,1.6-0.9,2.4-2,2.7c-0.5,0.2-1.1,0.2-1.5,0.2c-0.4,0-0.9-0.1-1.1-0.1v2.5c0,0.7,0,0.8,1.4,0.8v0.4H73.1z
				 M75.7,122.7c0,0.4,0.4,0.5,1.2,0.5c1.2,0,1.9-0.7,1.9-2.3c0-1.4-0.8-2.2-2.1-2.2c-0.9,0-1,0.1-1,0.5V122.7z"/>
			<path class="st0" d="M82.5,123.9c0,1.4,0.3,2.9,1.9,2.9c1,0,1.5-0.6,1.9-1.4l0.4,0.2c-0.4,1.1-1.1,1.9-2.6,1.9
				c-2.2,0-3.1-1.3-3.1-3.4c0-2,1-3.5,3-3.5c2.4,0,2.7,1.9,2.7,2.7c0,0.4-0.3,0.5-0.5,0.5H82.5z M85,123.4c0.4,0,0.4-0.2,0.4-0.4
				c0-0.5-0.1-1.8-1.3-1.8c-1.3,0-1.5,1.6-1.5,2.2H85z"/>
			<path class="st0" d="M94.4,124.2c0,2.1-1,3.4-3.2,3.4c-2.1,0-3.2-1.3-3.2-3.4c0-2.1,1.1-3.4,3.2-3.4
				C93.3,120.7,94.4,122,94.4,124.2 M91.2,127.1c1.2,0,1.8-1.1,1.8-2.9c0-1.8-0.6-2.9-1.8-2.9c-1.2,0-1.8,1.1-1.8,2.9
				C89.4,126,90,127.1,91.2,127.1"/>
			<path class="st0" d="M96,122.1c0-0.5-0.1-0.5-0.4-0.6l-0.5-0.1v-0.4l2-0.3l0.2,1c0.5-0.3,1.3-1,2.2-1c2.3,0,2.6,2.2,2.6,3.3
				c0,2.7-1.5,3.6-3.3,3.6c-0.6,0-1.2-0.1-1.5-0.3v2c0,0.7,0.1,0.7,1.2,0.8v0.4H95v-0.4c0.9-0.1,1-0.1,1-0.8V122.1z M97.3,125.3
				c0,0.3,0,0.6,0.1,0.8c0.2,0.6,0.7,0.9,1.4,0.9c1.3,0,1.9-1.1,1.9-3c0-2.3-1.1-2.6-1.7-2.6c-0.7,0-1.3,0.3-1.5,0.9
				c-0.1,0.2-0.2,0.4-0.2,0.7V125.3z"/>
			<path class="st0" d="M103.7,118.9c0-0.5-0.1-0.6-0.4-0.6l-0.5,0v-0.4l2.1-0.3l0.1,0.1v8.6c0,0.7,0.1,0.7,1,0.8v0.4h-3.3V127
				c0.9-0.1,1-0.1,1-0.8V118.9z"/>
			<path class="st0" d="M108.1,123.9c0,1.4,0.3,2.9,1.9,2.9c1,0,1.5-0.6,1.9-1.4l0.4,0.2c-0.4,1.1-1.1,1.9-2.6,1.9
				c-2.2,0-3.1-1.3-3.1-3.4c0-2,1-3.5,3-3.5c2.4,0,2.7,1.9,2.7,2.7c0,0.4-0.3,0.5-0.5,0.5H108.1z M110.6,123.4
				c0.4,0,0.4-0.2,0.4-0.4c0-0.5-0.1-1.8-1.3-1.8c-1.3,0-1.5,1.6-1.5,2.2H110.6z"/>
			<path class="st0" d="M113.6,126.7c0-0.5,0.3-0.9,0.8-0.9c0.5,0,0.9,0.4,0.9,0.9c0,0.5-0.3,0.9-0.9,0.9
				C114,127.5,113.6,127.2,113.6,126.7"/>
			<path class="st0" d="M126.6,124.7l-0.2,2.3c-0.6,0.4-1.9,0.6-2.9,0.6c-3.2,0-4.9-1.5-4.9-4.7c0-1.5,0.4-2.7,1.2-3.5
				c0.8-0.9,2.1-1.4,3.7-1.4c1.2,0,2.2,0.2,2.8,0.5v2.1h-0.5c-0.3-1.5-1.1-2.2-2.5-2.2c-2.5,0-3.2,2.2-3.2,4.3
				c0,1.6,0.5,4.3,3.2,4.3c1.7,0,2.3-1,2.7-2.4H126.6z"/>
			<path class="st0" d="M128.5,118.9c0-0.5-0.1-0.5-0.4-0.6l-0.5-0.1v-0.4l2.1-0.3l0.1,0.1v4.2c0.8-0.5,1.4-1,2.4-1
				c1.2,0,2,0.8,2,2.1v3.3c0,0.6,0.1,0.7,1,0.8v0.4h-3.2V127c0.9-0.1,1-0.1,1-0.8v-3.1c0-1.1-0.5-1.6-1.4-1.6c-0.7,0-1.3,0.4-1.6,1
				c-0.1,0.2-0.1,0.4-0.1,0.7v3c0,0.6,0.1,0.7,1,0.8v0.4h-3.2V127c0.9-0.1,1-0.1,1-0.8V118.9z"/>
			<path class="st0" d="M141.1,125.6c0,0.8,0.2,1.1,0.4,1.1c0.1,0,0.3,0,0.5,0l0.1,0.4c-0.3,0.2-0.9,0.4-1.4,0.4
				c-0.5,0-0.7-0.3-0.9-0.8c-0.4,0.3-1.1,0.8-2,0.8c-1.3,0-1.9-0.9-1.9-1.9c0-0.6,0.3-1.3,1.2-1.6c1-0.3,2.3-0.7,2.7-1v-0.4
				c0-1-0.5-1.4-1.2-1.4c-0.5,0-1,0.3-1.3,1.3c-0.1,0.2-0.2,0.4-0.4,0.4c-0.3,0-0.7-0.2-0.7-0.6c0-0.7,1.1-1.5,2.6-1.5
				c2,0,2.3,1,2.3,1.8V125.6z M139.9,123.6c-0.3,0.2-1,0.4-1.5,0.6c-0.7,0.3-1,0.6-1,1.2c0,0.8,0.4,1.3,1.2,1.3
				c0.5,0,1.3-0.3,1.3-1.3V123.6z"/>
			<path class="st0" d="M149.6,126.2c0,0.7,0.1,0.7,1,0.8v0.4h-3.2V127c0.9-0.1,1-0.1,1-0.8v-3.1c0-1.1-0.5-1.6-1.4-1.6
				c-0.7,0-1.3,0.4-1.5,0.9c-0.1,0.2-0.1,0.4-0.1,0.7v3c0,0.7,0.1,0.7,1,0.8v0.4H143V127c0.9-0.1,1-0.1,1-0.8v-4
				c0-0.5-0.1-0.6-0.4-0.6l-0.5-0.1v-0.4l2-0.3l0.2,1c0.8-0.5,1.4-1,2.4-1c1.2,0,2,0.8,2,2.1V126.2z"/>
			<path class="st0" d="M157.5,120.7l0.1,0.1l-0.3,0.8h-1.1c0.2,0.2,0.4,0.7,0.4,1.3c0,1.6-1.4,2.1-2.7,2.1c-0.2,0-0.5,0-0.7-0.1
				c-0.2,0.1-0.6,0.2-0.6,0.6c0,0.2,0.1,0.6,1.1,0.6h1.2c1.4,0,2.4,0.5,2.4,1.9c0,0.9-0.5,1.6-1.1,2c-0.6,0.4-1.3,0.5-2.2,0.5
				c-1.6,0-2.9-0.6-2.9-2c0-0.9,1-1.3,1.5-1.5v0c-0.6-0.1-1.2-0.6-1.2-1.1c0-0.5,0.4-0.9,1.2-1.2v0c-0.6-0.2-1.4-0.7-1.4-2
				c0-1,0.7-2.2,2.8-2.2c0.6,0,1.3,0.2,1.7,0.4L157.5,120.7z M156.3,128.6c0-1-0.7-1.3-2-1.3c-0.8,0-1.2,0.1-1.4,0.3
				c-0.3,0.2-0.4,0.5-0.4,0.9c0,1,0.9,1.6,2.1,1.6C155.4,130.2,156.3,129.7,156.3,128.6 M152.8,123c0,1.1,0.6,1.6,1.3,1.6
				c0.8,0,1.3-0.6,1.3-1.6c0-1.3-0.6-1.7-1.3-1.7C153.4,121.2,152.8,121.7,152.8,123"/>
			<path class="st0" d="M159.4,122.2c0-0.5-0.1-0.6-0.4-0.6l-0.5-0.1v-0.4l2.1-0.3l0.1,0.1v5.4c0,0.7,0,0.7,1,0.8v0.4h-3.3V127
				c0.9-0.1,1-0.1,1-0.8V122.2z M160.8,118.9c0,0.5-0.3,0.8-0.8,0.8c-0.5,0-0.8-0.3-0.8-0.8c0-0.5,0.3-0.9,0.8-0.9
				C160.5,118,160.8,118.4,160.8,118.9"/>
			<path class="st0" d="M169.1,126.2c0,0.7,0.1,0.7,1,0.8v0.4h-3.2V127c0.9-0.1,1-0.1,1-0.8v-3.1c0-1.1-0.5-1.6-1.4-1.6
				c-0.7,0-1.3,0.4-1.5,0.9c-0.1,0.2-0.1,0.4-0.1,0.7v3c0,0.7,0.1,0.7,1,0.8v0.4h-3.2V127c0.9-0.1,1-0.1,1-0.8v-4
				c0-0.5-0.1-0.6-0.4-0.6l-0.5-0.1v-0.4l2-0.3l0.2,1c0.8-0.5,1.4-1,2.4-1c1.2,0,2,0.8,2,2.1V126.2z"/>
			<path class="st0" d="M177.1,120.7l0.1,0.1l-0.3,0.8h-1.1c0.2,0.2,0.4,0.7,0.4,1.3c0,1.6-1.4,2.1-2.7,2.1c-0.2,0-0.5,0-0.7-0.1
				c-0.2,0.1-0.6,0.2-0.6,0.6c0,0.2,0.1,0.6,1.1,0.6h1.2c1.4,0,2.4,0.5,2.4,1.9c0,0.9-0.5,1.6-1.1,2c-0.6,0.4-1.3,0.5-2.2,0.5
				c-1.6,0-2.9-0.6-2.9-2c0-0.9,1-1.3,1.5-1.5v0c-0.6-0.1-1.2-0.6-1.2-1.1c0-0.5,0.4-0.9,1.2-1.2v0c-0.6-0.2-1.4-0.7-1.4-2
				c0-1,0.7-2.2,2.8-2.2c0.6,0,1.3,0.2,1.7,0.4L177.1,120.7z M175.8,128.6c0-1-0.7-1.3-2-1.3c-0.8,0-1.2,0.1-1.4,0.3
				c-0.3,0.2-0.4,0.5-0.4,0.9c0,1,0.9,1.6,2.1,1.6C174.9,130.2,175.8,129.7,175.8,128.6 M172.3,123c0,1.1,0.6,1.6,1.3,1.6
				c0.8,0,1.3-0.6,1.3-1.6c0-1.3-0.6-1.7-1.3-1.7C172.9,121.2,172.3,121.7,172.3,123"/>
			<path class="st0" d="M183.1,121.5v4c0,1,0.4,1.3,0.9,1.3c0.3,0,0.5,0,0.8-0.2l0.1,0.4c-0.4,0.3-1,0.6-1.6,0.6
				c-0.5,0-1.5-0.2-1.5-1.5v-4.5h-0.9v-0.6h1l0.8-1.7h0.4v1.7h1.7v0.6H183.1z"/>
			<path class="st0" d="M186.6,118.9c0-0.5-0.1-0.5-0.4-0.6l-0.5-0.1v-0.4l2.1-0.3l0.1,0.1v4.2c0.8-0.5,1.4-1,2.4-1
				c1.2,0,2,0.8,2,2.1v3.3c0,0.6,0.1,0.7,1,0.8v0.4h-3.2V127c0.9-0.1,1-0.1,1-0.8v-3.1c0-1.1-0.5-1.6-1.4-1.6c-0.7,0-1.3,0.4-1.6,1
				c-0.1,0.2-0.1,0.4-0.1,0.7v3c0,0.6,0.1,0.7,1,0.8v0.4h-3.2V127c0.9-0.1,1-0.1,1-0.8V118.9z"/>
			<path class="st0" d="M195.3,123.9c0,1.4,0.3,2.9,1.9,2.9c1,0,1.5-0.6,1.9-1.4l0.4,0.2c-0.4,1.1-1.1,1.9-2.6,1.9
				c-2.2,0-3.1-1.3-3.1-3.4c0-2,1-3.5,3-3.5c2.4,0,2.7,1.9,2.7,2.7c0,0.4-0.3,0.5-0.5,0.5H195.3z M197.7,123.4
				c0.4,0,0.4-0.2,0.4-0.4c0-0.5-0.1-1.8-1.3-1.8c-1.3,0-1.5,1.6-1.5,2.2H197.7z"/>
			<path class="st0" d="M215.4,118.2v0.4c-0.8,0.1-1,0.1-1.2,0.9c-0.7,2.3-1.6,5.4-2.2,7.9h-1.1c-0.7-2.3-1.4-4.7-2.2-7.2h0
				c-0.5,1.8-1.4,5.2-2,7.2h-1.1c-0.7-2.7-1.4-5.3-2.2-7.9c-0.2-0.7-0.3-0.8-1.1-0.8v-0.4h3.4v0.4l-0.7,0.1c-0.3,0-0.4,0.1-0.3,0.5
				c0.5,2.1,1.1,4.3,1.8,6.5h0c0.7-2.4,1.4-5.2,2-7.3h1c0.7,2.4,1.5,4.9,2.2,7.3h0c0.5-1.8,1.3-4.6,1.7-6.5c0.1-0.3,0-0.5-0.3-0.5
				l-0.8-0.1v-0.4H215.4z"/>
			<path class="st0" d="M221.3,124.2c0,2.1-1,3.4-3.2,3.4c-2.1,0-3.2-1.3-3.2-3.4c0-2.1,1.1-3.4,3.2-3.4
				C220.3,120.7,221.3,122,221.3,124.2 M218.1,127.1c1.2,0,1.8-1.1,1.8-2.9c0-1.8-0.6-2.9-1.8-2.9c-1.2,0-1.8,1.1-1.8,2.9
				C216.4,126,217,127.1,218.1,127.1"/>
			<path class="st0" d="M224.3,126.2c0,0.7,0.1,0.7,1.2,0.8v0.4h-3.5V127c0.9-0.1,1-0.1,1-0.8v-4c0-0.5-0.1-0.6-0.4-0.6l-0.5-0.1
				v-0.4l2.1-0.3l0.2,1.1c0.9-0.8,1.3-1.1,1.7-1.1c0.5,0,0.7,0.4,0.7,0.7c0,0.4-0.3,0.8-0.6,0.8c-0.1,0-0.2,0-0.3-0.1
				c-0.3-0.3-0.5-0.3-0.8-0.3c-0.3,0-0.8,0.4-0.8,1.3V126.2z"/>
			<path class="st0" d="M228,118.9c0-0.5-0.1-0.6-0.4-0.6l-0.5,0v-0.4l2.1-0.3l0.1,0.1v8.6c0,0.7,0.1,0.7,1,0.8v0.4H227V127
				c0.9-0.1,1-0.1,1-0.8V118.9z"/>
			<path class="st0" d="M235.3,118.3l-0.6-0.1v-0.4l2.2-0.3l0.1,0.1v8.6c0,0.7,0.1,0.7,1,0.7v0.5h-2.3v-0.7
				c-0.7,0.6-1.4,0.9-2.1,0.9c-1.8,0-2.7-1.3-2.7-3.3c0-1.2,0.3-2,0.9-2.6c0.6-0.6,1.4-0.9,2.4-0.9c0.6,0,1.1,0.1,1.4,0.3v-2.2
				C235.8,118.4,235.7,118.3,235.3,118.3 M235.8,122.8c0-0.4,0-0.5-0.1-0.8c-0.2-0.5-0.7-0.8-1.3-0.8c-1.3,0-1.9,1.2-1.9,2.9
				c0,1.5,0.6,2.7,1.8,2.7c0.7,0,1.2-0.3,1.5-0.9c0.1-0.2,0.1-0.4,0.1-0.7V122.8z"/>
			<path class="st0" d="M239.2,126.7c0-0.5,0.3-0.9,0.8-0.9c0.5,0,0.9,0.4,0.9,0.9c0,0.5-0.3,0.9-0.9,0.9
				C239.5,127.5,239.2,127.2,239.2,126.7"/>
			<path class="st0" d="M44.5,112.7C33.4,96.9,22.6,81.1,11.3,65.3h-0.2v30.8c0,4.4,0.2,7.4,0.5,10c0.5,3.4,2.9,3.6,8.1,4v2.6H0
				v-2.6c4.1-0.3,6.4-0.7,6.9-4c0.3-2.6,0.5-5.6,0.5-10V65.6c0-4.5-0.2-4.6-7.1-5v-2.7h15.5c8.9,12.7,20.2,29,30.5,43.4l0.1,0.2
				V74.5c0-4.4-0.2-7.4-0.5-10c-0.5-3.4-3-3.6-8.1-3.9v-2.7h19.7v2.7c-4.1,0.3-6.2,0.5-6.7,3.9c-0.3,2.7-0.5,5.6-0.5,10v38.2H44.5z"
				/>
			<path class="st0" d="M146.3,57.9v13.3h-2.7c-1.2-8.1-2.9-10.3-12.1-10.3h-7.2c-2.6,0-2.9,0.3-2.9,2.9v20.1h10.5
				c6.6,0,7-2,7.7-7.2h2.7v18.1h-2.7c-0.8-5.1-1.1-7.7-7.7-7.7h-10.5v18.1c0,4.4,0.3,4.5,8.3,5v2.6H106v-2.6c6.9-0.5,7.1-0.7,7.1-5
				V65.5c0-4.4-0.2-4.5-7.1-5v-2.7H146.3z"/>
			<path class="st0" d="M179.4,72.3c-1.3-7.7-5.1-11.6-11.8-11.6c-6.6,0-10.1,4.1-10.1,9.6c0,6,6.4,8.9,11.4,10.7
				c9.5,3.4,16.5,6.4,16.5,16.2c0,8-5.5,15.4-19.7,15.4c-5.5,0-12.1-1.4-15.6-4.5L149.3,96h2.7c2.1,8.5,6.9,13.9,14.2,13.9
				c7,0,11.3-3.6,11.3-10.1c0-6.2-6.6-9.5-12.4-11.5c-8.1-2.8-15-6.1-15-15.4c0-10.2,8.3-15,18.1-15c5.4,0,10.9,1.4,13.9,3.2v11.3
				H179.4z"/>
			<path class="st0" d="M244,121.7v-0.2c0.3,0,0.5-0.1,0.5-0.3c0-0.2,0-0.4,0-0.7v-2c0-0.3,0-0.3-0.5-0.3V118h1.4
				c0.2,0.5,0.4,0.9,0.6,1.4l0.6,1.3h0l0.6-1.3c0.2-0.5,0.5-0.9,0.6-1.4h1.3v0.2c-0.5,0-0.5,0.1-0.5,0.3v2.6c0,0.3,0,0.3,0.5,0.3
				v0.2h-1.7v-0.2c0.5,0,0.5-0.1,0.5-0.3v-2.6h0l-1.5,3.1h-0.2l-1.5-3.1h0v2.1c0,0.3,0,0.5,0,0.7c0,0.2,0.2,0.2,0.6,0.3v0.2H244z
				 M242.4,121.2c0,0.3,0,0.3,0.6,0.3v0.2h-1.9v-0.2c0.6,0,0.6-0.1,0.6-0.3v-2.9h-0.3c-0.6,0-0.8,0.1-0.9,0.7h-0.2V118h3.4v0.9h-0.2
				c-0.1-0.6-0.2-0.7-0.9-0.7h-0.3V121.2z"/>
			<path class="st1" d="M89.5,58.4c0.1-1.5,0-3.1-0.1-4.7c-0.2-1.6-0.4-3.3-0.9-5c-0.5-2-1.1-4-2-5.9c0.1-0.2,0.2-0.3,0.3-0.5
				l1.3-2.3c0.3-0.5,0.5-1.1,0.7-1.6c0.1-0.3,0.2-0.5,0.4-0.8c0.1-0.1,0.1-0.3,0.2-0.4c0.1-0.3,0.2-0.6,0.3-0.8l0.4-1.2
				c0.5-1.4,0.8-2.8,1-4.2l0.2-0.9c0.1-0.7,0.2-1.4,0.2-2l0.1-1.6c0-0.3,0-0.5,0-0.8c0-0.1,0-0.3,0-0.4L91.5,23
				c0-0.5-0.1-0.9-0.2-1.4c0-0.2-0.1-0.4-0.1-0.7c0-0.2-0.1-0.4-0.1-0.7c-0.1-0.4-0.1-0.8-0.2-1.2L90,16c-0.1-0.3-0.2-0.6-0.3-0.8
				l-0.2-0.4c-0.6-1.4-1-2.1-1-2.1c-0.1-0.2-0.4-0.3-0.6-0.3c-0.2,0.1-0.4,0.3-0.3,0.5c0,0,0.1,0.9,0.4,2.3c0,0.1,0,0.3,0.1,0.4
				c0,0.2,0.1,0.5,0.1,0.7l0.3,3c0,0.3,0,0.7,0,1.1c0,0.2,0,0.4,0,0.7c0,0.2,0,0.5,0,0.7c0,0.4,0,0.8,0,1.2l-0.2,2
				c0,0.1,0,0.2,0,0.4c0,0.2,0,0.4-0.1,0.6L88,27.2c-0.1,0.3-0.1,0.7-0.2,1c-0.1,0.4-0.1,0.8-0.2,1.2l-0.6,2.3
				c-0.1,0.3-0.2,0.7-0.3,1.1L86,34.9c-0.1,0.2-0.2,0.5-0.3,0.7c-0.1,0.1-0.1,0.3-0.2,0.4c-0.1,0.3-0.3,0.5-0.4,0.8
				c-0.2,0.5-0.4,0.9-0.6,1.3l-0.2,0.4c-2-3.2-4.5-6.3-7.4-9c-1.1-1-2.3-2-3.5-2.9c-0.2,0.4-0.3,0.8-0.5,1.2
				c-0.2,0.4-0.3,0.7-0.5,1.1c-0.2,0.4-0.4,0.7-0.6,1c-0.1,0.2-0.2,0.3-0.2,0.5c0.9,0.7,1.7,1.3,2.5,2.1c2.7,2.5,5.1,5.1,7,8
				c0.3,0.5,0.7,1,1,1.5c0,0-0.1,0.1-0.1,0.1c-0.2,0.3-0.4,0.7-0.6,1l-0.7,0.9c-0.2,0.2-0.4,0.4-0.5,0.7c-0.3,0.4-0.6,0.8-0.9,1.1
				c-0.4,0.4-0.7,0.8-1.1,1.2c-0.7,0.7-1.3,1.4-2,2l-0.6,0.5c-0.3,0.3-0.6,0.6-0.9,0.8l-1.5,1.2c-0.7,0.6-1.4,1.1-2.1,1.5
				c-0.2,0.1-0.4,0.3-0.6,0.4l-1.2,0.8l-1.1,0.6c-1.3,0.7-2,1.2-2,1.2c-0.2,0.1-0.3,0.4-0.2,0.6c0.1,0.2,0.3,0.3,0.5,0.3
				c0,0,0.1,0,0.1,0c0,0,0.8-0.2,2.3-0.6l1.2-0.4c0.3-0.1,0.6-0.2,0.9-0.4l0.9-0.4c0.9-0.4,1.8-0.8,2.8-1.4l1.8-1
				c0.4-0.3,0.8-0.5,1.2-0.8c0.2-0.1,0.4-0.3,0.6-0.4c1.1-0.8,2.2-1.7,3.3-2.7l0.4-0.4c0.4-0.4,0.8-0.8,1.1-1.2
				c0.2-0.2,0.4-0.4,0.6-0.6l0.5-0.6c0.5,1.2,1,2.4,1.3,3.5c0.9,3,1.4,6.1,1.6,8.9c0.1,2.8-0.1,5.4-0.4,7.7
				c-0.4,2.3-0.8,4.3-1.3,5.9c-0.5,1.6-0.9,2.9-1.2,3.7c-0.3,0.9-0.5,1.3-0.5,1.3s0.2-0.4,0.7-1.2c0.2-0.4,0.5-0.9,0.8-1.5
				c0.3-0.6,0.6-1.3,1-2.1c0.7-1.6,1.4-3.5,2.1-5.9C88.9,64.2,89.4,61.4,89.5,58.4"/>
			<path class="st1" d="M68.9,29.5c0.2-0.3,0.4-0.7,0.6-1c0.2-0.4,0.3-0.7,0.5-1.1c0.5-1.3,1.1-2.6,1.4-4c0.5-1.3,0.7-2.6,0.9-3.8
				c0.1-0.5,0.2-0.9,0.3-1.4c0.1-0.9,0.2-1.7,0.2-2.5l0.1-1.2L72.7,11c-0.1-0.5-0.1-0.9-0.2-1.4c0-0.2-0.1-0.5-0.1-0.7
				c0-0.2-0.1-0.4-0.1-0.7c-0.1-0.4-0.1-0.9-0.2-1.3l-0.9-3.2l-0.5-1.2c-0.6-1.4-0.9-2.2-0.9-2.2C69.8,0.1,69.5,0,69.3,0
				c-0.2,0.1-0.4,0.3-0.4,0.5c0,0,0.1,0.9,0.4,2.4l0.2,1.2l0.2,3.1c0,0.4,0,0.7,0,1.1c0,0.2,0,0.4,0,0.7v0.7c0,0.4,0,0.9,0,1.3
				l-0.3,3l-0.2,1.3c-0.1,0.4-0.1,0.8-0.2,1.3c-0.1,0.3-0.1,0.7-0.2,1c-0.1,0.4-0.2,0.7-0.3,1.1c-0.3,1.2-0.6,2.4-1,3.6
				c0,0.1-0.1,0.2-0.1,0.4c-0.1,0-0.2-0.1-0.2-0.1c-3.6-2-7.4-3.5-11.2-4.5c-3.9-1.1-7.8-1.4-11.6-1.4c-3.8,0-7.5,0.6-10.8,1.6
				c-2.7,0.8-5.3,1.8-7.5,3.1c3.7-3.1,7.9-5.5,12.3-7.2c4.6-1.8,9.6-2.7,14.5-2.8c-0.5-2-0.1-4.2,1-6C47.8,5.4,41.8,6.7,36.3,9
				c-6.1,2.6-11.8,6.6-16.5,11.5c-4.3,4.6-7.7,10.1-9.9,15.9c-1.9,5.2-3,10.3-3,16c0,0.7,0,1.7,0,1.7h3.1c0,0,0-1,0.1-1.6
				c0.3-5.3,1.5-10.1,3.5-14.8c1.5-3.5,3.5-6.7,5.8-9.7c1.8-1.4,3.9-2.7,6.4-3.9c2.5-1.2,5.4-2.2,8.6-2.9c3.1-0.7,6.5-1,10-0.9
				c3.5,0.1,7.1,0.7,10.6,1.6c3.5,0.9,7,2.5,10.2,4.3c0.3,0.2,0.5,0.3,0.8,0.5c0,0.1-0.1,0.2-0.1,0.2c-0.2,0.4-0.4,0.8-0.6,1.1
				c-0.6,1.1-1.1,2.2-1.8,3.2c-0.6,1.1-1.3,2.1-2,3c-0.2,0.3-0.5,0.6-0.7,0.9c-0.2,0.3-0.5,0.5-0.7,0.8c-0.3,0.3-0.6,0.6-0.8,1
				l-0.7,0.8l-2.3,2.3c-0.3,0.3-0.6,0.6-1,0.9c-0.2,0.2-0.4,0.3-0.5,0.5c-0.2,0.2-0.3,0.3-0.5,0.5c-0.3,0.3-0.6,0.5-0.9,0.7
				l-2.5,1.9c-0.2,0.2-0.5,0.3-0.7,0.4c-0.1,0.1-0.2,0.2-0.4,0.2c-1.3,0.8-2,1.4-2,1.4c-0.2,0.1-0.3,0.4-0.2,0.6
				c0.1,0.2,0.3,0.3,0.4,0.3c0,0,0.1,0,0.2,0c0,0,0.9-0.3,2.3-0.8l0.4-0.1c0.3-0.1,0.5-0.2,0.9-0.3l2.9-1.5c0.4-0.2,0.7-0.4,1.1-0.7
				c0.2-0.1,0.4-0.2,0.6-0.4c0.2-0.1,0.4-0.3,0.6-0.4c0.4-0.2,0.8-0.5,1.2-0.8l2.7-2.2l0.9-0.8c0.6-0.6,1.2-1.2,1.8-1.8
				c0.3-0.4,0.6-0.7,0.9-1.1c0.8-1,1.6-2,2.3-3.1C67.5,32.1,68.2,30.8,68.9,29.5"/>
			<path class="st1" d="M84.6,15.3c-0.7-0.9-1.7-1.5-2.8-1.6c-1.1-0.1-2.2,0.2-3.1,0.8c-1.8,1.4-2.2,4.1-0.8,5.9
				c0.8,1.1,2.1,1.7,3.4,1.7c0.9,0,1.8-0.3,2.6-0.9c0.9-0.7,1.5-1.7,1.6-2.8C85.6,17.3,85.3,16.2,84.6,15.3"/>
			<path class="st1" d="M101.7,40.5c-0.8-3.1-1.8-6.1-3.1-8.9c-0.8-1.7-1.5-3.1-2.3-4.3c-0.5-0.8-0.9-1.5-1.4-2.2l-0.5-0.7l0,0.6
				c0,0.2,0,0.3,0,0.4c0,0.3,0,0.6,0,0.8l-0.1,1.7c-0.1,0.7-0.1,1.5-0.2,2.2c-0.1,0.3-0.1,0.6-0.2,0.9c-0.3,1.5-0.6,3-1.1,4.5
				L92.8,36c0.9,2,1.8,4.1,2.4,6.3c1.5,4.9,2.3,10.1,2.3,15c0.1,4.1-0.3,8.5-1.3,12.9c-0.8,3.3-1.9,6.5-3.4,9.5
				c-1.1,2.3-2.3,4.1-3.3,5.6c-0.9,1.2-1.4,1.9-1.4,1.9c-0.2,0.3-0.2,0.7,0,1c0.2,0.2,0.4,0.3,0.6,0.3c0.2,0,0.4-0.1,0.5-0.2
				c0,0,0.6-0.6,1.8-1.7c1.6-1.5,3.1-3.4,4.5-5.4c2.1-3.1,3.7-6.3,4.9-9.8c1.5-4.2,2.5-9,2.8-14C103.5,51.4,103,45.7,101.7,40.5"/>
			<path class="st1" d="M63.8,13c1-0.7,1.6-1.8,1.8-3c0.2-1.2-0.2-2.4-0.9-3.4c-0.7-1-1.8-1.6-3-1.8c-0.2,0-0.4,0-0.6,0
				c-1,0-2,0.3-2.8,0.9c-2,1.5-2.4,4.4-0.8,6.4C58.9,14.1,61.8,14.5,63.8,13"/>
			<path class="st0" d="M86,112.7v-2.6l3.7-0.3c2.4-0.2,2.9-1.2,2-3.3c-1.3-3.8-4.2-12-5.2-14.7H68.8c-1.8,5.6-3.4,10.1-4.7,14.9
				c-0.7,2-0.4,2.8,1.9,3.1l4.1,0.4v2.6H52.6v-2.6c5-0.3,5.7-1.2,7.4-5.4C65.7,90,71.4,73.2,76.8,57.9h6.4c4.5,13,12.6,36,16.8,47.6
				c1.4,4,2.3,4.3,6.8,4.7v2.6H86z M77.8,66h-0.3c-2.4,6.8-5.2,15-7.6,22.8h15.6C83.7,83.1,79.6,71.2,77.8,66"/>
			<path class="st0" d="M214.9,112.7v-2.6l3.7-0.3c2.4-0.2,2.9-1.2,2-3.3c-1.3-3.8-4.2-12-5.2-14.7h-17.7
				c-1.8,5.6-3.4,10.1-4.7,14.9c-0.7,2-0.4,2.8,1.9,3.1l4.1,0.4v2.6h-17.5v-2.6c5-0.3,5.7-1.2,7.4-5.4c5.7-14.8,11.4-31.6,16.8-46.8
				h6.4c4.5,13,12.6,36,16.8,47.6c1.4,4,2.3,4.3,6.8,4.7v2.6H214.9z M206.7,66h-0.3c-2.4,6.8-5.2,15-7.6,22.8h15.6
				C212.7,83.1,208.6,71.2,206.7,66"/>
		</g>
	</g>
</g>
</svg>
